999
FreeCAD v0.19 24276 (Git)
  0
SECTION
  2
HEADER
  9
$ACADVER
  1
AC1014
  9
$ACADMAINTVER
 70
     9
  9
$DWGCODEPAGE
  3
ANSI_1252
  9
$TEXTSTYLE
  7
STANDARD
  9
$DIMSTYLE
  2
STANDARD
  9
$DIMTXSTY
  7
STANDARD
  9
$CMLSTYLE
  2
STANDARD
  9
$PEXTMAX
 10
50
 20
50
 30
50
  9
$PEXTMIN
 10
0
 20
0
 30
0
  9
$HANDSEED
  5
FFFF
  0
ENDSEC
  0
SECTION
  2
CLASSES
  0
CLASS
  1
ACDBDICTIONARYWDFLT
  2
AcDbDictionaryWithDefault
  3
ObjectDBX Classes
 90
        0
280
     0
281
     0
  0
CLASS
  1
XRECORD
  2
AcDbXrecord
  3
ObjectDBX Classes
 90
        0
280
     0
281
     0
  0
CLASS
  1
LWPOLYLINE
  2
AcDbPolyline
  3
ObjectDBX Classes
 90
        0
280
     0
281
     1
  0
ENDSEC
  0
SECTION
  2
TABLES
  0
TABLE
  2
VPORT
  5
20
330
0
100
AcDbSymbolTable
 70
     1
  0
VPORT
  5
21
330
20
100
AcDbSymbolTableRecord
100
AcDbViewportTableRecord
  2
*ACTIVE
 70
     0
  0
ENDTAB
  0
TABLE
  2
LTYPE
  5
22
330
0
100
AcDbSymbolTable
 70
     1
  0
LTYPE
  5
23
330
21
100
AcDbSymbolTableRecord
100
AcDbLinetypeTableRecord
  2
BYBLOCK
 70
     0
  3

 72
    65
 73
     0
 40
0.0
  0
LTYPE
  5
24
330
21
100
AcDbSymbolTableRecord
100
AcDbLinetypeTableRecord
  2
BYLAYER
 70
     0
  3

 72
    65
 73
     0
 40
0.0
  0
LTYPE
  5
25
330
21
100
AcDbSymbolTableRecord
100
AcDbLinetypeTableRecord
  2
CONTINUOUS
 70
     0
  3
Solid line
 72
    65
 73
     0
 40
0.0
  0
ENDTAB
  0
TABLE
  2
LAYER
  5
FD5
330
0
100
AcDbSymbolTable
 70
10
  0
LAYER
  5
FD6
330
FD5
100
AcDbSymbolTableRecord
100
AcDbLayerTableRecord
  2
0
 70
   0
 62
   7
  6
CONTINUOUS
  0
LAYER
  5
FD7
330
FD5
100
AcDbSymbolTableRecord
100
AcDbLayerTableRecord
  2
none
 70
    0
 62
    7
  6
CONTINUOUS
  0
LAYER
  5
FD8
330
FD5
100
AcDbSymbolTableRecord
100
AcDbLayerTableRecord
  2
Shape2DView007
 70
    0
 62
    7
  6
CONTINUOUS
  0
LAYER
  5
FD9
330
FD5
100
AcDbSymbolTableRecord
100
AcDbLayerTableRecord
  2
Shape2DView006
 70
    0
 62
    7
  6
CONTINUOUS
  0
LAYER
  5
FDA
330
FD5
100
AcDbSymbolTableRecord
100
AcDbLayerTableRecord
  2
Shape2DView005
 70
    0
 62
    7
  6
CONTINUOUS
  0
LAYER
  5
FDB
330
FD5
100
AcDbSymbolTableRecord
100
AcDbLayerTableRecord
  2
Shape2DView004
 70
    0
 62
    7
  6
CONTINUOUS
  0
LAYER
  5
FDC
330
FD5
100
AcDbSymbolTableRecord
100
AcDbLayerTableRecord
  2
Shape2DView003
 70
    0
 62
    7
  6
CONTINUOUS
  0
LAYER
  5
FDD
330
FD5
100
AcDbSymbolTableRecord
100
AcDbLayerTableRecord
  2
Shape2DView002
 70
    0
 62
    7
  6
CONTINUOUS
  0
LAYER
  5
FDE
330
FD5
100
AcDbSymbolTableRecord
100
AcDbLayerTableRecord
  2
Shape2DView001
 70
    0
 62
    7
  6
CONTINUOUS
  0
LAYER
  5
FDF
330
FD5
100
AcDbSymbolTableRecord
100
AcDbLayerTableRecord
  2
Shape2DView
 70
    0
 62
    7
  6
CONTINUOUS
  0
ENDTAB
  0
TABLE
  2
STYLE
  5
70
330
0
100
AcDbSymbolTable
 70
     2
  0
STYLE
  5
71
330
70
100
AcDbSymbolTableRecord
100
AcDbTextStyleTableRecord
  2
STANDARD
 70
     0
 40
0.0
 41
1.0
 50
0.0
 71
     0
 42
2.5
  3
arial.ttf
  4

  0
STYLE
  5
72
330
70
100
AcDbSymbolTableRecord
100
AcDbTextStyleTableRecord
  2
ANNOTATIVE
 70
     0
 40
0.0
 41
1.0
 50
0.0
 71
     0
 42
2.5
  3
arial.ttf
  4

  0
ENDTAB
  0
TABLE
  2
VIEW
  5
73
330
0
100
AcDbSymbolTable
 70
     0
  0
ENDTAB
  0
TABLE
  2
UCS
  5
74
330
0
100
AcDbSymbolTable
 70
     0
  0
ENDTAB
  0
TABLE
  2
APPID
  5
75
330
0
100
AcDbSymbolTable
 70
     2
  0
APPID
  5
76
330
75
100
AcDbSymbolTableRecord
100
AcDbRegAppTableRecord
  2
ACAD
 70
     0
  0
APPID
  5
77
330
75
100
AcDbSymbolTableRecord
100
AcDbRegAppTableRecord
  2
ACADANNOTATIVE
 70
     0
  0
ENDTAB
  0
TABLE
  2
DIMSTYLE
  5
78
330
0
100
AcDbSymbolTable
 70
     2
  0
DIMSTYLE
105
79
330
78
100
AcDbSymbolTableRecord
100
AcDbDimStyleTableRecord
  2
STANDARD
 70
     0
  3

  4

  5

  6

  7

 40
0.0
 41
2.5
 42
0.625
 43
3.75
 44
1.25
 45
0.0
 46
0.0
 47
0.0
 48
0.0
140
2.5
141
2.5
142
0.0
143
0.03937007874016
144
1.0
145
0.0
146
1.0
147
0.625
 71
     0
 72
     0
 73
     0
 74
     0
 75
     0
 76
     0
 77
     1
 78
     8
170
     0
171
     3
172
     1
173
     0
174
     0
175
     0
176
     0
177
     0
178
     0
270
     2
271
     2
272
     2
273
     2
274
     3
340
71
275
     0
280
     0
281
     0
282
     0
283
     0
284
     8
285
     0
286
     0
287
     3
288
     0
  0
ENDTAB
  0
TABLE
  2
BLOCK_RECORD
  5
A01
330
0
100
AcDbSymbolTable
  70
5
  0
BLOCK_RECORD
  5
A02
330
A01
100
AcDbSymbolTableRecord
100
AcDbBlockTableRecord
  2
*MODEL_SPACE
  0
BLOCK_RECORD
  5
A03
330
A01
100
AcDbSymbolTableRecord
100
AcDbBlockTableRecord
  2
*PAPER_SPACE
  0
ENDTAB
  0
ENDSEC
  0
SECTION
  2
BLOCKS
  0
BLOCK
  5
A04
330
A02
100
AcDbEntity
  8
0
100
AcDbBlockBegin
  2
*MODEL_SPACE
 70
   0
 10
0
 20
0
 30
0
  3
*MODEL_SPACE
  1
 
  0
ENDBLK
  5
A05
330
A02
100
AcDbEntity
  8
0
100
AcDbBlockEnd
  0
BLOCK
  5
A06
330
A03
100
AcDbEntity
 67
1
  8
0
100
AcDbBlockBegin
  2
*PAPER_SPACE
 70
   0
 10
0
 20
0
 30
0
  3
*PAPER_SPACE
  1
 
  0
ENDBLK
  5
A07
330
A03
100
AcDbEntity
 67
    1
  8
0
100
AcDbBlockEnd
  0
ENDSEC
  0
SECTION
  2
ENTITIES
  0
LINE
  5
A08
330
A02
100
AcDbEntity
  8
Shape2DView007
100
AcDbLine
 10
-10
 20
990
 30
0
 11
-228
 21
990
 31
0
  0
LINE
  5
A09
330
A02
100
AcDbEntity
  8
Shape2DView007
100
AcDbLine
 10
-228
 20
990
 30
0
 11
-228
 21
777.5
 31
0
  0
LINE
  5
A0A
330
A02
100
AcDbEntity
  8
Shape2DView007
100
AcDbLine
 10
-228
 20
777.5
 30
0
 11
-10
 21
777.5
 31
0
  0
LINE
  5
A0B
330
A02
100
AcDbEntity
  8
Shape2DView007
100
AcDbLine
 10
-10
 20
777.5
 30
0
 11
-10
 21
990
 31
0
  0
CIRCLE
  5
A0C
330
A02
100
AcDbEntity
  8
Shape2DView007
100
AcDbCircle
 10
-40.5
 20
826.25
 40
1.7
  0
CIRCLE
  5
A0D
330
A02
100
AcDbEntity
  8
Shape2DView007
100
AcDbCircle
 10
-197.5
 20
826.25
 40
1.7
  0
CIRCLE
  5
A0E
330
A02
100
AcDbEntity
  8
Shape2DView007
100
AcDbCircle
 10
-197.5
 20
941.25
 40
1.7
  0
CIRCLE
  5
A0F
330
A02
100
AcDbEntity
  8
Shape2DView007
100
AcDbCircle
 10
-40.5
 20
941.25
 40
1.7
  0
CIRCLE
  5
A10
330
A02
100
AcDbEntity
  8
Shape2DView007
100
AcDbCircle
 10
-214.8
 20
972.5
 40
1.7
  0
CIRCLE
  5
A11
330
A02
100
AcDbEntity
  8
Shape2DView007
100
AcDbCircle
 10
-214.8
 20
797.5
 40
1.7
  0
CIRCLE
  5
A12
330
A02
100
AcDbEntity
  8
Shape2DView007
100
AcDbCircle
 10
-23.2
 20
797.5
 40
1.7
  0
CIRCLE
  5
A13
330
A02
100
AcDbEntity
  8
Shape2DView007
100
AcDbCircle
 10
-23.2
 20
972.5
 40
1.7
  0
LINE
  5
A14
330
A02
100
AcDbEntity
  8
Shape2DView006
100
AcDbLine
 10
-10
 20
767.5
 30
0
 11
-228
 21
767.5
 31
0
  0
LINE
  5
A15
330
A02
100
AcDbEntity
  8
Shape2DView006
100
AcDbLine
 10
-228
 20
767.5
 30
0
 11
-228
 21
530
 31
0
  0
LINE
  5
A16
330
A02
100
AcDbEntity
  8
Shape2DView006
100
AcDbLine
 10
-228
 20
530
 30
0
 11
-10
 21
530
 31
0
  0
LINE
  5
A17
330
A02
100
AcDbEntity
  8
Shape2DView006
100
AcDbLine
 10
-10
 20
530
 30
0
 11
-10
 21
767.5
 31
0
  0
LINE
  5
A18
330
A02
100
AcDbEntity
  8
Shape2DView006
100
AcDbLine
 10
-163.45
 20
568.5
 30
0
 11
-162.906
 21
568.5
 31
0
  0
ARC
  5
A19
330
A02
100
AcDbEntity
  8
Shape2DView006
100
AcDbCircle
 10
-173.5
 20
570
 30
0
 40
10.7
100
AcDbArc
 50
-171.941
 51
-8.05866
  0
LINE
  5
A1A
330
A02
100
AcDbEntity
  8
Shape2DView006
100
AcDbLine
 10
-183.55
 20
568.5
 30
0
 11
-184.094
 21
568.5
 31
0
  0
LINE
  5
A1B
330
A02
100
AcDbEntity
  8
Shape2DView006
100
AcDbLine
 10
-183.55
 20
571.5
 30
0
 11
-183.55
 21
568.5
 31
0
  0
LINE
  5
A1C
330
A02
100
AcDbEntity
  8
Shape2DView006
100
AcDbLine
 10
-183.55
 20
571.5
 30
0
 11
-184.094
 21
571.5
 31
0
  0
ARC
  5
A1D
330
A02
100
AcDbEntity
  8
Shape2DView006
100
AcDbCircle
 10
-173.5
 20
570
 30
0
 40
10.7
100
AcDbArc
 50
8.05866
 51
171.941
  0
LINE
  5
A1E
330
A02
100
AcDbEntity
  8
Shape2DView006
100
AcDbLine
 10
-163.45
 20
571.5
 30
0
 11
-162.906
 21
571.5
 31
0
  0
LINE
  5
A1F
330
A02
100
AcDbEntity
  8
Shape2DView006
100
AcDbLine
 10
-163.45
 20
568.5
 30
0
 11
-163.45
 21
571.5
 31
0
  0
CIRCLE
  5
A20
330
A02
100
AcDbEntity
  8
Shape2DView006
100
AcDbCircle
 10
-214.8
 20
547.5
 40
1.7
  0
CIRCLE
  5
A21
330
A02
100
AcDbEntity
  8
Shape2DView006
100
AcDbCircle
 10
-23.2
 20
547.5
 40
1.7
  0
CIRCLE
  5
A22
330
A02
100
AcDbEntity
  8
Shape2DView006
100
AcDbCircle
 10
-214.8
 20
747.5
 40
1.7
  0
CIRCLE
  5
A23
330
A02
100
AcDbEntity
  8
Shape2DView006
100
AcDbCircle
 10
-23.2
 20
747.5
 40
1.7
  0
LINE
  5
A24
330
A02
100
AcDbEntity
  8
Shape2DView005
100
AcDbLine
 10
293
 20
985
 30
0
 11
282.6
 21
985
 31
0
  0
LINE
  5
A25
330
A02
100
AcDbEntity
  8
Shape2DView005
100
AcDbLine
 10
293
 20
979.773
 30
0
 11
293
 21
985
 31
0
  0
LINE
  5
A26
330
A02
100
AcDbEntity
  8
Shape2DView005
100
AcDbLine
 10
288.469
 20
979.773
 30
0
 11
293
 21
979.773
 31
0
  0
ARC
  5
A27
330
A02
100
AcDbEntity
  8
Shape2DView005
100
AcDbCircle
 10
288.172
 20
979.601
 30
0
 40
0.343333
100
AcDbArc
 50
30
 51
-120
  0
LINE
  5
A28
330
A02
100
AcDbEntity
  8
Shape2DView005
100
AcDbLine
 10
288
 20
979.304
 30
0
 11
288
 21
970.242
 31
0
  0
ARC
  5
A29
330
A02
100
AcDbEntity
  8
Shape2DView005
100
AcDbCircle
 10
288.172
 20
969.944
 30
0
 40
0.343333
100
AcDbArc
 50
120
 51
-30
  0
LINE
  5
A2A
330
A02
100
AcDbEntity
  8
Shape2DView005
100
AcDbLine
 10
288.469
 20
969.773
 30
0
 11
293
 21
969.773
 31
0
  0
LINE
  5
A2B
330
A02
100
AcDbEntity
  8
Shape2DView005
100
AcDbLine
 10
293
 20
959.318
 30
0
 11
293
 21
969.773
 31
0
  0
LINE
  5
A2C
330
A02
100
AcDbEntity
  8
Shape2DView005
100
AcDbLine
 10
288.469
 20
959.318
 30
0
 11
293
 21
959.318
 31
0
  0
ARC
  5
A2D
330
A02
100
AcDbEntity
  8
Shape2DView005
100
AcDbCircle
 10
288.172
 20
959.147
 30
0
 40
0.343333
100
AcDbArc
 50
30
 51
-120
  0
LINE
  5
A2E
330
A02
100
AcDbEntity
  8
Shape2DView005
100
AcDbLine
 10
288
 20
958.849
 30
0
 11
288
 21
949.787
 31
0
  0
ARC
  5
A2F
330
A02
100
AcDbEntity
  8
Shape2DView005
100
AcDbCircle
 10
288.172
 20
949.49
 30
0
 40
0.343333
100
AcDbArc
 50
120
 51
-30
  0
LINE
  5
A30
330
A02
100
AcDbEntity
  8
Shape2DView005
100
AcDbLine
 10
288.469
 20
949.318
 30
0
 11
293
 21
949.318
 31
0
  0
LINE
  5
A31
330
A02
100
AcDbEntity
  8
Shape2DView005
100
AcDbLine
 10
293
 20
938.864
 30
0
 11
293
 21
949.318
 31
0
  0
LINE
  5
A32
330
A02
100
AcDbEntity
  8
Shape2DView005
100
AcDbLine
 10
288.469
 20
938.864
 30
0
 11
293
 21
938.864
 31
0
  0
ARC
  5
A33
330
A02
100
AcDbEntity
  8
Shape2DView005
100
AcDbCircle
 10
288.172
 20
938.692
 30
0
 40
0.343333
100
AcDbArc
 50
30
 51
-120
  0
LINE
  5
A34
330
A02
100
AcDbEntity
  8
Shape2DView005
100
AcDbLine
 10
288
 20
938.395
 30
0
 11
288
 21
929.333
 31
0
  0
ARC
  5
A35
330
A02
100
AcDbEntity
  8
Shape2DView005
100
AcDbCircle
 10
288.172
 20
929.035
 30
0
 40
0.343333
100
AcDbArc
 50
120
 51
-30
  0
LINE
  5
A36
330
A02
100
AcDbEntity
  8
Shape2DView005
100
AcDbLine
 10
288.469
 20
928.864
 30
0
 11
293
 21
928.864
 31
0
  0
LINE
  5
A37
330
A02
100
AcDbEntity
  8
Shape2DView005
100
AcDbLine
 10
293
 20
918.409
 30
0
 11
293
 21
928.864
 31
0
  0
LINE
  5
A38
330
A02
100
AcDbEntity
  8
Shape2DView005
100
AcDbLine
 10
288.469
 20
918.409
 30
0
 11
293
 21
918.409
 31
0
  0
ARC
  5
A39
330
A02
100
AcDbEntity
  8
Shape2DView005
100
AcDbCircle
 10
288.172
 20
918.237
 30
0
 40
0.343333
100
AcDbArc
 50
30
 51
-120
  0
LINE
  5
A3A
330
A02
100
AcDbEntity
  8
Shape2DView005
100
AcDbLine
 10
288
 20
917.94
 30
0
 11
288
 21
908.878
 31
0
  0
ARC
  5
A3B
330
A02
100
AcDbEntity
  8
Shape2DView005
100
AcDbCircle
 10
288.172
 20
908.581
 30
0
 40
0.343333
100
AcDbArc
 50
120
 51
-30
  0
LINE
  5
A3C
330
A02
100
AcDbEntity
  8
Shape2DView005
100
AcDbLine
 10
288.469
 20
908.409
 30
0
 11
293
 21
908.409
 31
0
  0
LINE
  5
A3D
330
A02
100
AcDbEntity
  8
Shape2DView005
100
AcDbLine
 10
293
 20
897.955
 30
0
 11
293
 21
908.409
 31
0
  0
LINE
  5
A3E
330
A02
100
AcDbEntity
  8
Shape2DView005
100
AcDbLine
 10
288.469
 20
897.955
 30
0
 11
293
 21
897.955
 31
0
  0
ARC
  5
A3F
330
A02
100
AcDbEntity
  8
Shape2DView005
100
AcDbCircle
 10
288.172
 20
897.783
 30
0
 40
0.343333
100
AcDbArc
 50
30
 51
-120
  0
LINE
  5
A40
330
A02
100
AcDbEntity
  8
Shape2DView005
100
AcDbLine
 10
288
 20
897.486
 30
0
 11
288
 21
888.424
 31
0
  0
ARC
  5
A41
330
A02
100
AcDbEntity
  8
Shape2DView005
100
AcDbCircle
 10
288.172
 20
888.126
 30
0
 40
0.343333
100
AcDbArc
 50
120
 51
-30
  0
LINE
  5
A42
330
A02
100
AcDbEntity
  8
Shape2DView005
100
AcDbLine
 10
288.469
 20
887.955
 30
0
 11
293
 21
887.955
 31
0
  0
LINE
  5
A43
330
A02
100
AcDbEntity
  8
Shape2DView005
100
AcDbLine
 10
293
 20
877.5
 30
0
 11
293
 21
887.955
 31
0
  0
LINE
  5
A44
330
A02
100
AcDbEntity
  8
Shape2DView005
100
AcDbLine
 10
288.469
 20
877.5
 30
0
 11
293
 21
877.5
 31
0
  0
ARC
  5
A45
330
A02
100
AcDbEntity
  8
Shape2DView005
100
AcDbCircle
 10
288.172
 20
877.328
 30
0
 40
0.343333
100
AcDbArc
 50
30
 51
-120
  0
LINE
  5
A46
330
A02
100
AcDbEntity
  8
Shape2DView005
100
AcDbLine
 10
288
 20
877.031
 30
0
 11
288
 21
867.969
 31
0
  0
ARC
  5
A47
330
A02
100
AcDbEntity
  8
Shape2DView005
100
AcDbCircle
 10
288.172
 20
867.672
 30
0
 40
0.343333
100
AcDbArc
 50
120
 51
-30
  0
LINE
  5
A48
330
A02
100
AcDbEntity
  8
Shape2DView005
100
AcDbLine
 10
288.469
 20
867.5
 30
0
 11
293
 21
867.5
 31
0
  0
LINE
  5
A49
330
A02
100
AcDbEntity
  8
Shape2DView005
100
AcDbLine
 10
293
 20
857.045
 30
0
 11
293
 21
867.5
 31
0
  0
LINE
  5
A4A
330
A02
100
AcDbEntity
  8
Shape2DView005
100
AcDbLine
 10
288.469
 20
857.045
 30
0
 11
293
 21
857.045
 31
0
  0
ARC
  5
A4B
330
A02
100
AcDbEntity
  8
Shape2DView005
100
AcDbCircle
 10
288.172
 20
856.874
 30
0
 40
0.343333
100
AcDbArc
 50
30
 51
-120
  0
LINE
  5
A4C
330
A02
100
AcDbEntity
  8
Shape2DView005
100
AcDbLine
 10
288
 20
856.576
 30
0
 11
288
 21
847.514
 31
0
  0
ARC
  5
A4D
330
A02
100
AcDbEntity
  8
Shape2DView005
100
AcDbCircle
 10
288.172
 20
847.217
 30
0
 40
0.343333
100
AcDbArc
 50
120
 51
-30
  0
LINE
  5
A4E
330
A02
100
AcDbEntity
  8
Shape2DView005
100
AcDbLine
 10
288.469
 20
847.045
 30
0
 11
293
 21
847.045
 31
0
  0
LINE
  5
A4F
330
A02
100
AcDbEntity
  8
Shape2DView005
100
AcDbLine
 10
293
 20
836.591
 30
0
 11
293
 21
847.045
 31
0
  0
LINE
  5
A50
330
A02
100
AcDbEntity
  8
Shape2DView005
100
AcDbLine
 10
288.469
 20
836.591
 30
0
 11
293
 21
836.591
 31
0
  0
ARC
  5
A51
330
A02
100
AcDbEntity
  8
Shape2DView005
100
AcDbCircle
 10
288.172
 20
836.419
 30
0
 40
0.343333
100
AcDbArc
 50
30
 51
-120
  0
LINE
  5
A52
330
A02
100
AcDbEntity
  8
Shape2DView005
100
AcDbLine
 10
288
 20
836.122
 30
0
 11
288
 21
827.06
 31
0
  0
ARC
  5
A53
330
A02
100
AcDbEntity
  8
Shape2DView005
100
AcDbCircle
 10
288.172
 20
826.763
 30
0
 40
0.343333
100
AcDbArc
 50
120
 51
-30
  0
LINE
  5
A54
330
A02
100
AcDbEntity
  8
Shape2DView005
100
AcDbLine
 10
288.469
 20
826.591
 30
0
 11
293
 21
826.591
 31
0
  0
LINE
  5
A55
330
A02
100
AcDbEntity
  8
Shape2DView005
100
AcDbLine
 10
293
 20
816.136
 30
0
 11
293
 21
826.591
 31
0
  0
LINE
  5
A56
330
A02
100
AcDbEntity
  8
Shape2DView005
100
AcDbLine
 10
288.469
 20
816.136
 30
0
 11
293
 21
816.136
 31
0
  0
ARC
  5
A57
330
A02
100
AcDbEntity
  8
Shape2DView005
100
AcDbCircle
 10
288.172
 20
815.965
 30
0
 40
0.343333
100
AcDbArc
 50
30
 51
-120
  0
LINE
  5
A58
330
A02
100
AcDbEntity
  8
Shape2DView005
100
AcDbLine
 10
288
 20
815.667
 30
0
 11
288
 21
806.605
 31
0
  0
ARC
  5
A59
330
A02
100
AcDbEntity
  8
Shape2DView005
100
AcDbCircle
 10
288.172
 20
806.308
 30
0
 40
0.343333
100
AcDbArc
 50
120
 51
-30
  0
LINE
  5
A5A
330
A02
100
AcDbEntity
  8
Shape2DView005
100
AcDbLine
 10
288.469
 20
806.136
 30
0
 11
293
 21
806.136
 31
0
  0
LINE
  5
A5B
330
A02
100
AcDbEntity
  8
Shape2DView005
100
AcDbLine
 10
293
 20
795.682
 30
0
 11
293
 21
806.136
 31
0
  0
LINE
  5
A5C
330
A02
100
AcDbEntity
  8
Shape2DView005
100
AcDbLine
 10
288.469
 20
795.682
 30
0
 11
293
 21
795.682
 31
0
  0
ARC
  5
A5D
330
A02
100
AcDbEntity
  8
Shape2DView005
100
AcDbCircle
 10
288.172
 20
795.51
 30
0
 40
0.343333
100
AcDbArc
 50
30
 51
-120
  0
LINE
  5
A5E
330
A02
100
AcDbEntity
  8
Shape2DView005
100
AcDbLine
 10
288
 20
795.213
 30
0
 11
288
 21
786.151
 31
0
  0
ARC
  5
A5F
330
A02
100
AcDbEntity
  8
Shape2DView005
100
AcDbCircle
 10
288.172
 20
785.853
 30
0
 40
0.343333
100
AcDbArc
 50
120
 51
-30
  0
LINE
  5
A60
330
A02
100
AcDbEntity
  8
Shape2DView005
100
AcDbLine
 10
288.469
 20
785.682
 30
0
 11
293
 21
785.682
 31
0
  0
LINE
  5
A61
330
A02
100
AcDbEntity
  8
Shape2DView005
100
AcDbLine
 10
293
 20
775.227
 30
0
 11
293
 21
785.682
 31
0
  0
LINE
  5
A62
330
A02
100
AcDbEntity
  8
Shape2DView005
100
AcDbLine
 10
288.469
 20
775.227
 30
0
 11
293
 21
775.227
 31
0
  0
ARC
  5
A63
330
A02
100
AcDbEntity
  8
Shape2DView005
100
AcDbCircle
 10
288.172
 20
775.056
 30
0
 40
0.343333
100
AcDbArc
 50
30
 51
-120
  0
LINE
  5
A64
330
A02
100
AcDbEntity
  8
Shape2DView005
100
AcDbLine
 10
288
 20
774.758
 30
0
 11
288
 21
765.696
 31
0
  0
ARC
  5
A65
330
A02
100
AcDbEntity
  8
Shape2DView005
100
AcDbCircle
 10
288.172
 20
765.399
 30
0
 40
0.343333
100
AcDbArc
 50
120
 51
-30
  0
LINE
  5
A66
330
A02
100
AcDbEntity
  8
Shape2DView005
100
AcDbLine
 10
288.469
 20
765.227
 30
0
 11
293
 21
765.227
 31
0
  0
LINE
  5
A67
330
A02
100
AcDbEntity
  8
Shape2DView005
100
AcDbLine
 10
293
 20
754.773
 30
0
 11
293
 21
765.227
 31
0
  0
LINE
  5
A68
330
A02
100
AcDbEntity
  8
Shape2DView005
100
AcDbLine
 10
288.469
 20
754.773
 30
0
 11
293
 21
754.773
 31
0
  0
ARC
  5
A69
330
A02
100
AcDbEntity
  8
Shape2DView005
100
AcDbCircle
 10
288.172
 20
754.601
 30
0
 40
0.343333
100
AcDbArc
 50
30
 51
-120
  0
LINE
  5
A6A
330
A02
100
AcDbEntity
  8
Shape2DView005
100
AcDbLine
 10
288
 20
754.304
 30
0
 11
288
 21
745.242
 31
0
  0
ARC
  5
A6B
330
A02
100
AcDbEntity
  8
Shape2DView005
100
AcDbCircle
 10
288.172
 20
744.944
 30
0
 40
0.343333
100
AcDbArc
 50
120
 51
-30
  0
LINE
  5
A6C
330
A02
100
AcDbEntity
  8
Shape2DView005
100
AcDbLine
 10
288.469
 20
744.773
 30
0
 11
293
 21
744.773
 31
0
  0
LINE
  5
A6D
330
A02
100
AcDbEntity
  8
Shape2DView005
100
AcDbLine
 10
293
 20
734.318
 30
0
 11
293
 21
744.773
 31
0
  0
LINE
  5
A6E
330
A02
100
AcDbEntity
  8
Shape2DView005
100
AcDbLine
 10
288.469
 20
734.318
 30
0
 11
293
 21
734.318
 31
0
  0
ARC
  5
A6F
330
A02
100
AcDbEntity
  8
Shape2DView005
100
AcDbCircle
 10
288.172
 20
734.147
 30
0
 40
0.343333
100
AcDbArc
 50
30
 51
-120
  0
LINE
  5
A70
330
A02
100
AcDbEntity
  8
Shape2DView005
100
AcDbLine
 10
288
 20
733.849
 30
0
 11
288
 21
724.787
 31
0
  0
ARC
  5
A71
330
A02
100
AcDbEntity
  8
Shape2DView005
100
AcDbCircle
 10
288.172
 20
724.49
 30
0
 40
0.343333
100
AcDbArc
 50
120
 51
-30
  0
LINE
  5
A72
330
A02
100
AcDbEntity
  8
Shape2DView005
100
AcDbLine
 10
288.469
 20
724.318
 30
0
 11
293
 21
724.318
 31
0
  0
LINE
  5
A73
330
A02
100
AcDbEntity
  8
Shape2DView005
100
AcDbLine
 10
293
 20
713.864
 30
0
 11
293
 21
724.318
 31
0
  0
LINE
  5
A74
330
A02
100
AcDbEntity
  8
Shape2DView005
100
AcDbLine
 10
288.469
 20
713.864
 30
0
 11
293
 21
713.864
 31
0
  0
ARC
  5
A75
330
A02
100
AcDbEntity
  8
Shape2DView005
100
AcDbCircle
 10
288.172
 20
713.692
 30
0
 40
0.343333
100
AcDbArc
 50
30
 51
-120
  0
LINE
  5
A76
330
A02
100
AcDbEntity
  8
Shape2DView005
100
AcDbLine
 10
288
 20
713.395
 30
0
 11
288
 21
704.333
 31
0
  0
ARC
  5
A77
330
A02
100
AcDbEntity
  8
Shape2DView005
100
AcDbCircle
 10
288.172
 20
704.035
 30
0
 40
0.343333
100
AcDbArc
 50
120
 51
-30
  0
LINE
  5
A78
330
A02
100
AcDbEntity
  8
Shape2DView005
100
AcDbLine
 10
288.469
 20
703.864
 30
0
 11
293
 21
703.864
 31
0
  0
LINE
  5
A79
330
A02
100
AcDbEntity
  8
Shape2DView005
100
AcDbLine
 10
293
 20
693.409
 30
0
 11
293
 21
703.864
 31
0
  0
LINE
  5
A7A
330
A02
100
AcDbEntity
  8
Shape2DView005
100
AcDbLine
 10
288.469
 20
693.409
 30
0
 11
293
 21
693.409
 31
0
  0
ARC
  5
A7B
330
A02
100
AcDbEntity
  8
Shape2DView005
100
AcDbCircle
 10
288.172
 20
693.237
 30
0
 40
0.343333
100
AcDbArc
 50
30
 51
-120
  0
LINE
  5
A7C
330
A02
100
AcDbEntity
  8
Shape2DView005
100
AcDbLine
 10
288
 20
692.94
 30
0
 11
288
 21
683.878
 31
0
  0
ARC
  5
A7D
330
A02
100
AcDbEntity
  8
Shape2DView005
100
AcDbCircle
 10
288.172
 20
683.581
 30
0
 40
0.343333
100
AcDbArc
 50
120
 51
-30
  0
LINE
  5
A7E
330
A02
100
AcDbEntity
  8
Shape2DView005
100
AcDbLine
 10
288.469
 20
683.409
 30
0
 11
293
 21
683.409
 31
0
  0
LINE
  5
A7F
330
A02
100
AcDbEntity
  8
Shape2DView005
100
AcDbLine
 10
293
 20
672.955
 30
0
 11
293
 21
683.409
 31
0
  0
LINE
  5
A80
330
A02
100
AcDbEntity
  8
Shape2DView005
100
AcDbLine
 10
288.469
 20
672.955
 30
0
 11
293
 21
672.955
 31
0
  0
ARC
  5
A81
330
A02
100
AcDbEntity
  8
Shape2DView005
100
AcDbCircle
 10
288.172
 20
672.783
 30
0
 40
0.343333
100
AcDbArc
 50
30
 51
-120
  0
LINE
  5
A82
330
A02
100
AcDbEntity
  8
Shape2DView005
100
AcDbLine
 10
288
 20
672.486
 30
0
 11
288
 21
663.424
 31
0
  0
ARC
  5
A83
330
A02
100
AcDbEntity
  8
Shape2DView005
100
AcDbCircle
 10
288.172
 20
663.126
 30
0
 40
0.343333
100
AcDbArc
 50
120
 51
-30
  0
LINE
  5
A84
330
A02
100
AcDbEntity
  8
Shape2DView005
100
AcDbLine
 10
288.469
 20
662.955
 30
0
 11
293
 21
662.955
 31
0
  0
LINE
  5
A85
330
A02
100
AcDbEntity
  8
Shape2DView005
100
AcDbLine
 10
293
 20
652.5
 30
0
 11
293
 21
662.955
 31
0
  0
LINE
  5
A86
330
A02
100
AcDbEntity
  8
Shape2DView005
100
AcDbLine
 10
288.469
 20
652.5
 30
0
 11
293
 21
652.5
 31
0
  0
ARC
  5
A87
330
A02
100
AcDbEntity
  8
Shape2DView005
100
AcDbCircle
 10
288.172
 20
652.328
 30
0
 40
0.343333
100
AcDbArc
 50
30
 51
-120
  0
LINE
  5
A88
330
A02
100
AcDbEntity
  8
Shape2DView005
100
AcDbLine
 10
288
 20
652.031
 30
0
 11
288
 21
642.969
 31
0
  0
ARC
  5
A89
330
A02
100
AcDbEntity
  8
Shape2DView005
100
AcDbCircle
 10
288.172
 20
642.672
 30
0
 40
0.343333
100
AcDbArc
 50
120
 51
-30
  0
LINE
  5
A8A
330
A02
100
AcDbEntity
  8
Shape2DView005
100
AcDbLine
 10
288.469
 20
642.5
 30
0
 11
293
 21
642.5
 31
0
  0
LINE
  5
A8B
330
A02
100
AcDbEntity
  8
Shape2DView005
100
AcDbLine
 10
293
 20
632.045
 30
0
 11
293
 21
642.5
 31
0
  0
LINE
  5
A8C
330
A02
100
AcDbEntity
  8
Shape2DView005
100
AcDbLine
 10
288.469
 20
632.045
 30
0
 11
293
 21
632.045
 31
0
  0
ARC
  5
A8D
330
A02
100
AcDbEntity
  8
Shape2DView005
100
AcDbCircle
 10
288.172
 20
631.874
 30
0
 40
0.343333
100
AcDbArc
 50
30
 51
-120
  0
LINE
  5
A8E
330
A02
100
AcDbEntity
  8
Shape2DView005
100
AcDbLine
 10
288
 20
631.576
 30
0
 11
288
 21
622.514
 31
0
  0
ARC
  5
A8F
330
A02
100
AcDbEntity
  8
Shape2DView005
100
AcDbCircle
 10
288.172
 20
622.217
 30
0
 40
0.343333
100
AcDbArc
 50
120
 51
-30
  0
LINE
  5
A90
330
A02
100
AcDbEntity
  8
Shape2DView005
100
AcDbLine
 10
288.469
 20
622.045
 30
0
 11
293
 21
622.045
 31
0
  0
LINE
  5
A91
330
A02
100
AcDbEntity
  8
Shape2DView005
100
AcDbLine
 10
293
 20
611.591
 30
0
 11
293
 21
622.045
 31
0
  0
LINE
  5
A92
330
A02
100
AcDbEntity
  8
Shape2DView005
100
AcDbLine
 10
288.469
 20
611.591
 30
0
 11
293
 21
611.591
 31
0
  0
ARC
  5
A93
330
A02
100
AcDbEntity
  8
Shape2DView005
100
AcDbCircle
 10
288.172
 20
611.419
 30
0
 40
0.343333
100
AcDbArc
 50
30
 51
-120
  0
LINE
  5
A94
330
A02
100
AcDbEntity
  8
Shape2DView005
100
AcDbLine
 10
288
 20
611.122
 30
0
 11
288
 21
602.06
 31
0
  0
ARC
  5
A95
330
A02
100
AcDbEntity
  8
Shape2DView005
100
AcDbCircle
 10
288.172
 20
601.763
 30
0
 40
0.343333
100
AcDbArc
 50
120
 51
-30
  0
LINE
  5
A96
330
A02
100
AcDbEntity
  8
Shape2DView005
100
AcDbLine
 10
288.469
 20
601.591
 30
0
 11
293
 21
601.591
 31
0
  0
LINE
  5
A97
330
A02
100
AcDbEntity
  8
Shape2DView005
100
AcDbLine
 10
293
 20
591.136
 30
0
 11
293
 21
601.591
 31
0
  0
LINE
  5
A98
330
A02
100
AcDbEntity
  8
Shape2DView005
100
AcDbLine
 10
288.469
 20
591.136
 30
0
 11
293
 21
591.136
 31
0
  0
ARC
  5
A99
330
A02
100
AcDbEntity
  8
Shape2DView005
100
AcDbCircle
 10
288.172
 20
590.965
 30
0
 40
0.343333
100
AcDbArc
 50
30
 51
-120
  0
LINE
  5
A9A
330
A02
100
AcDbEntity
  8
Shape2DView005
100
AcDbLine
 10
288
 20
590.667
 30
0
 11
288
 21
581.605
 31
0
  0
ARC
  5
A9B
330
A02
100
AcDbEntity
  8
Shape2DView005
100
AcDbCircle
 10
288.172
 20
581.308
 30
0
 40
0.343333
100
AcDbArc
 50
120
 51
-30
  0
LINE
  5
A9C
330
A02
100
AcDbEntity
  8
Shape2DView005
100
AcDbLine
 10
288.469
 20
581.136
 30
0
 11
293
 21
581.136
 31
0
  0
LINE
  5
A9D
330
A02
100
AcDbEntity
  8
Shape2DView005
100
AcDbLine
 10
293
 20
570.682
 30
0
 11
293
 21
581.136
 31
0
  0
LINE
  5
A9E
330
A02
100
AcDbEntity
  8
Shape2DView005
100
AcDbLine
 10
288.469
 20
570.682
 30
0
 11
293
 21
570.682
 31
0
  0
ARC
  5
A9F
330
A02
100
AcDbEntity
  8
Shape2DView005
100
AcDbCircle
 10
288.172
 20
570.51
 30
0
 40
0.343333
100
AcDbArc
 50
30
 51
-120
  0
LINE
  5
AA0
330
A02
100
AcDbEntity
  8
Shape2DView005
100
AcDbLine
 10
288
 20
570.213
 30
0
 11
288
 21
561.151
 31
0
  0
ARC
  5
AA1
330
A02
100
AcDbEntity
  8
Shape2DView005
100
AcDbCircle
 10
288.172
 20
560.853
 30
0
 40
0.343333
100
AcDbArc
 50
120
 51
-30
  0
LINE
  5
AA2
330
A02
100
AcDbEntity
  8
Shape2DView005
100
AcDbLine
 10
288.469
 20
560.682
 30
0
 11
293
 21
560.682
 31
0
  0
LINE
  5
AA3
330
A02
100
AcDbEntity
  8
Shape2DView005
100
AcDbLine
 10
293
 20
550.227
 30
0
 11
293
 21
560.682
 31
0
  0
LINE
  5
AA4
330
A02
100
AcDbEntity
  8
Shape2DView005
100
AcDbLine
 10
288.469
 20
550.227
 30
0
 11
293
 21
550.227
 31
0
  0
ARC
  5
AA5
330
A02
100
AcDbEntity
  8
Shape2DView005
100
AcDbCircle
 10
288.172
 20
550.056
 30
0
 40
0.343333
100
AcDbArc
 50
30
 51
-120
  0
LINE
  5
AA6
330
A02
100
AcDbEntity
  8
Shape2DView005
100
AcDbLine
 10
288
 20
549.758
 30
0
 11
288
 21
540.696
 31
0
  0
ARC
  5
AA7
330
A02
100
AcDbEntity
  8
Shape2DView005
100
AcDbCircle
 10
288.172
 20
540.399
 30
0
 40
0.343333
100
AcDbArc
 50
120
 51
-30
  0
LINE
  5
AA8
330
A02
100
AcDbEntity
  8
Shape2DView005
100
AcDbLine
 10
288.469
 20
540.227
 30
0
 11
293
 21
540.227
 31
0
  0
LINE
  5
AA9
330
A02
100
AcDbEntity
  8
Shape2DView005
100
AcDbLine
 10
293
 20
535
 30
0
 11
293
 21
540.227
 31
0
  0
LINE
  5
AAA
330
A02
100
AcDbEntity
  8
Shape2DView005
100
AcDbLine
 10
293
 20
535
 30
0
 11
282.6
 21
535
 31
0
  0
LINE
  5
AAB
330
A02
100
AcDbEntity
  8
Shape2DView005
100
AcDbLine
 10
282.6
 20
539.531
 30
0
 11
282.6
 21
535
 31
0
  0
ARC
  5
AAC
330
A02
100
AcDbEntity
  8
Shape2DView005
100
AcDbCircle
 10
282.428
 20
539.828
 30
0
 40
0.343333
100
AcDbArc
 50
-60
 51
150
  0
LINE
  5
AAD
330
A02
100
AcDbEntity
  8
Shape2DView005
100
AcDbLine
 10
282.131
 20
540
 30
0
 11
273.069
 21
540
 31
0
  0
ARC
  5
AAE
330
A02
100
AcDbEntity
  8
Shape2DView005
100
AcDbCircle
 10
272.772
 20
539.828
 30
0
 40
0.343333
100
AcDbArc
 50
30
 51
-120
  0
LINE
  5
AAF
330
A02
100
AcDbEntity
  8
Shape2DView005
100
AcDbLine
 10
272.6
 20
539.531
 30
0
 11
272.6
 21
535
 31
0
  0
LINE
  5
AB0
330
A02
100
AcDbEntity
  8
Shape2DView005
100
AcDbLine
 10
272.6
 20
535
 30
0
 11
261.8
 21
535
 31
0
  0
LINE
  5
AB1
330
A02
100
AcDbEntity
  8
Shape2DView005
100
AcDbLine
 10
261.8
 20
539.531
 30
0
 11
261.8
 21
535
 31
0
  0
ARC
  5
AB2
330
A02
100
AcDbEntity
  8
Shape2DView005
100
AcDbCircle
 10
261.628
 20
539.828
 30
0
 40
0.343333
100
AcDbArc
 50
-60
 51
150
  0
LINE
  5
AB3
330
A02
100
AcDbEntity
  8
Shape2DView005
100
AcDbLine
 10
261.331
 20
540
 30
0
 11
252.269
 21
540
 31
0
  0
ARC
  5
AB4
330
A02
100
AcDbEntity
  8
Shape2DView005
100
AcDbCircle
 10
251.972
 20
539.828
 30
0
 40
0.343333
100
AcDbArc
 50
30
 51
-120
  0
LINE
  5
AB5
330
A02
100
AcDbEntity
  8
Shape2DView005
100
AcDbLine
 10
251.8
 20
539.531
 30
0
 11
251.8
 21
535
 31
0
  0
LINE
  5
AB6
330
A02
100
AcDbEntity
  8
Shape2DView005
100
AcDbLine
 10
251.8
 20
535
 30
0
 11
241
 21
535
 31
0
  0
LINE
  5
AB7
330
A02
100
AcDbEntity
  8
Shape2DView005
100
AcDbLine
 10
241
 20
539.531
 30
0
 11
241
 21
535
 31
0
  0
ARC
  5
AB8
330
A02
100
AcDbEntity
  8
Shape2DView005
100
AcDbCircle
 10
240.828
 20
539.828
 30
0
 40
0.343333
100
AcDbArc
 50
-60
 51
150
  0
LINE
  5
AB9
330
A02
100
AcDbEntity
  8
Shape2DView005
100
AcDbLine
 10
240.531
 20
540
 30
0
 11
231.469
 21
540
 31
0
  0
ARC
  5
ABA
330
A02
100
AcDbEntity
  8
Shape2DView005
100
AcDbCircle
 10
231.172
 20
539.828
 30
0
 40
0.343333
100
AcDbArc
 50
30
 51
-120
  0
LINE
  5
ABB
330
A02
100
AcDbEntity
  8
Shape2DView005
100
AcDbLine
 10
231
 20
539.531
 30
0
 11
231
 21
535
 31
0
  0
LINE
  5
ABC
330
A02
100
AcDbEntity
  8
Shape2DView005
100
AcDbLine
 10
231
 20
535
 30
0
 11
220.2
 21
535
 31
0
  0
LINE
  5
ABD
330
A02
100
AcDbEntity
  8
Shape2DView005
100
AcDbLine
 10
220.2
 20
539.531
 30
0
 11
220.2
 21
535
 31
0
  0
ARC
  5
ABE
330
A02
100
AcDbEntity
  8
Shape2DView005
100
AcDbCircle
 10
220.028
 20
539.828
 30
0
 40
0.343333
100
AcDbArc
 50
-60
 51
150
  0
LINE
  5
ABF
330
A02
100
AcDbEntity
  8
Shape2DView005
100
AcDbLine
 10
219.731
 20
540
 30
0
 11
210.669
 21
540
 31
0
  0
ARC
  5
AC0
330
A02
100
AcDbEntity
  8
Shape2DView005
100
AcDbCircle
 10
210.372
 20
539.828
 30
0
 40
0.343333
100
AcDbArc
 50
30
 51
-120
  0
LINE
  5
AC1
330
A02
100
AcDbEntity
  8
Shape2DView005
100
AcDbLine
 10
210.2
 20
539.531
 30
0
 11
210.2
 21
535
 31
0
  0
LINE
  5
AC2
330
A02
100
AcDbEntity
  8
Shape2DView005
100
AcDbLine
 10
210.2
 20
535
 30
0
 11
199.4
 21
535
 31
0
  0
LINE
  5
AC3
330
A02
100
AcDbEntity
  8
Shape2DView005
100
AcDbLine
 10
199.4
 20
539.531
 30
0
 11
199.4
 21
535
 31
0
  0
ARC
  5
AC4
330
A02
100
AcDbEntity
  8
Shape2DView005
100
AcDbCircle
 10
199.228
 20
539.828
 30
0
 40
0.343333
100
AcDbArc
 50
-60
 51
150
  0
LINE
  5
AC5
330
A02
100
AcDbEntity
  8
Shape2DView005
100
AcDbLine
 10
198.931
 20
540
 30
0
 11
189.869
 21
540
 31
0
  0
ARC
  5
AC6
330
A02
100
AcDbEntity
  8
Shape2DView005
100
AcDbCircle
 10
189.572
 20
539.828
 30
0
 40
0.343333
100
AcDbArc
 50
30
 51
-120
  0
LINE
  5
AC7
330
A02
100
AcDbEntity
  8
Shape2DView005
100
AcDbLine
 10
189.4
 20
539.531
 30
0
 11
189.4
 21
535
 31
0
  0
LINE
  5
AC8
330
A02
100
AcDbEntity
  8
Shape2DView005
100
AcDbLine
 10
189.4
 20
535
 30
0
 11
178.6
 21
535
 31
0
  0
LINE
  5
AC9
330
A02
100
AcDbEntity
  8
Shape2DView005
100
AcDbLine
 10
178.6
 20
539.531
 30
0
 11
178.6
 21
535
 31
0
  0
ARC
  5
ACA
330
A02
100
AcDbEntity
  8
Shape2DView005
100
AcDbCircle
 10
178.428
 20
539.828
 30
0
 40
0.343333
100
AcDbArc
 50
-60
 51
150
  0
LINE
  5
ACB
330
A02
100
AcDbEntity
  8
Shape2DView005
100
AcDbLine
 10
178.131
 20
540
 30
0
 11
169.069
 21
540
 31
0
  0
ARC
  5
ACC
330
A02
100
AcDbEntity
  8
Shape2DView005
100
AcDbCircle
 10
168.772
 20
539.828
 30
0
 40
0.343333
100
AcDbArc
 50
30
 51
-120
  0
LINE
  5
ACD
330
A02
100
AcDbEntity
  8
Shape2DView005
100
AcDbLine
 10
168.6
 20
539.531
 30
0
 11
168.6
 21
535
 31
0
  0
LINE
  5
ACE
330
A02
100
AcDbEntity
  8
Shape2DView005
100
AcDbLine
 10
168.6
 20
535
 30
0
 11
157.8
 21
535
 31
0
  0
LINE
  5
ACF
330
A02
100
AcDbEntity
  8
Shape2DView005
100
AcDbLine
 10
157.8
 20
539.531
 30
0
 11
157.8
 21
535
 31
0
  0
ARC
  5
AD0
330
A02
100
AcDbEntity
  8
Shape2DView005
100
AcDbCircle
 10
157.628
 20
539.828
 30
0
 40
0.343333
100
AcDbArc
 50
-60
 51
150
  0
LINE
  5
AD1
330
A02
100
AcDbEntity
  8
Shape2DView005
100
AcDbLine
 10
157.331
 20
540
 30
0
 11
148.269
 21
540
 31
0
  0
ARC
  5
AD2
330
A02
100
AcDbEntity
  8
Shape2DView005
100
AcDbCircle
 10
147.972
 20
539.828
 30
0
 40
0.343333
100
AcDbArc
 50
30
 51
-120
  0
LINE
  5
AD3
330
A02
100
AcDbEntity
  8
Shape2DView005
100
AcDbLine
 10
147.8
 20
539.531
 30
0
 11
147.8
 21
535
 31
0
  0
LINE
  5
AD4
330
A02
100
AcDbEntity
  8
Shape2DView005
100
AcDbLine
 10
147.8
 20
535
 30
0
 11
137
 21
535
 31
0
  0
LINE
  5
AD5
330
A02
100
AcDbEntity
  8
Shape2DView005
100
AcDbLine
 10
137
 20
539.531
 30
0
 11
137
 21
535
 31
0
  0
ARC
  5
AD6
330
A02
100
AcDbEntity
  8
Shape2DView005
100
AcDbCircle
 10
136.828
 20
539.828
 30
0
 40
0.343333
100
AcDbArc
 50
-60
 51
150
  0
LINE
  5
AD7
330
A02
100
AcDbEntity
  8
Shape2DView005
100
AcDbLine
 10
136.531
 20
540
 30
0
 11
127.469
 21
540
 31
0
  0
ARC
  5
AD8
330
A02
100
AcDbEntity
  8
Shape2DView005
100
AcDbCircle
 10
127.172
 20
539.828
 30
0
 40
0.343333
100
AcDbArc
 50
30
 51
-120
  0
LINE
  5
AD9
330
A02
100
AcDbEntity
  8
Shape2DView005
100
AcDbLine
 10
127
 20
539.531
 30
0
 11
127
 21
535
 31
0
  0
LINE
  5
ADA
330
A02
100
AcDbEntity
  8
Shape2DView005
100
AcDbLine
 10
127
 20
535
 30
0
 11
116.2
 21
535
 31
0
  0
LINE
  5
ADB
330
A02
100
AcDbEntity
  8
Shape2DView005
100
AcDbLine
 10
116.2
 20
539.531
 30
0
 11
116.2
 21
535
 31
0
  0
ARC
  5
ADC
330
A02
100
AcDbEntity
  8
Shape2DView005
100
AcDbCircle
 10
116.028
 20
539.828
 30
0
 40
0.343333
100
AcDbArc
 50
-60
 51
150
  0
LINE
  5
ADD
330
A02
100
AcDbEntity
  8
Shape2DView005
100
AcDbLine
 10
115.731
 20
540
 30
0
 11
106.669
 21
540
 31
0
  0
ARC
  5
ADE
330
A02
100
AcDbEntity
  8
Shape2DView005
100
AcDbCircle
 10
106.372
 20
539.828
 30
0
 40
0.343333
100
AcDbArc
 50
30
 51
-120
  0
LINE
  5
ADF
330
A02
100
AcDbEntity
  8
Shape2DView005
100
AcDbLine
 10
106.2
 20
539.531
 30
0
 11
106.2
 21
535
 31
0
  0
LINE
  5
AE0
330
A02
100
AcDbEntity
  8
Shape2DView005
100
AcDbLine
 10
106.2
 20
535
 30
0
 11
95.4
 21
535
 31
0
  0
LINE
  5
AE1
330
A02
100
AcDbEntity
  8
Shape2DView005
100
AcDbLine
 10
95.4
 20
539.531
 30
0
 11
95.4
 21
535
 31
0
  0
ARC
  5
AE2
330
A02
100
AcDbEntity
  8
Shape2DView005
100
AcDbCircle
 10
95.2283
 20
539.828
 30
0
 40
0.343333
100
AcDbArc
 50
-60
 51
150
  0
LINE
  5
AE3
330
A02
100
AcDbEntity
  8
Shape2DView005
100
AcDbLine
 10
94.931
 20
540
 30
0
 11
85.869
 21
540
 31
0
  0
ARC
  5
AE4
330
A02
100
AcDbEntity
  8
Shape2DView005
100
AcDbCircle
 10
85.5717
 20
539.828
 30
0
 40
0.343333
100
AcDbArc
 50
30
 51
-120
  0
LINE
  5
AE5
330
A02
100
AcDbEntity
  8
Shape2DView005
100
AcDbLine
 10
85.4
 20
539.531
 30
0
 11
85.4
 21
535
 31
0
  0
LINE
  5
AE6
330
A02
100
AcDbEntity
  8
Shape2DView005
100
AcDbLine
 10
85.4
 20
535
 30
0
 11
75
 21
535
 31
0
  0
LINE
  5
AE7
330
A02
100
AcDbEntity
  8
Shape2DView005
100
AcDbLine
 10
75
 20
540.227
 30
0
 11
75
 21
535
 31
0
  0
LINE
  5
AE8
330
A02
100
AcDbEntity
  8
Shape2DView005
100
AcDbLine
 10
75
 20
540.227
 30
0
 11
79.531
 21
540.227
 31
0
  0
ARC
  5
AE9
330
A02
100
AcDbEntity
  8
Shape2DView005
100
AcDbCircle
 10
79.8283
 20
540.399
 30
0
 40
0.343333
100
AcDbArc
 50
-150
 51
0
  0
ARC
  5
AEA
330
A02
100
AcDbEntity
  8
Shape2DView005
100
AcDbCircle
 10
79.8283
 20
540.399
 30
0
 40
0.343333
100
AcDbArc
 50
0
 51
60
  0
LINE
  5
AEB
330
A02
100
AcDbEntity
  8
Shape2DView005
100
AcDbLine
 10
80
 20
549.758
 30
0
 11
80
 21
540.696
 31
0
  0
ARC
  5
AEC
330
A02
100
AcDbEntity
  8
Shape2DView005
100
AcDbCircle
 10
79.8283
 20
550.056
 30
0
 40
0.343333
100
AcDbArc
 50
-60
 51
0
  0
ARC
  5
AED
330
A02
100
AcDbEntity
  8
Shape2DView005
100
AcDbCircle
 10
79.8283
 20
550.056
 30
0
 40
0.343333
100
AcDbArc
 50
0
 51
150
  0
LINE
  5
AEE
330
A02
100
AcDbEntity
  8
Shape2DView005
100
AcDbLine
 10
75
 20
550.227
 30
0
 11
79.531
 21
550.227
 31
0
  0
LINE
  5
AEF
330
A02
100
AcDbEntity
  8
Shape2DView005
100
AcDbLine
 10
75
 20
560.682
 30
0
 11
75
 21
550.227
 31
0
  0
LINE
  5
AF0
330
A02
100
AcDbEntity
  8
Shape2DView005
100
AcDbLine
 10
75
 20
560.682
 30
0
 11
79.531
 21
560.682
 31
0
  0
ARC
  5
AF1
330
A02
100
AcDbEntity
  8
Shape2DView005
100
AcDbCircle
 10
79.8283
 20
560.853
 30
0
 40
0.343333
100
AcDbArc
 50
-150
 51
0
  0
ARC
  5
AF2
330
A02
100
AcDbEntity
  8
Shape2DView005
100
AcDbCircle
 10
79.8283
 20
560.853
 30
0
 40
0.343333
100
AcDbArc
 50
0
 51
60
  0
LINE
  5
AF3
330
A02
100
AcDbEntity
  8
Shape2DView005
100
AcDbLine
 10
80
 20
570.213
 30
0
 11
80
 21
561.151
 31
0
  0
ARC
  5
AF4
330
A02
100
AcDbEntity
  8
Shape2DView005
100
AcDbCircle
 10
79.8283
 20
570.51
 30
0
 40
0.343333
100
AcDbArc
 50
-60
 51
0
  0
ARC
  5
AF5
330
A02
100
AcDbEntity
  8
Shape2DView005
100
AcDbCircle
 10
79.8283
 20
570.51
 30
0
 40
0.343333
100
AcDbArc
 50
0
 51
150
  0
LINE
  5
AF6
330
A02
100
AcDbEntity
  8
Shape2DView005
100
AcDbLine
 10
75
 20
570.682
 30
0
 11
79.531
 21
570.682
 31
0
  0
LINE
  5
AF7
330
A02
100
AcDbEntity
  8
Shape2DView005
100
AcDbLine
 10
75
 20
581.136
 30
0
 11
75
 21
570.682
 31
0
  0
LINE
  5
AF8
330
A02
100
AcDbEntity
  8
Shape2DView005
100
AcDbLine
 10
75
 20
581.136
 30
0
 11
79.531
 21
581.136
 31
0
  0
ARC
  5
AF9
330
A02
100
AcDbEntity
  8
Shape2DView005
100
AcDbCircle
 10
79.8283
 20
581.308
 30
0
 40
0.343333
100
AcDbArc
 50
-150
 51
0
  0
ARC
  5
AFA
330
A02
100
AcDbEntity
  8
Shape2DView005
100
AcDbCircle
 10
79.8283
 20
581.308
 30
0
 40
0.343333
100
AcDbArc
 50
0
 51
60
  0
LINE
  5
AFB
330
A02
100
AcDbEntity
  8
Shape2DView005
100
AcDbLine
 10
80
 20
590.667
 30
0
 11
80
 21
581.605
 31
0
  0
ARC
  5
AFC
330
A02
100
AcDbEntity
  8
Shape2DView005
100
AcDbCircle
 10
79.8283
 20
590.965
 30
0
 40
0.343333
100
AcDbArc
 50
-60
 51
0
  0
ARC
  5
AFD
330
A02
100
AcDbEntity
  8
Shape2DView005
100
AcDbCircle
 10
79.8283
 20
590.965
 30
0
 40
0.343333
100
AcDbArc
 50
0
 51
150
  0
LINE
  5
AFE
330
A02
100
AcDbEntity
  8
Shape2DView005
100
AcDbLine
 10
75
 20
591.136
 30
0
 11
79.531
 21
591.136
 31
0
  0
LINE
  5
AFF
330
A02
100
AcDbEntity
  8
Shape2DView005
100
AcDbLine
 10
75
 20
601.591
 30
0
 11
75
 21
591.136
 31
0
  0
LINE
  5
B00
330
A02
100
AcDbEntity
  8
Shape2DView005
100
AcDbLine
 10
75
 20
601.591
 30
0
 11
79.531
 21
601.591
 31
0
  0
ARC
  5
B01
330
A02
100
AcDbEntity
  8
Shape2DView005
100
AcDbCircle
 10
79.8283
 20
601.763
 30
0
 40
0.343333
100
AcDbArc
 50
-150
 51
0
  0
ARC
  5
B02
330
A02
100
AcDbEntity
  8
Shape2DView005
100
AcDbCircle
 10
79.8283
 20
601.763
 30
0
 40
0.343333
100
AcDbArc
 50
0
 51
60
  0
LINE
  5
B03
330
A02
100
AcDbEntity
  8
Shape2DView005
100
AcDbLine
 10
80
 20
611.122
 30
0
 11
80
 21
602.06
 31
0
  0
ARC
  5
B04
330
A02
100
AcDbEntity
  8
Shape2DView005
100
AcDbCircle
 10
79.8283
 20
611.419
 30
0
 40
0.343333
100
AcDbArc
 50
-60
 51
0
  0
ARC
  5
B05
330
A02
100
AcDbEntity
  8
Shape2DView005
100
AcDbCircle
 10
79.8283
 20
611.419
 30
0
 40
0.343333
100
AcDbArc
 50
0
 51
150
  0
LINE
  5
B06
330
A02
100
AcDbEntity
  8
Shape2DView005
100
AcDbLine
 10
75
 20
611.591
 30
0
 11
79.531
 21
611.591
 31
0
  0
LINE
  5
B07
330
A02
100
AcDbEntity
  8
Shape2DView005
100
AcDbLine
 10
75
 20
622.045
 30
0
 11
75
 21
611.591
 31
0
  0
LINE
  5
B08
330
A02
100
AcDbEntity
  8
Shape2DView005
100
AcDbLine
 10
75
 20
622.045
 30
0
 11
79.531
 21
622.045
 31
0
  0
ARC
  5
B09
330
A02
100
AcDbEntity
  8
Shape2DView005
100
AcDbCircle
 10
79.8283
 20
622.217
 30
0
 40
0.343333
100
AcDbArc
 50
-150
 51
0
  0
ARC
  5
B0A
330
A02
100
AcDbEntity
  8
Shape2DView005
100
AcDbCircle
 10
79.8283
 20
622.217
 30
0
 40
0.343333
100
AcDbArc
 50
0
 51
60
  0
LINE
  5
B0B
330
A02
100
AcDbEntity
  8
Shape2DView005
100
AcDbLine
 10
80
 20
631.576
 30
0
 11
80
 21
622.514
 31
0
  0
ARC
  5
B0C
330
A02
100
AcDbEntity
  8
Shape2DView005
100
AcDbCircle
 10
79.8283
 20
631.874
 30
0
 40
0.343333
100
AcDbArc
 50
-60
 51
0
  0
ARC
  5
B0D
330
A02
100
AcDbEntity
  8
Shape2DView005
100
AcDbCircle
 10
79.8283
 20
631.874
 30
0
 40
0.343333
100
AcDbArc
 50
0
 51
150
  0
LINE
  5
B0E
330
A02
100
AcDbEntity
  8
Shape2DView005
100
AcDbLine
 10
75
 20
632.045
 30
0
 11
79.531
 21
632.045
 31
0
  0
LINE
  5
B0F
330
A02
100
AcDbEntity
  8
Shape2DView005
100
AcDbLine
 10
75
 20
642.5
 30
0
 11
75
 21
632.045
 31
0
  0
LINE
  5
B10
330
A02
100
AcDbEntity
  8
Shape2DView005
100
AcDbLine
 10
75
 20
642.5
 30
0
 11
79.531
 21
642.5
 31
0
  0
ARC
  5
B11
330
A02
100
AcDbEntity
  8
Shape2DView005
100
AcDbCircle
 10
79.8283
 20
642.672
 30
0
 40
0.343333
100
AcDbArc
 50
-150
 51
0
  0
ARC
  5
B12
330
A02
100
AcDbEntity
  8
Shape2DView005
100
AcDbCircle
 10
79.8283
 20
642.672
 30
0
 40
0.343333
100
AcDbArc
 50
0
 51
60
  0
LINE
  5
B13
330
A02
100
AcDbEntity
  8
Shape2DView005
100
AcDbLine
 10
80
 20
652.031
 30
0
 11
80
 21
642.969
 31
0
  0
ARC
  5
B14
330
A02
100
AcDbEntity
  8
Shape2DView005
100
AcDbCircle
 10
79.8283
 20
652.328
 30
0
 40
0.343333
100
AcDbArc
 50
-60
 51
0
  0
ARC
  5
B15
330
A02
100
AcDbEntity
  8
Shape2DView005
100
AcDbCircle
 10
79.8283
 20
652.328
 30
0
 40
0.343333
100
AcDbArc
 50
0
 51
150
  0
LINE
  5
B16
330
A02
100
AcDbEntity
  8
Shape2DView005
100
AcDbLine
 10
75
 20
652.5
 30
0
 11
79.531
 21
652.5
 31
0
  0
LINE
  5
B17
330
A02
100
AcDbEntity
  8
Shape2DView005
100
AcDbLine
 10
75
 20
662.955
 30
0
 11
75
 21
652.5
 31
0
  0
LINE
  5
B18
330
A02
100
AcDbEntity
  8
Shape2DView005
100
AcDbLine
 10
75
 20
662.955
 30
0
 11
79.531
 21
662.955
 31
0
  0
ARC
  5
B19
330
A02
100
AcDbEntity
  8
Shape2DView005
100
AcDbCircle
 10
79.8283
 20
663.126
 30
0
 40
0.343333
100
AcDbArc
 50
-150
 51
0
  0
ARC
  5
B1A
330
A02
100
AcDbEntity
  8
Shape2DView005
100
AcDbCircle
 10
79.8283
 20
663.126
 30
0
 40
0.343333
100
AcDbArc
 50
0
 51
60
  0
LINE
  5
B1B
330
A02
100
AcDbEntity
  8
Shape2DView005
100
AcDbLine
 10
80
 20
672.486
 30
0
 11
80
 21
663.424
 31
0
  0
ARC
  5
B1C
330
A02
100
AcDbEntity
  8
Shape2DView005
100
AcDbCircle
 10
79.8283
 20
672.783
 30
0
 40
0.343333
100
AcDbArc
 50
-60
 51
0
  0
ARC
  5
B1D
330
A02
100
AcDbEntity
  8
Shape2DView005
100
AcDbCircle
 10
79.8283
 20
672.783
 30
0
 40
0.343333
100
AcDbArc
 50
0
 51
150
  0
LINE
  5
B1E
330
A02
100
AcDbEntity
  8
Shape2DView005
100
AcDbLine
 10
75
 20
672.955
 30
0
 11
79.531
 21
672.955
 31
0
  0
LINE
  5
B1F
330
A02
100
AcDbEntity
  8
Shape2DView005
100
AcDbLine
 10
75
 20
683.409
 30
0
 11
75
 21
672.955
 31
0
  0
LINE
  5
B20
330
A02
100
AcDbEntity
  8
Shape2DView005
100
AcDbLine
 10
75
 20
683.409
 30
0
 11
79.531
 21
683.409
 31
0
  0
ARC
  5
B21
330
A02
100
AcDbEntity
  8
Shape2DView005
100
AcDbCircle
 10
79.8283
 20
683.581
 30
0
 40
0.343333
100
AcDbArc
 50
-150
 51
0
  0
ARC
  5
B22
330
A02
100
AcDbEntity
  8
Shape2DView005
100
AcDbCircle
 10
79.8283
 20
683.581
 30
0
 40
0.343333
100
AcDbArc
 50
0
 51
60
  0
LINE
  5
B23
330
A02
100
AcDbEntity
  8
Shape2DView005
100
AcDbLine
 10
80
 20
692.94
 30
0
 11
80
 21
683.878
 31
0
  0
ARC
  5
B24
330
A02
100
AcDbEntity
  8
Shape2DView005
100
AcDbCircle
 10
79.8283
 20
693.237
 30
0
 40
0.343333
100
AcDbArc
 50
-60
 51
0
  0
ARC
  5
B25
330
A02
100
AcDbEntity
  8
Shape2DView005
100
AcDbCircle
 10
79.8283
 20
693.237
 30
0
 40
0.343333
100
AcDbArc
 50
0
 51
150
  0
LINE
  5
B26
330
A02
100
AcDbEntity
  8
Shape2DView005
100
AcDbLine
 10
75
 20
693.409
 30
0
 11
79.531
 21
693.409
 31
0
  0
LINE
  5
B27
330
A02
100
AcDbEntity
  8
Shape2DView005
100
AcDbLine
 10
75
 20
703.864
 30
0
 11
75
 21
693.409
 31
0
  0
LINE
  5
B28
330
A02
100
AcDbEntity
  8
Shape2DView005
100
AcDbLine
 10
75
 20
703.864
 30
0
 11
79.531
 21
703.864
 31
0
  0
ARC
  5
B29
330
A02
100
AcDbEntity
  8
Shape2DView005
100
AcDbCircle
 10
79.8283
 20
704.035
 30
0
 40
0.343333
100
AcDbArc
 50
-150
 51
0
  0
ARC
  5
B2A
330
A02
100
AcDbEntity
  8
Shape2DView005
100
AcDbCircle
 10
79.8283
 20
704.035
 30
0
 40
0.343333
100
AcDbArc
 50
0
 51
60
  0
LINE
  5
B2B
330
A02
100
AcDbEntity
  8
Shape2DView005
100
AcDbLine
 10
80
 20
713.395
 30
0
 11
80
 21
704.333
 31
0
  0
ARC
  5
B2C
330
A02
100
AcDbEntity
  8
Shape2DView005
100
AcDbCircle
 10
79.8283
 20
713.692
 30
0
 40
0.343333
100
AcDbArc
 50
-60
 51
0
  0
ARC
  5
B2D
330
A02
100
AcDbEntity
  8
Shape2DView005
100
AcDbCircle
 10
79.8283
 20
713.692
 30
0
 40
0.343333
100
AcDbArc
 50
0
 51
150
  0
LINE
  5
B2E
330
A02
100
AcDbEntity
  8
Shape2DView005
100
AcDbLine
 10
75
 20
713.864
 30
0
 11
79.531
 21
713.864
 31
0
  0
LINE
  5
B2F
330
A02
100
AcDbEntity
  8
Shape2DView005
100
AcDbLine
 10
75
 20
724.318
 30
0
 11
75
 21
713.864
 31
0
  0
LINE
  5
B30
330
A02
100
AcDbEntity
  8
Shape2DView005
100
AcDbLine
 10
75
 20
724.318
 30
0
 11
79.531
 21
724.318
 31
0
  0
ARC
  5
B31
330
A02
100
AcDbEntity
  8
Shape2DView005
100
AcDbCircle
 10
79.8283
 20
724.49
 30
0
 40
0.343333
100
AcDbArc
 50
-150
 51
0
  0
ARC
  5
B32
330
A02
100
AcDbEntity
  8
Shape2DView005
100
AcDbCircle
 10
79.8283
 20
724.49
 30
0
 40
0.343333
100
AcDbArc
 50
0
 51
60
  0
LINE
  5
B33
330
A02
100
AcDbEntity
  8
Shape2DView005
100
AcDbLine
 10
80
 20
733.849
 30
0
 11
80
 21
724.787
 31
0
  0
ARC
  5
B34
330
A02
100
AcDbEntity
  8
Shape2DView005
100
AcDbCircle
 10
79.8283
 20
734.147
 30
0
 40
0.343333
100
AcDbArc
 50
-60
 51
0
  0
ARC
  5
B35
330
A02
100
AcDbEntity
  8
Shape2DView005
100
AcDbCircle
 10
79.8283
 20
734.147
 30
0
 40
0.343333
100
AcDbArc
 50
0
 51
150
  0
LINE
  5
B36
330
A02
100
AcDbEntity
  8
Shape2DView005
100
AcDbLine
 10
75
 20
734.318
 30
0
 11
79.531
 21
734.318
 31
0
  0
LINE
  5
B37
330
A02
100
AcDbEntity
  8
Shape2DView005
100
AcDbLine
 10
75
 20
744.773
 30
0
 11
75
 21
734.318
 31
0
  0
LINE
  5
B38
330
A02
100
AcDbEntity
  8
Shape2DView005
100
AcDbLine
 10
75
 20
744.773
 30
0
 11
79.531
 21
744.773
 31
0
  0
ARC
  5
B39
330
A02
100
AcDbEntity
  8
Shape2DView005
100
AcDbCircle
 10
79.8283
 20
744.944
 30
0
 40
0.343333
100
AcDbArc
 50
-150
 51
0
  0
ARC
  5
B3A
330
A02
100
AcDbEntity
  8
Shape2DView005
100
AcDbCircle
 10
79.8283
 20
744.944
 30
0
 40
0.343333
100
AcDbArc
 50
0
 51
60
  0
LINE
  5
B3B
330
A02
100
AcDbEntity
  8
Shape2DView005
100
AcDbLine
 10
80
 20
754.304
 30
0
 11
80
 21
745.242
 31
0
  0
ARC
  5
B3C
330
A02
100
AcDbEntity
  8
Shape2DView005
100
AcDbCircle
 10
79.8283
 20
754.601
 30
0
 40
0.343333
100
AcDbArc
 50
-60
 51
0
  0
ARC
  5
B3D
330
A02
100
AcDbEntity
  8
Shape2DView005
100
AcDbCircle
 10
79.8283
 20
754.601
 30
0
 40
0.343333
100
AcDbArc
 50
0
 51
150
  0
LINE
  5
B3E
330
A02
100
AcDbEntity
  8
Shape2DView005
100
AcDbLine
 10
75
 20
754.773
 30
0
 11
79.531
 21
754.773
 31
0
  0
LINE
  5
B3F
330
A02
100
AcDbEntity
  8
Shape2DView005
100
AcDbLine
 10
75
 20
765.227
 30
0
 11
75
 21
754.773
 31
0
  0
LINE
  5
B40
330
A02
100
AcDbEntity
  8
Shape2DView005
100
AcDbLine
 10
75
 20
765.227
 30
0
 11
79.531
 21
765.227
 31
0
  0
ARC
  5
B41
330
A02
100
AcDbEntity
  8
Shape2DView005
100
AcDbCircle
 10
79.8283
 20
765.399
 30
0
 40
0.343333
100
AcDbArc
 50
-150
 51
0
  0
ARC
  5
B42
330
A02
100
AcDbEntity
  8
Shape2DView005
100
AcDbCircle
 10
79.8283
 20
765.399
 30
0
 40
0.343333
100
AcDbArc
 50
0
 51
60
  0
LINE
  5
B43
330
A02
100
AcDbEntity
  8
Shape2DView005
100
AcDbLine
 10
80
 20
774.758
 30
0
 11
80
 21
765.696
 31
0
  0
ARC
  5
B44
330
A02
100
AcDbEntity
  8
Shape2DView005
100
AcDbCircle
 10
79.8283
 20
775.056
 30
0
 40
0.343333
100
AcDbArc
 50
-60
 51
0
  0
ARC
  5
B45
330
A02
100
AcDbEntity
  8
Shape2DView005
100
AcDbCircle
 10
79.8283
 20
775.056
 30
0
 40
0.343333
100
AcDbArc
 50
0
 51
150
  0
LINE
  5
B46
330
A02
100
AcDbEntity
  8
Shape2DView005
100
AcDbLine
 10
75
 20
775.227
 30
0
 11
79.531
 21
775.227
 31
0
  0
LINE
  5
B47
330
A02
100
AcDbEntity
  8
Shape2DView005
100
AcDbLine
 10
75
 20
785.682
 30
0
 11
75
 21
775.227
 31
0
  0
LINE
  5
B48
330
A02
100
AcDbEntity
  8
Shape2DView005
100
AcDbLine
 10
75
 20
785.682
 30
0
 11
79.531
 21
785.682
 31
0
  0
ARC
  5
B49
330
A02
100
AcDbEntity
  8
Shape2DView005
100
AcDbCircle
 10
79.8283
 20
785.853
 30
0
 40
0.343333
100
AcDbArc
 50
-150
 51
0
  0
ARC
  5
B4A
330
A02
100
AcDbEntity
  8
Shape2DView005
100
AcDbCircle
 10
79.8283
 20
785.853
 30
0
 40
0.343333
100
AcDbArc
 50
0
 51
60
  0
LINE
  5
B4B
330
A02
100
AcDbEntity
  8
Shape2DView005
100
AcDbLine
 10
80
 20
795.213
 30
0
 11
80
 21
786.151
 31
0
  0
ARC
  5
B4C
330
A02
100
AcDbEntity
  8
Shape2DView005
100
AcDbCircle
 10
79.8283
 20
795.51
 30
0
 40
0.343333
100
AcDbArc
 50
-60
 51
0
  0
ARC
  5
B4D
330
A02
100
AcDbEntity
  8
Shape2DView005
100
AcDbCircle
 10
79.8283
 20
795.51
 30
0
 40
0.343333
100
AcDbArc
 50
0
 51
150
  0
LINE
  5
B4E
330
A02
100
AcDbEntity
  8
Shape2DView005
100
AcDbLine
 10
75
 20
795.682
 30
0
 11
79.531
 21
795.682
 31
0
  0
LINE
  5
B4F
330
A02
100
AcDbEntity
  8
Shape2DView005
100
AcDbLine
 10
75
 20
806.136
 30
0
 11
75
 21
795.682
 31
0
  0
LINE
  5
B50
330
A02
100
AcDbEntity
  8
Shape2DView005
100
AcDbLine
 10
75
 20
806.136
 30
0
 11
79.531
 21
806.136
 31
0
  0
ARC
  5
B51
330
A02
100
AcDbEntity
  8
Shape2DView005
100
AcDbCircle
 10
79.8283
 20
806.308
 30
0
 40
0.343333
100
AcDbArc
 50
-150
 51
0
  0
ARC
  5
B52
330
A02
100
AcDbEntity
  8
Shape2DView005
100
AcDbCircle
 10
79.8283
 20
806.308
 30
0
 40
0.343333
100
AcDbArc
 50
0
 51
60
  0
LINE
  5
B53
330
A02
100
AcDbEntity
  8
Shape2DView005
100
AcDbLine
 10
80
 20
815.667
 30
0
 11
80
 21
806.605
 31
0
  0
ARC
  5
B54
330
A02
100
AcDbEntity
  8
Shape2DView005
100
AcDbCircle
 10
79.8283
 20
815.965
 30
0
 40
0.343333
100
AcDbArc
 50
-60
 51
0
  0
ARC
  5
B55
330
A02
100
AcDbEntity
  8
Shape2DView005
100
AcDbCircle
 10
79.8283
 20
815.965
 30
0
 40
0.343333
100
AcDbArc
 50
0
 51
150
  0
LINE
  5
B56
330
A02
100
AcDbEntity
  8
Shape2DView005
100
AcDbLine
 10
75
 20
816.136
 30
0
 11
79.531
 21
816.136
 31
0
  0
LINE
  5
B57
330
A02
100
AcDbEntity
  8
Shape2DView005
100
AcDbLine
 10
75
 20
826.591
 30
0
 11
75
 21
816.136
 31
0
  0
LINE
  5
B58
330
A02
100
AcDbEntity
  8
Shape2DView005
100
AcDbLine
 10
75
 20
826.591
 30
0
 11
79.531
 21
826.591
 31
0
  0
ARC
  5
B59
330
A02
100
AcDbEntity
  8
Shape2DView005
100
AcDbCircle
 10
79.8283
 20
826.763
 30
0
 40
0.343333
100
AcDbArc
 50
-150
 51
0
  0
ARC
  5
B5A
330
A02
100
AcDbEntity
  8
Shape2DView005
100
AcDbCircle
 10
79.8283
 20
826.763
 30
0
 40
0.343333
100
AcDbArc
 50
0
 51
60
  0
LINE
  5
B5B
330
A02
100
AcDbEntity
  8
Shape2DView005
100
AcDbLine
 10
80
 20
836.122
 30
0
 11
80
 21
827.06
 31
0
  0
ARC
  5
B5C
330
A02
100
AcDbEntity
  8
Shape2DView005
100
AcDbCircle
 10
79.8283
 20
836.419
 30
0
 40
0.343333
100
AcDbArc
 50
-60
 51
0
  0
ARC
  5
B5D
330
A02
100
AcDbEntity
  8
Shape2DView005
100
AcDbCircle
 10
79.8283
 20
836.419
 30
0
 40
0.343333
100
AcDbArc
 50
0
 51
150
  0
LINE
  5
B5E
330
A02
100
AcDbEntity
  8
Shape2DView005
100
AcDbLine
 10
75
 20
836.591
 30
0
 11
79.531
 21
836.591
 31
0
  0
LINE
  5
B5F
330
A02
100
AcDbEntity
  8
Shape2DView005
100
AcDbLine
 10
75
 20
847.045
 30
0
 11
75
 21
836.591
 31
0
  0
LINE
  5
B60
330
A02
100
AcDbEntity
  8
Shape2DView005
100
AcDbLine
 10
75
 20
847.045
 30
0
 11
79.531
 21
847.045
 31
0
  0
ARC
  5
B61
330
A02
100
AcDbEntity
  8
Shape2DView005
100
AcDbCircle
 10
79.8283
 20
847.217
 30
0
 40
0.343333
100
AcDbArc
 50
-150
 51
0
  0
ARC
  5
B62
330
A02
100
AcDbEntity
  8
Shape2DView005
100
AcDbCircle
 10
79.8283
 20
847.217
 30
0
 40
0.343333
100
AcDbArc
 50
0
 51
60
  0
LINE
  5
B63
330
A02
100
AcDbEntity
  8
Shape2DView005
100
AcDbLine
 10
80
 20
856.576
 30
0
 11
80
 21
847.514
 31
0
  0
ARC
  5
B64
330
A02
100
AcDbEntity
  8
Shape2DView005
100
AcDbCircle
 10
79.8283
 20
856.874
 30
0
 40
0.343333
100
AcDbArc
 50
-60
 51
0
  0
ARC
  5
B65
330
A02
100
AcDbEntity
  8
Shape2DView005
100
AcDbCircle
 10
79.8283
 20
856.874
 30
0
 40
0.343333
100
AcDbArc
 50
0
 51
150
  0
LINE
  5
B66
330
A02
100
AcDbEntity
  8
Shape2DView005
100
AcDbLine
 10
75
 20
857.045
 30
0
 11
79.531
 21
857.045
 31
0
  0
LINE
  5
B67
330
A02
100
AcDbEntity
  8
Shape2DView005
100
AcDbLine
 10
75
 20
867.5
 30
0
 11
75
 21
857.045
 31
0
  0
LINE
  5
B68
330
A02
100
AcDbEntity
  8
Shape2DView005
100
AcDbLine
 10
75
 20
867.5
 30
0
 11
79.531
 21
867.5
 31
0
  0
ARC
  5
B69
330
A02
100
AcDbEntity
  8
Shape2DView005
100
AcDbCircle
 10
79.8283
 20
867.672
 30
0
 40
0.343333
100
AcDbArc
 50
-150
 51
0
  0
ARC
  5
B6A
330
A02
100
AcDbEntity
  8
Shape2DView005
100
AcDbCircle
 10
79.8283
 20
867.672
 30
0
 40
0.343333
100
AcDbArc
 50
0
 51
60
  0
LINE
  5
B6B
330
A02
100
AcDbEntity
  8
Shape2DView005
100
AcDbLine
 10
80
 20
877.031
 30
0
 11
80
 21
867.969
 31
0
  0
ARC
  5
B6C
330
A02
100
AcDbEntity
  8
Shape2DView005
100
AcDbCircle
 10
79.8283
 20
877.328
 30
0
 40
0.343333
100
AcDbArc
 50
-60
 51
0
  0
ARC
  5
B6D
330
A02
100
AcDbEntity
  8
Shape2DView005
100
AcDbCircle
 10
79.8283
 20
877.328
 30
0
 40
0.343333
100
AcDbArc
 50
0
 51
150
  0
LINE
  5
B6E
330
A02
100
AcDbEntity
  8
Shape2DView005
100
AcDbLine
 10
75
 20
877.5
 30
0
 11
79.531
 21
877.5
 31
0
  0
LINE
  5
B6F
330
A02
100
AcDbEntity
  8
Shape2DView005
100
AcDbLine
 10
75
 20
887.955
 30
0
 11
75
 21
877.5
 31
0
  0
LINE
  5
B70
330
A02
100
AcDbEntity
  8
Shape2DView005
100
AcDbLine
 10
75
 20
887.955
 30
0
 11
79.531
 21
887.955
 31
0
  0
ARC
  5
B71
330
A02
100
AcDbEntity
  8
Shape2DView005
100
AcDbCircle
 10
79.8283
 20
888.126
 30
0
 40
0.343333
100
AcDbArc
 50
-150
 51
0
  0
ARC
  5
B72
330
A02
100
AcDbEntity
  8
Shape2DView005
100
AcDbCircle
 10
79.8283
 20
888.126
 30
0
 40
0.343333
100
AcDbArc
 50
0
 51
60
  0
LINE
  5
B73
330
A02
100
AcDbEntity
  8
Shape2DView005
100
AcDbLine
 10
80
 20
897.486
 30
0
 11
80
 21
888.424
 31
0
  0
ARC
  5
B74
330
A02
100
AcDbEntity
  8
Shape2DView005
100
AcDbCircle
 10
79.8283
 20
897.783
 30
0
 40
0.343333
100
AcDbArc
 50
-60
 51
0
  0
ARC
  5
B75
330
A02
100
AcDbEntity
  8
Shape2DView005
100
AcDbCircle
 10
79.8283
 20
897.783
 30
0
 40
0.343333
100
AcDbArc
 50
0
 51
150
  0
LINE
  5
B76
330
A02
100
AcDbEntity
  8
Shape2DView005
100
AcDbLine
 10
75
 20
897.955
 30
0
 11
79.531
 21
897.955
 31
0
  0
LINE
  5
B77
330
A02
100
AcDbEntity
  8
Shape2DView005
100
AcDbLine
 10
75
 20
908.409
 30
0
 11
75
 21
897.955
 31
0
  0
LINE
  5
B78
330
A02
100
AcDbEntity
  8
Shape2DView005
100
AcDbLine
 10
75
 20
908.409
 30
0
 11
79.531
 21
908.409
 31
0
  0
ARC
  5
B79
330
A02
100
AcDbEntity
  8
Shape2DView005
100
AcDbCircle
 10
79.8283
 20
908.581
 30
0
 40
0.343333
100
AcDbArc
 50
-150
 51
0
  0
ARC
  5
B7A
330
A02
100
AcDbEntity
  8
Shape2DView005
100
AcDbCircle
 10
79.8283
 20
908.581
 30
0
 40
0.343333
100
AcDbArc
 50
0
 51
60
  0
LINE
  5
B7B
330
A02
100
AcDbEntity
  8
Shape2DView005
100
AcDbLine
 10
80
 20
917.94
 30
0
 11
80
 21
908.878
 31
0
  0
ARC
  5
B7C
330
A02
100
AcDbEntity
  8
Shape2DView005
100
AcDbCircle
 10
79.8283
 20
918.237
 30
0
 40
0.343333
100
AcDbArc
 50
-60
 51
0
  0
ARC
  5
B7D
330
A02
100
AcDbEntity
  8
Shape2DView005
100
AcDbCircle
 10
79.8283
 20
918.237
 30
0
 40
0.343333
100
AcDbArc
 50
0
 51
150
  0
LINE
  5
B7E
330
A02
100
AcDbEntity
  8
Shape2DView005
100
AcDbLine
 10
75
 20
918.409
 30
0
 11
79.531
 21
918.409
 31
0
  0
LINE
  5
B7F
330
A02
100
AcDbEntity
  8
Shape2DView005
100
AcDbLine
 10
75
 20
928.864
 30
0
 11
75
 21
918.409
 31
0
  0
LINE
  5
B80
330
A02
100
AcDbEntity
  8
Shape2DView005
100
AcDbLine
 10
75
 20
928.864
 30
0
 11
79.531
 21
928.864
 31
0
  0
ARC
  5
B81
330
A02
100
AcDbEntity
  8
Shape2DView005
100
AcDbCircle
 10
79.8283
 20
929.035
 30
0
 40
0.343333
100
AcDbArc
 50
-150
 51
0
  0
ARC
  5
B82
330
A02
100
AcDbEntity
  8
Shape2DView005
100
AcDbCircle
 10
79.8283
 20
929.035
 30
0
 40
0.343333
100
AcDbArc
 50
0
 51
60
  0
LINE
  5
B83
330
A02
100
AcDbEntity
  8
Shape2DView005
100
AcDbLine
 10
80
 20
938.395
 30
0
 11
80
 21
929.333
 31
0
  0
ARC
  5
B84
330
A02
100
AcDbEntity
  8
Shape2DView005
100
AcDbCircle
 10
79.8283
 20
938.692
 30
0
 40
0.343333
100
AcDbArc
 50
-60
 51
0
  0
ARC
  5
B85
330
A02
100
AcDbEntity
  8
Shape2DView005
100
AcDbCircle
 10
79.8283
 20
938.692
 30
0
 40
0.343333
100
AcDbArc
 50
0
 51
150
  0
LINE
  5
B86
330
A02
100
AcDbEntity
  8
Shape2DView005
100
AcDbLine
 10
75
 20
938.864
 30
0
 11
79.531
 21
938.864
 31
0
  0
LINE
  5
B87
330
A02
100
AcDbEntity
  8
Shape2DView005
100
AcDbLine
 10
75
 20
949.318
 30
0
 11
75
 21
938.864
 31
0
  0
LINE
  5
B88
330
A02
100
AcDbEntity
  8
Shape2DView005
100
AcDbLine
 10
75
 20
949.318
 30
0
 11
79.531
 21
949.318
 31
0
  0
ARC
  5
B89
330
A02
100
AcDbEntity
  8
Shape2DView005
100
AcDbCircle
 10
79.8283
 20
949.49
 30
0
 40
0.343333
100
AcDbArc
 50
-150
 51
0
  0
ARC
  5
B8A
330
A02
100
AcDbEntity
  8
Shape2DView005
100
AcDbCircle
 10
79.8283
 20
949.49
 30
0
 40
0.343333
100
AcDbArc
 50
0
 51
60
  0
LINE
  5
B8B
330
A02
100
AcDbEntity
  8
Shape2DView005
100
AcDbLine
 10
80
 20
958.849
 30
0
 11
80
 21
949.787
 31
0
  0
ARC
  5
B8C
330
A02
100
AcDbEntity
  8
Shape2DView005
100
AcDbCircle
 10
79.8283
 20
959.147
 30
0
 40
0.343333
100
AcDbArc
 50
-60
 51
0
  0
ARC
  5
B8D
330
A02
100
AcDbEntity
  8
Shape2DView005
100
AcDbCircle
 10
79.8283
 20
959.147
 30
0
 40
0.343333
100
AcDbArc
 50
0
 51
150
  0
LINE
  5
B8E
330
A02
100
AcDbEntity
  8
Shape2DView005
100
AcDbLine
 10
75
 20
959.318
 30
0
 11
79.531
 21
959.318
 31
0
  0
LINE
  5
B8F
330
A02
100
AcDbEntity
  8
Shape2DView005
100
AcDbLine
 10
75
 20
969.773
 30
0
 11
75
 21
959.318
 31
0
  0
LINE
  5
B90
330
A02
100
AcDbEntity
  8
Shape2DView005
100
AcDbLine
 10
75
 20
969.773
 30
0
 11
79.531
 21
969.773
 31
0
  0
ARC
  5
B91
330
A02
100
AcDbEntity
  8
Shape2DView005
100
AcDbCircle
 10
79.8283
 20
969.944
 30
0
 40
0.343333
100
AcDbArc
 50
-150
 51
0
  0
ARC
  5
B92
330
A02
100
AcDbEntity
  8
Shape2DView005
100
AcDbCircle
 10
79.8283
 20
969.944
 30
0
 40
0.343333
100
AcDbArc
 50
0
 51
60
  0
LINE
  5
B93
330
A02
100
AcDbEntity
  8
Shape2DView005
100
AcDbLine
 10
80
 20
979.304
 30
0
 11
80
 21
970.242
 31
0
  0
ARC
  5
B94
330
A02
100
AcDbEntity
  8
Shape2DView005
100
AcDbCircle
 10
79.8283
 20
979.601
 30
0
 40
0.343333
100
AcDbArc
 50
-60
 51
0
  0
ARC
  5
B95
330
A02
100
AcDbEntity
  8
Shape2DView005
100
AcDbCircle
 10
79.8283
 20
979.601
 30
0
 40
0.343333
100
AcDbArc
 50
0
 51
150
  0
LINE
  5
B96
330
A02
100
AcDbEntity
  8
Shape2DView005
100
AcDbLine
 10
75
 20
979.773
 30
0
 11
79.531
 21
979.773
 31
0
  0
LINE
  5
B97
330
A02
100
AcDbEntity
  8
Shape2DView005
100
AcDbLine
 10
75
 20
985
 30
0
 11
75
 21
979.773
 31
0
  0
LINE
  5
B98
330
A02
100
AcDbEntity
  8
Shape2DView005
100
AcDbLine
 10
85.4
 20
985
 30
0
 11
75
 21
985
 31
0
  0
LINE
  5
B99
330
A02
100
AcDbEntity
  8
Shape2DView005
100
AcDbLine
 10
85.4
 20
980.469
 30
0
 11
85.4
 21
985
 31
0
  0
ARC
  5
B9A
330
A02
100
AcDbEntity
  8
Shape2DView005
100
AcDbCircle
 10
85.5717
 20
980.172
 30
0
 40
0.343333
100
AcDbArc
 50
120
 51
-30
  0
LINE
  5
B9B
330
A02
100
AcDbEntity
  8
Shape2DView005
100
AcDbLine
 10
85.869
 20
980
 30
0
 11
94.931
 21
980
 31
0
  0
ARC
  5
B9C
330
A02
100
AcDbEntity
  8
Shape2DView005
100
AcDbCircle
 10
95.2283
 20
980.172
 30
0
 40
0.343333
100
AcDbArc
 50
-150
 51
60
  0
LINE
  5
B9D
330
A02
100
AcDbEntity
  8
Shape2DView005
100
AcDbLine
 10
95.4
 20
980.469
 30
0
 11
95.4
 21
985
 31
0
  0
LINE
  5
B9E
330
A02
100
AcDbEntity
  8
Shape2DView005
100
AcDbLine
 10
106.2
 20
985
 30
0
 11
95.4
 21
985
 31
0
  0
LINE
  5
B9F
330
A02
100
AcDbEntity
  8
Shape2DView005
100
AcDbLine
 10
106.2
 20
980.469
 30
0
 11
106.2
 21
985
 31
0
  0
ARC
  5
BA0
330
A02
100
AcDbEntity
  8
Shape2DView005
100
AcDbCircle
 10
106.372
 20
980.172
 30
0
 40
0.343333
100
AcDbArc
 50
120
 51
-30
  0
LINE
  5
BA1
330
A02
100
AcDbEntity
  8
Shape2DView005
100
AcDbLine
 10
106.669
 20
980
 30
0
 11
115.731
 21
980
 31
0
  0
ARC
  5
BA2
330
A02
100
AcDbEntity
  8
Shape2DView005
100
AcDbCircle
 10
116.028
 20
980.172
 30
0
 40
0.343333
100
AcDbArc
 50
-150
 51
60
  0
LINE
  5
BA3
330
A02
100
AcDbEntity
  8
Shape2DView005
100
AcDbLine
 10
116.2
 20
980.469
 30
0
 11
116.2
 21
985
 31
0
  0
LINE
  5
BA4
330
A02
100
AcDbEntity
  8
Shape2DView005
100
AcDbLine
 10
127
 20
985
 30
0
 11
116.2
 21
985
 31
0
  0
LINE
  5
BA5
330
A02
100
AcDbEntity
  8
Shape2DView005
100
AcDbLine
 10
127
 20
980.469
 30
0
 11
127
 21
985
 31
0
  0
ARC
  5
BA6
330
A02
100
AcDbEntity
  8
Shape2DView005
100
AcDbCircle
 10
127.172
 20
980.172
 30
0
 40
0.343333
100
AcDbArc
 50
120
 51
-30
  0
LINE
  5
BA7
330
A02
100
AcDbEntity
  8
Shape2DView005
100
AcDbLine
 10
127.469
 20
980
 30
0
 11
136.531
 21
980
 31
0
  0
ARC
  5
BA8
330
A02
100
AcDbEntity
  8
Shape2DView005
100
AcDbCircle
 10
136.828
 20
980.172
 30
0
 40
0.343333
100
AcDbArc
 50
-150
 51
60
  0
LINE
  5
BA9
330
A02
100
AcDbEntity
  8
Shape2DView005
100
AcDbLine
 10
137
 20
980.469
 30
0
 11
137
 21
985
 31
0
  0
LINE
  5
BAA
330
A02
100
AcDbEntity
  8
Shape2DView005
100
AcDbLine
 10
147.8
 20
985
 30
0
 11
137
 21
985
 31
0
  0
LINE
  5
BAB
330
A02
100
AcDbEntity
  8
Shape2DView005
100
AcDbLine
 10
147.8
 20
980.469
 30
0
 11
147.8
 21
985
 31
0
  0
ARC
  5
BAC
330
A02
100
AcDbEntity
  8
Shape2DView005
100
AcDbCircle
 10
147.972
 20
980.172
 30
0
 40
0.343333
100
AcDbArc
 50
120
 51
-30
  0
LINE
  5
BAD
330
A02
100
AcDbEntity
  8
Shape2DView005
100
AcDbLine
 10
148.269
 20
980
 30
0
 11
157.331
 21
980
 31
0
  0
ARC
  5
BAE
330
A02
100
AcDbEntity
  8
Shape2DView005
100
AcDbCircle
 10
157.628
 20
980.172
 30
0
 40
0.343333
100
AcDbArc
 50
-150
 51
60
  0
LINE
  5
BAF
330
A02
100
AcDbEntity
  8
Shape2DView005
100
AcDbLine
 10
157.8
 20
980.469
 30
0
 11
157.8
 21
985
 31
0
  0
LINE
  5
BB0
330
A02
100
AcDbEntity
  8
Shape2DView005
100
AcDbLine
 10
168.6
 20
985
 30
0
 11
157.8
 21
985
 31
0
  0
LINE
  5
BB1
330
A02
100
AcDbEntity
  8
Shape2DView005
100
AcDbLine
 10
168.6
 20
980.469
 30
0
 11
168.6
 21
985
 31
0
  0
ARC
  5
BB2
330
A02
100
AcDbEntity
  8
Shape2DView005
100
AcDbCircle
 10
168.772
 20
980.172
 30
0
 40
0.343333
100
AcDbArc
 50
120
 51
-30
  0
LINE
  5
BB3
330
A02
100
AcDbEntity
  8
Shape2DView005
100
AcDbLine
 10
169.069
 20
980
 30
0
 11
178.131
 21
980
 31
0
  0
ARC
  5
BB4
330
A02
100
AcDbEntity
  8
Shape2DView005
100
AcDbCircle
 10
178.428
 20
980.172
 30
0
 40
0.343333
100
AcDbArc
 50
-150
 51
60
  0
LINE
  5
BB5
330
A02
100
AcDbEntity
  8
Shape2DView005
100
AcDbLine
 10
178.6
 20
980.469
 30
0
 11
178.6
 21
985
 31
0
  0
LINE
  5
BB6
330
A02
100
AcDbEntity
  8
Shape2DView005
100
AcDbLine
 10
189.4
 20
985
 30
0
 11
178.6
 21
985
 31
0
  0
LINE
  5
BB7
330
A02
100
AcDbEntity
  8
Shape2DView005
100
AcDbLine
 10
189.4
 20
980.469
 30
0
 11
189.4
 21
985
 31
0
  0
ARC
  5
BB8
330
A02
100
AcDbEntity
  8
Shape2DView005
100
AcDbCircle
 10
189.572
 20
980.172
 30
0
 40
0.343333
100
AcDbArc
 50
120
 51
-30
  0
LINE
  5
BB9
330
A02
100
AcDbEntity
  8
Shape2DView005
100
AcDbLine
 10
189.869
 20
980
 30
0
 11
198.931
 21
980
 31
0
  0
ARC
  5
BBA
330
A02
100
AcDbEntity
  8
Shape2DView005
100
AcDbCircle
 10
199.228
 20
980.172
 30
0
 40
0.343333
100
AcDbArc
 50
-150
 51
60
  0
LINE
  5
BBB
330
A02
100
AcDbEntity
  8
Shape2DView005
100
AcDbLine
 10
199.4
 20
980.469
 30
0
 11
199.4
 21
985
 31
0
  0
LINE
  5
BBC
330
A02
100
AcDbEntity
  8
Shape2DView005
100
AcDbLine
 10
210.2
 20
985
 30
0
 11
199.4
 21
985
 31
0
  0
LINE
  5
BBD
330
A02
100
AcDbEntity
  8
Shape2DView005
100
AcDbLine
 10
210.2
 20
980.469
 30
0
 11
210.2
 21
985
 31
0
  0
ARC
  5
BBE
330
A02
100
AcDbEntity
  8
Shape2DView005
100
AcDbCircle
 10
210.372
 20
980.172
 30
0
 40
0.343333
100
AcDbArc
 50
120
 51
-30
  0
LINE
  5
BBF
330
A02
100
AcDbEntity
  8
Shape2DView005
100
AcDbLine
 10
210.669
 20
980
 30
0
 11
219.731
 21
980
 31
0
  0
ARC
  5
BC0
330
A02
100
AcDbEntity
  8
Shape2DView005
100
AcDbCircle
 10
220.028
 20
980.172
 30
0
 40
0.343333
100
AcDbArc
 50
-150
 51
60
  0
LINE
  5
BC1
330
A02
100
AcDbEntity
  8
Shape2DView005
100
AcDbLine
 10
220.2
 20
980.469
 30
0
 11
220.2
 21
985
 31
0
  0
LINE
  5
BC2
330
A02
100
AcDbEntity
  8
Shape2DView005
100
AcDbLine
 10
231
 20
985
 30
0
 11
220.2
 21
985
 31
0
  0
LINE
  5
BC3
330
A02
100
AcDbEntity
  8
Shape2DView005
100
AcDbLine
 10
231
 20
980.469
 30
0
 11
231
 21
985
 31
0
  0
ARC
  5
BC4
330
A02
100
AcDbEntity
  8
Shape2DView005
100
AcDbCircle
 10
231.172
 20
980.172
 30
0
 40
0.343333
100
AcDbArc
 50
120
 51
-30
  0
LINE
  5
BC5
330
A02
100
AcDbEntity
  8
Shape2DView005
100
AcDbLine
 10
231.469
 20
980
 30
0
 11
240.531
 21
980
 31
0
  0
ARC
  5
BC6
330
A02
100
AcDbEntity
  8
Shape2DView005
100
AcDbCircle
 10
240.828
 20
980.172
 30
0
 40
0.343333
100
AcDbArc
 50
-150
 51
60
  0
LINE
  5
BC7
330
A02
100
AcDbEntity
  8
Shape2DView005
100
AcDbLine
 10
241
 20
980.469
 30
0
 11
241
 21
985
 31
0
  0
LINE
  5
BC8
330
A02
100
AcDbEntity
  8
Shape2DView005
100
AcDbLine
 10
251.8
 20
985
 30
0
 11
241
 21
985
 31
0
  0
LINE
  5
BC9
330
A02
100
AcDbEntity
  8
Shape2DView005
100
AcDbLine
 10
251.8
 20
980.469
 30
0
 11
251.8
 21
985
 31
0
  0
ARC
  5
BCA
330
A02
100
AcDbEntity
  8
Shape2DView005
100
AcDbCircle
 10
251.972
 20
980.172
 30
0
 40
0.343333
100
AcDbArc
 50
120
 51
-30
  0
LINE
  5
BCB
330
A02
100
AcDbEntity
  8
Shape2DView005
100
AcDbLine
 10
252.269
 20
980
 30
0
 11
261.331
 21
980
 31
0
  0
ARC
  5
BCC
330
A02
100
AcDbEntity
  8
Shape2DView005
100
AcDbCircle
 10
261.628
 20
980.172
 30
0
 40
0.343333
100
AcDbArc
 50
-150
 51
60
  0
LINE
  5
BCD
330
A02
100
AcDbEntity
  8
Shape2DView005
100
AcDbLine
 10
261.8
 20
980.469
 30
0
 11
261.8
 21
985
 31
0
  0
LINE
  5
BCE
330
A02
100
AcDbEntity
  8
Shape2DView005
100
AcDbLine
 10
272.6
 20
985
 30
0
 11
261.8
 21
985
 31
0
  0
LINE
  5
BCF
330
A02
100
AcDbEntity
  8
Shape2DView005
100
AcDbLine
 10
272.6
 20
980.469
 30
0
 11
272.6
 21
985
 31
0
  0
ARC
  5
BD0
330
A02
100
AcDbEntity
  8
Shape2DView005
100
AcDbCircle
 10
272.772
 20
980.172
 30
0
 40
0.343333
100
AcDbArc
 50
120
 51
-30
  0
LINE
  5
BD1
330
A02
100
AcDbEntity
  8
Shape2DView005
100
AcDbLine
 10
273.069
 20
980
 30
0
 11
282.131
 21
980
 31
0
  0
ARC
  5
BD2
330
A02
100
AcDbEntity
  8
Shape2DView005
100
AcDbCircle
 10
282.428
 20
980.172
 30
0
 40
0.343333
100
AcDbArc
 50
-150
 51
60
  0
LINE
  5
BD3
330
A02
100
AcDbEntity
  8
Shape2DView005
100
AcDbLine
 10
282.6
 20
980.469
 30
0
 11
282.6
 21
985
 31
0
  0
CIRCLE
  5
BD4
330
A02
100
AcDbEntity
  8
Shape2DView005
100
AcDbCircle
 10
85
 20
545
 40
1.5
  0
CIRCLE
  5
BD5
330
A02
100
AcDbEntity
  8
Shape2DView005
100
AcDbCircle
 10
88
 20
550
 40
1.25
  0
CIRCLE
  5
BD6
330
A02
100
AcDbEntity
  8
Shape2DView005
100
AcDbCircle
 10
88
 20
560
 40
1.25
  0
CIRCLE
  5
BD7
330
A02
100
AcDbEntity
  8
Shape2DView005
100
AcDbCircle
 10
88
 20
570
 40
1.25
  0
CIRCLE
  5
BD8
330
A02
100
AcDbEntity
  8
Shape2DView005
100
AcDbCircle
 10
98
 20
550
 40
1.25
  0
CIRCLE
  5
BD9
330
A02
100
AcDbEntity
  8
Shape2DView005
100
AcDbCircle
 10
108
 20
550
 40
1.25
  0
CIRCLE
  5
BDA
330
A02
100
AcDbEntity
  8
Shape2DView005
100
AcDbCircle
 10
98
 20
560
 40
1.25
  0
CIRCLE
  5
BDB
330
A02
100
AcDbEntity
  8
Shape2DView005
100
AcDbCircle
 10
98
 20
570
 40
1.25
  0
CIRCLE
  5
BDC
330
A02
100
AcDbEntity
  8
Shape2DView005
100
AcDbCircle
 10
108
 20
560
 40
1.25
  0
CIRCLE
  5
BDD
330
A02
100
AcDbEntity
  8
Shape2DView005
100
AcDbCircle
 10
108
 20
570
 40
1.25
  0
CIRCLE
  5
BDE
330
A02
100
AcDbEntity
  8
Shape2DView005
100
AcDbCircle
 10
88
 20
580
 40
1.25
  0
CIRCLE
  5
BDF
330
A02
100
AcDbEntity
  8
Shape2DView005
100
AcDbCircle
 10
88
 20
590
 40
1.25
  0
CIRCLE
  5
BE0
330
A02
100
AcDbEntity
  8
Shape2DView005
100
AcDbCircle
 10
98
 20
580
 40
1.25
  0
CIRCLE
  5
BE1
330
A02
100
AcDbEntity
  8
Shape2DView005
100
AcDbCircle
 10
108
 20
580
 40
1.25
  0
CIRCLE
  5
BE2
330
A02
100
AcDbEntity
  8
Shape2DView005
100
AcDbCircle
 10
98
 20
590
 40
1.25
  0
CIRCLE
  5
BE3
330
A02
100
AcDbEntity
  8
Shape2DView005
100
AcDbCircle
 10
108
 20
590
 40
1.25
  0
CIRCLE
  5
BE4
330
A02
100
AcDbEntity
  8
Shape2DView005
100
AcDbCircle
 10
118
 20
550
 40
1.25
  0
CIRCLE
  5
BE5
330
A02
100
AcDbEntity
  8
Shape2DView005
100
AcDbCircle
 10
118
 20
560
 40
1.25
  0
CIRCLE
  5
BE6
330
A02
100
AcDbEntity
  8
Shape2DView005
100
AcDbCircle
 10
118
 20
570
 40
1.25
  0
CIRCLE
  5
BE7
330
A02
100
AcDbEntity
  8
Shape2DView005
100
AcDbCircle
 10
128
 20
550
 40
1.25
  0
CIRCLE
  5
BE8
330
A02
100
AcDbEntity
  8
Shape2DView005
100
AcDbCircle
 10
128
 20
560
 40
1.25
  0
CIRCLE
  5
BE9
330
A02
100
AcDbEntity
  8
Shape2DView005
100
AcDbCircle
 10
128
 20
570
 40
1.25
  0
CIRCLE
  5
BEA
330
A02
100
AcDbEntity
  8
Shape2DView005
100
AcDbCircle
 10
118
 20
580
 40
1.25
  0
CIRCLE
  5
BEB
330
A02
100
AcDbEntity
  8
Shape2DView005
100
AcDbCircle
 10
118
 20
590
 40
1.25
  0
CIRCLE
  5
BEC
330
A02
100
AcDbEntity
  8
Shape2DView005
100
AcDbCircle
 10
128
 20
580
 40
1.25
  0
CIRCLE
  5
BED
330
A02
100
AcDbEntity
  8
Shape2DView005
100
AcDbCircle
 10
128
 20
590
 40
1.25
  0
CIRCLE
  5
BEE
330
A02
100
AcDbEntity
  8
Shape2DView005
100
AcDbCircle
 10
88
 20
600
 40
1.25
  0
CIRCLE
  5
BEF
330
A02
100
AcDbEntity
  8
Shape2DView005
100
AcDbCircle
 10
88
 20
610
 40
1.25
  0
CIRCLE
  5
BF0
330
A02
100
AcDbEntity
  8
Shape2DView005
100
AcDbCircle
 10
88
 20
620
 40
1.25
  0
CIRCLE
  5
BF1
330
A02
100
AcDbEntity
  8
Shape2DView005
100
AcDbCircle
 10
98
 20
600
 40
1.25
  0
CIRCLE
  5
BF2
330
A02
100
AcDbEntity
  8
Shape2DView005
100
AcDbCircle
 10
98
 20
610
 40
1.25
  0
CIRCLE
  5
BF3
330
A02
100
AcDbEntity
  8
Shape2DView005
100
AcDbCircle
 10
108
 20
600
 40
1.25
  0
CIRCLE
  5
BF4
330
A02
100
AcDbEntity
  8
Shape2DView005
100
AcDbCircle
 10
108
 20
610
 40
1.25
  0
CIRCLE
  5
BF5
330
A02
100
AcDbEntity
  8
Shape2DView005
100
AcDbCircle
 10
98
 20
620
 40
1.25
  0
CIRCLE
  5
BF6
330
A02
100
AcDbEntity
  8
Shape2DView005
100
AcDbCircle
 10
108
 20
620
 40
1.25
  0
CIRCLE
  5
BF7
330
A02
100
AcDbEntity
  8
Shape2DView005
100
AcDbCircle
 10
88
 20
630
 40
1.25
  0
CIRCLE
  5
BF8
330
A02
100
AcDbEntity
  8
Shape2DView005
100
AcDbCircle
 10
88
 20
640
 40
1.25
  0
CIRCLE
  5
BF9
330
A02
100
AcDbEntity
  8
Shape2DView005
100
AcDbCircle
 10
88
 20
650
 40
1.25
  0
CIRCLE
  5
BFA
330
A02
100
AcDbEntity
  8
Shape2DView005
100
AcDbCircle
 10
98
 20
630
 40
1.25
  0
CIRCLE
  5
BFB
330
A02
100
AcDbEntity
  8
Shape2DView005
100
AcDbCircle
 10
108
 20
630
 40
1.25
  0
CIRCLE
  5
BFC
330
A02
100
AcDbEntity
  8
Shape2DView005
100
AcDbCircle
 10
98
 20
640
 40
1.25
  0
CIRCLE
  5
BFD
330
A02
100
AcDbEntity
  8
Shape2DView005
100
AcDbCircle
 10
98
 20
650
 40
1.25
  0
CIRCLE
  5
BFE
330
A02
100
AcDbEntity
  8
Shape2DView005
100
AcDbCircle
 10
108
 20
640
 40
1.25
  0
CIRCLE
  5
BFF
330
A02
100
AcDbEntity
  8
Shape2DView005
100
AcDbCircle
 10
108
 20
650
 40
1.25
  0
CIRCLE
  5
C00
330
A02
100
AcDbEntity
  8
Shape2DView005
100
AcDbCircle
 10
118
 20
600
 40
1.25
  0
CIRCLE
  5
C01
330
A02
100
AcDbEntity
  8
Shape2DView005
100
AcDbCircle
 10
118
 20
610
 40
1.25
  0
CIRCLE
  5
C02
330
A02
100
AcDbEntity
  8
Shape2DView005
100
AcDbCircle
 10
118
 20
620
 40
1.25
  0
CIRCLE
  5
C03
330
A02
100
AcDbEntity
  8
Shape2DView005
100
AcDbCircle
 10
128
 20
600
 40
1.25
  0
CIRCLE
  5
C04
330
A02
100
AcDbEntity
  8
Shape2DView005
100
AcDbCircle
 10
128
 20
610
 40
1.25
  0
CIRCLE
  5
C05
330
A02
100
AcDbEntity
  8
Shape2DView005
100
AcDbCircle
 10
128
 20
620
 40
1.25
  0
CIRCLE
  5
C06
330
A02
100
AcDbEntity
  8
Shape2DView005
100
AcDbCircle
 10
118
 20
630
 40
1.25
  0
CIRCLE
  5
C07
330
A02
100
AcDbEntity
  8
Shape2DView005
100
AcDbCircle
 10
118
 20
640
 40
1.25
  0
CIRCLE
  5
C08
330
A02
100
AcDbEntity
  8
Shape2DView005
100
AcDbCircle
 10
118
 20
650
 40
1.25
  0
CIRCLE
  5
C09
330
A02
100
AcDbEntity
  8
Shape2DView005
100
AcDbCircle
 10
128
 20
630
 40
1.25
  0
CIRCLE
  5
C0A
330
A02
100
AcDbEntity
  8
Shape2DView005
100
AcDbCircle
 10
128
 20
640
 40
1.25
  0
CIRCLE
  5
C0B
330
A02
100
AcDbEntity
  8
Shape2DView005
100
AcDbCircle
 10
128
 20
650
 40
1.25
  0
CIRCLE
  5
C0C
330
A02
100
AcDbEntity
  8
Shape2DView005
100
AcDbCircle
 10
138
 20
550
 40
1.25
  0
CIRCLE
  5
C0D
330
A02
100
AcDbEntity
  8
Shape2DView005
100
AcDbCircle
 10
138
 20
560
 40
1.25
  0
CIRCLE
  5
C0E
330
A02
100
AcDbEntity
  8
Shape2DView005
100
AcDbCircle
 10
138
 20
570
 40
1.25
  0
CIRCLE
  5
C0F
330
A02
100
AcDbEntity
  8
Shape2DView005
100
AcDbCircle
 10
148
 20
550
 40
1.25
  0
CIRCLE
  5
C10
330
A02
100
AcDbEntity
  8
Shape2DView005
100
AcDbCircle
 10
158
 20
550
 40
1.25
  0
CIRCLE
  5
C11
330
A02
100
AcDbEntity
  8
Shape2DView005
100
AcDbCircle
 10
148
 20
560
 40
1.25
  0
CIRCLE
  5
C12
330
A02
100
AcDbEntity
  8
Shape2DView005
100
AcDbCircle
 10
148
 20
570
 40
1.25
  0
CIRCLE
  5
C13
330
A02
100
AcDbEntity
  8
Shape2DView005
100
AcDbCircle
 10
158
 20
560
 40
1.25
  0
CIRCLE
  5
C14
330
A02
100
AcDbEntity
  8
Shape2DView005
100
AcDbCircle
 10
158
 20
570
 40
1.25
  0
CIRCLE
  5
C15
330
A02
100
AcDbEntity
  8
Shape2DView005
100
AcDbCircle
 10
138
 20
580
 40
1.25
  0
CIRCLE
  5
C16
330
A02
100
AcDbEntity
  8
Shape2DView005
100
AcDbCircle
 10
138
 20
590
 40
1.25
  0
CIRCLE
  5
C17
330
A02
100
AcDbEntity
  8
Shape2DView005
100
AcDbCircle
 10
148
 20
580
 40
1.25
  0
CIRCLE
  5
C18
330
A02
100
AcDbEntity
  8
Shape2DView005
100
AcDbCircle
 10
158
 20
580
 40
1.25
  0
CIRCLE
  5
C19
330
A02
100
AcDbEntity
  8
Shape2DView005
100
AcDbCircle
 10
148
 20
590
 40
1.25
  0
CIRCLE
  5
C1A
330
A02
100
AcDbEntity
  8
Shape2DView005
100
AcDbCircle
 10
158
 20
590
 40
1.25
  0
CIRCLE
  5
C1B
330
A02
100
AcDbEntity
  8
Shape2DView005
100
AcDbCircle
 10
169.2
 20
560.5
 40
1
  0
CIRCLE
  5
C1C
330
A02
100
AcDbEntity
  8
Shape2DView005
100
AcDbCircle
 10
138
 20
600
 40
1.25
  0
CIRCLE
  5
C1D
330
A02
100
AcDbEntity
  8
Shape2DView005
100
AcDbCircle
 10
138
 20
610
 40
1.25
  0
CIRCLE
  5
C1E
330
A02
100
AcDbEntity
  8
Shape2DView005
100
AcDbCircle
 10
138
 20
620
 40
1.25
  0
CIRCLE
  5
C1F
330
A02
100
AcDbEntity
  8
Shape2DView005
100
AcDbCircle
 10
148
 20
600
 40
1.25
  0
CIRCLE
  5
C20
330
A02
100
AcDbEntity
  8
Shape2DView005
100
AcDbCircle
 10
148
 20
610
 40
1.25
  0
CIRCLE
  5
C21
330
A02
100
AcDbEntity
  8
Shape2DView005
100
AcDbCircle
 10
158
 20
600
 40
1.25
  0
CIRCLE
  5
C22
330
A02
100
AcDbEntity
  8
Shape2DView005
100
AcDbCircle
 10
158
 20
610
 40
1.25
  0
CIRCLE
  5
C23
330
A02
100
AcDbEntity
  8
Shape2DView005
100
AcDbCircle
 10
148
 20
620
 40
1.25
  0
CIRCLE
  5
C24
330
A02
100
AcDbEntity
  8
Shape2DView005
100
AcDbCircle
 10
158
 20
620
 40
1.25
  0
CIRCLE
  5
C25
330
A02
100
AcDbEntity
  8
Shape2DView005
100
AcDbCircle
 10
138
 20
630
 40
1.25
  0
CIRCLE
  5
C26
330
A02
100
AcDbEntity
  8
Shape2DView005
100
AcDbCircle
 10
138
 20
640
 40
1.25
  0
CIRCLE
  5
C27
330
A02
100
AcDbEntity
  8
Shape2DView005
100
AcDbCircle
 10
138
 20
650
 40
1.25
  0
CIRCLE
  5
C28
330
A02
100
AcDbEntity
  8
Shape2DView005
100
AcDbCircle
 10
148
 20
630
 40
1.25
  0
CIRCLE
  5
C29
330
A02
100
AcDbEntity
  8
Shape2DView005
100
AcDbCircle
 10
158
 20
630
 40
1.25
  0
CIRCLE
  5
C2A
330
A02
100
AcDbEntity
  8
Shape2DView005
100
AcDbCircle
 10
148
 20
640
 40
1.25
  0
CIRCLE
  5
C2B
330
A02
100
AcDbEntity
  8
Shape2DView005
100
AcDbCircle
 10
148
 20
650
 40
1.25
  0
CIRCLE
  5
C2C
330
A02
100
AcDbEntity
  8
Shape2DView005
100
AcDbCircle
 10
158
 20
640
 40
1.25
  0
CIRCLE
  5
C2D
330
A02
100
AcDbEntity
  8
Shape2DView005
100
AcDbCircle
 10
158
 20
650
 40
1.25
  0
CIRCLE
  5
C2E
330
A02
100
AcDbEntity
  8
Shape2DView005
100
AcDbCircle
 10
174.3
 20
612.6
 40
1
  0
CIRCLE
  5
C2F
330
A02
100
AcDbEntity
  8
Shape2DView005
100
AcDbCircle
 10
168
 20
640
 40
1.25
  0
CIRCLE
  5
C30
330
A02
100
AcDbEntity
  8
Shape2DView005
100
AcDbCircle
 10
168
 20
650
 40
1.25
  0
CIRCLE
  5
C31
330
A02
100
AcDbEntity
  8
Shape2DView005
100
AcDbCircle
 10
178
 20
640
 40
1.25
  0
CIRCLE
  5
C32
330
A02
100
AcDbEntity
  8
Shape2DView005
100
AcDbCircle
 10
178
 20
650
 40
1.25
  0
CIRCLE
  5
C33
330
A02
100
AcDbEntity
  8
Shape2DView005
100
AcDbCircle
 10
88
 20
660
 40
1.25
  0
CIRCLE
  5
C34
330
A02
100
AcDbEntity
  8
Shape2DView005
100
AcDbCircle
 10
88
 20
670
 40
1.25
  0
CIRCLE
  5
C35
330
A02
100
AcDbEntity
  8
Shape2DView005
100
AcDbCircle
 10
98
 20
660
 40
1.25
  0
CIRCLE
  5
C36
330
A02
100
AcDbEntity
  8
Shape2DView005
100
AcDbCircle
 10
108
 20
660
 40
1.25
  0
CIRCLE
  5
C37
330
A02
100
AcDbEntity
  8
Shape2DView005
100
AcDbCircle
 10
98
 20
670
 40
1.25
  0
CIRCLE
  5
C38
330
A02
100
AcDbEntity
  8
Shape2DView005
100
AcDbCircle
 10
108
 20
670
 40
1.25
  0
CIRCLE
  5
C39
330
A02
100
AcDbEntity
  8
Shape2DView005
100
AcDbCircle
 10
88
 20
680
 40
1.25
  0
CIRCLE
  5
C3A
330
A02
100
AcDbEntity
  8
Shape2DView005
100
AcDbCircle
 10
88
 20
690
 40
1.25
  0
CIRCLE
  5
C3B
330
A02
100
AcDbEntity
  8
Shape2DView005
100
AcDbCircle
 10
88
 20
700
 40
1.25
  0
CIRCLE
  5
C3C
330
A02
100
AcDbEntity
  8
Shape2DView005
100
AcDbCircle
 10
98
 20
680
 40
1.25
  0
CIRCLE
  5
C3D
330
A02
100
AcDbEntity
  8
Shape2DView005
100
AcDbCircle
 10
98
 20
690
 40
1.25
  0
CIRCLE
  5
C3E
330
A02
100
AcDbEntity
  8
Shape2DView005
100
AcDbCircle
 10
108
 20
680
 40
1.25
  0
CIRCLE
  5
C3F
330
A02
100
AcDbEntity
  8
Shape2DView005
100
AcDbCircle
 10
108
 20
690
 40
1.25
  0
CIRCLE
  5
C40
330
A02
100
AcDbEntity
  8
Shape2DView005
100
AcDbCircle
 10
98
 20
700
 40
1.25
  0
CIRCLE
  5
C41
330
A02
100
AcDbEntity
  8
Shape2DView005
100
AcDbCircle
 10
108
 20
700
 40
1.25
  0
CIRCLE
  5
C42
330
A02
100
AcDbEntity
  8
Shape2DView005
100
AcDbCircle
 10
118
 20
660
 40
1.25
  0
CIRCLE
  5
C43
330
A02
100
AcDbEntity
  8
Shape2DView005
100
AcDbCircle
 10
118
 20
670
 40
1.25
  0
CIRCLE
  5
C44
330
A02
100
AcDbEntity
  8
Shape2DView005
100
AcDbCircle
 10
128
 20
660
 40
1.25
  0
CIRCLE
  5
C45
330
A02
100
AcDbEntity
  8
Shape2DView005
100
AcDbCircle
 10
128
 20
670
 40
1.25
  0
CIRCLE
  5
C46
330
A02
100
AcDbEntity
  8
Shape2DView005
100
AcDbCircle
 10
118
 20
680
 40
1.25
  0
CIRCLE
  5
C47
330
A02
100
AcDbEntity
  8
Shape2DView005
100
AcDbCircle
 10
118
 20
690
 40
1.25
  0
CIRCLE
  5
C48
330
A02
100
AcDbEntity
  8
Shape2DView005
100
AcDbCircle
 10
118
 20
700
 40
1.25
  0
CIRCLE
  5
C49
330
A02
100
AcDbEntity
  8
Shape2DView005
100
AcDbCircle
 10
128
 20
680
 40
1.25
  0
CIRCLE
  5
C4A
330
A02
100
AcDbEntity
  8
Shape2DView005
100
AcDbCircle
 10
128
 20
690
 40
1.25
  0
CIRCLE
  5
C4B
330
A02
100
AcDbEntity
  8
Shape2DView005
100
AcDbCircle
 10
128
 20
700
 40
1.25
  0
CIRCLE
  5
C4C
330
A02
100
AcDbEntity
  8
Shape2DView005
100
AcDbCircle
 10
88
 20
710
 40
1.25
  0
CIRCLE
  5
C4D
330
A02
100
AcDbEntity
  8
Shape2DView005
100
AcDbCircle
 10
88
 20
720
 40
1.25
  0
CIRCLE
  5
C4E
330
A02
100
AcDbEntity
  8
Shape2DView005
100
AcDbCircle
 10
88
 20
730
 40
1.25
  0
CIRCLE
  5
C4F
330
A02
100
AcDbEntity
  8
Shape2DView005
100
AcDbCircle
 10
98
 20
710
 40
1.25
  0
CIRCLE
  5
C50
330
A02
100
AcDbEntity
  8
Shape2DView005
100
AcDbCircle
 10
108
 20
710
 40
1.25
  0
CIRCLE
  5
C51
330
A02
100
AcDbEntity
  8
Shape2DView005
100
AcDbCircle
 10
98
 20
720
 40
1.25
  0
CIRCLE
  5
C52
330
A02
100
AcDbEntity
  8
Shape2DView005
100
AcDbCircle
 10
98
 20
730
 40
1.25
  0
CIRCLE
  5
C53
330
A02
100
AcDbEntity
  8
Shape2DView005
100
AcDbCircle
 10
108
 20
720
 40
1.25
  0
CIRCLE
  5
C54
330
A02
100
AcDbEntity
  8
Shape2DView005
100
AcDbCircle
 10
108
 20
730
 40
1.25
  0
CIRCLE
  5
C55
330
A02
100
AcDbEntity
  8
Shape2DView005
100
AcDbCircle
 10
88
 20
740
 40
1.25
  0
ARC
  5
C56
330
A02
100
AcDbEntity
  8
Shape2DView005
100
AcDbCircle
 10
85.5667
 20
745.167
 30
0
 40
0.333333
100
AcDbArc
 50
120
 51
-90
  0
ARC
  5
C57
330
A02
100
AcDbEntity
  8
Shape2DView005
100
AcDbCircle
 10
85.5667
 20
745.167
 30
0
 40
0.333333
100
AcDbArc
 50
-90
 51
-30
  0
LINE
  5
C58
330
A02
100
AcDbEntity
  8
Shape2DView005
100
AcDbLine
 10
94.9447
 20
745
 30
0
 11
85.8553
 21
745
 31
0
  0
ARC
  5
C59
330
A02
100
AcDbEntity
  8
Shape2DView005
100
AcDbCircle
 10
95.2333
 20
745.167
 30
0
 40
0.333333
100
AcDbArc
 50
-150
 51
-90
  0
ARC
  5
C5A
330
A02
100
AcDbEntity
  8
Shape2DView005
100
AcDbCircle
 10
95.2333
 20
745.167
 30
0
 40
0.333333
100
AcDbArc
 50
-90
 51
60
  0
LINE
  5
C5B
330
A02
100
AcDbEntity
  8
Shape2DView005
100
AcDbLine
 10
95.4
 20
749.545
 30
0
 11
95.4
 21
745.455
 31
0
  0
ARC
  5
C5C
330
A02
100
AcDbEntity
  8
Shape2DView005
100
AcDbCircle
 10
95.2333
 20
749.833
 30
0
 40
0.333333
100
AcDbArc
 50
-60
 51
150
  0
LINE
  5
C5D
330
A02
100
AcDbEntity
  8
Shape2DView005
100
AcDbLine
 10
94.9447
 20
750
 30
0
 11
85.8553
 21
750
 31
0
  0
ARC
  5
C5E
330
A02
100
AcDbEntity
  8
Shape2DView005
100
AcDbCircle
 10
85.5667
 20
749.833
 30
0
 40
0.333333
100
AcDbArc
 50
30
 51
-120
  0
LINE
  5
C5F
330
A02
100
AcDbEntity
  8
Shape2DView005
100
AcDbLine
 10
85.4
 20
749.545
 30
0
 11
85.4
 21
745.455
 31
0
  0
CIRCLE
  5
C60
330
A02
100
AcDbEntity
  8
Shape2DView005
100
AcDbCircle
 10
98
 20
740
 40
1.25
  0
CIRCLE
  5
C61
330
A02
100
AcDbEntity
  8
Shape2DView005
100
AcDbCircle
 10
108
 20
740
 40
1.25
  0
CIRCLE
  5
C62
330
A02
100
AcDbEntity
  8
Shape2DView005
100
AcDbCircle
 10
118
 20
710
 40
1.25
  0
CIRCLE
  5
C63
330
A02
100
AcDbEntity
  8
Shape2DView005
100
AcDbCircle
 10
118
 20
720
 40
1.25
  0
CIRCLE
  5
C64
330
A02
100
AcDbEntity
  8
Shape2DView005
100
AcDbCircle
 10
118
 20
730
 40
1.25
  0
CIRCLE
  5
C65
330
A02
100
AcDbEntity
  8
Shape2DView005
100
AcDbCircle
 10
128
 20
710
 40
1.25
  0
CIRCLE
  5
C66
330
A02
100
AcDbEntity
  8
Shape2DView005
100
AcDbCircle
 10
128
 20
720
 40
1.25
  0
CIRCLE
  5
C67
330
A02
100
AcDbEntity
  8
Shape2DView005
100
AcDbCircle
 10
128
 20
730
 40
1.25
  0
CIRCLE
  5
C68
330
A02
100
AcDbEntity
  8
Shape2DView005
100
AcDbCircle
 10
118
 20
740
 40
1.25
  0
ARC
  5
C69
330
A02
100
AcDbEntity
  8
Shape2DView005
100
AcDbCircle
 10
106.367
 20
745.167
 30
0
 40
0.333333
100
AcDbArc
 50
120
 51
-90
  0
ARC
  5
C6A
330
A02
100
AcDbEntity
  8
Shape2DView005
100
AcDbCircle
 10
106.367
 20
745.167
 30
0
 40
0.333333
100
AcDbArc
 50
-90
 51
-30
  0
LINE
  5
C6B
330
A02
100
AcDbEntity
  8
Shape2DView005
100
AcDbLine
 10
115.745
 20
745
 30
0
 11
106.655
 21
745
 31
0
  0
ARC
  5
C6C
330
A02
100
AcDbEntity
  8
Shape2DView005
100
AcDbCircle
 10
116.033
 20
745.167
 30
0
 40
0.333333
100
AcDbArc
 50
-150
 51
-90
  0
ARC
  5
C6D
330
A02
100
AcDbEntity
  8
Shape2DView005
100
AcDbCircle
 10
116.033
 20
745.167
 30
0
 40
0.333333
100
AcDbArc
 50
-90
 51
60
  0
LINE
  5
C6E
330
A02
100
AcDbEntity
  8
Shape2DView005
100
AcDbLine
 10
116.2
 20
749.545
 30
0
 11
116.2
 21
745.455
 31
0
  0
ARC
  5
C6F
330
A02
100
AcDbEntity
  8
Shape2DView005
100
AcDbCircle
 10
116.033
 20
749.833
 30
0
 40
0.333333
100
AcDbArc
 50
-60
 51
150
  0
LINE
  5
C70
330
A02
100
AcDbEntity
  8
Shape2DView005
100
AcDbLine
 10
115.745
 20
750
 30
0
 11
106.655
 21
750
 31
0
  0
ARC
  5
C71
330
A02
100
AcDbEntity
  8
Shape2DView005
100
AcDbCircle
 10
106.367
 20
749.833
 30
0
 40
0.333333
100
AcDbArc
 50
30
 51
-120
  0
LINE
  5
C72
330
A02
100
AcDbEntity
  8
Shape2DView005
100
AcDbLine
 10
106.2
 20
749.545
 30
0
 11
106.2
 21
745.455
 31
0
  0
CIRCLE
  5
C73
330
A02
100
AcDbEntity
  8
Shape2DView005
100
AcDbCircle
 10
128
 20
740
 40
1.25
  0
ARC
  5
C74
330
A02
100
AcDbEntity
  8
Shape2DView005
100
AcDbCircle
 10
127.167
 20
745.167
 30
0
 40
0.333333
100
AcDbArc
 50
120
 51
-90
  0
ARC
  5
C75
330
A02
100
AcDbEntity
  8
Shape2DView005
100
AcDbCircle
 10
127.167
 20
745.167
 30
0
 40
0.333333
100
AcDbArc
 50
-90
 51
-30
  0
LINE
  5
C76
330
A02
100
AcDbEntity
  8
Shape2DView005
100
AcDbLine
 10
136.545
 20
745
 30
0
 11
127.455
 21
745
 31
0
  0
ARC
  5
C77
330
A02
100
AcDbEntity
  8
Shape2DView005
100
AcDbCircle
 10
136.833
 20
745.167
 30
0
 40
0.333333
100
AcDbArc
 50
-150
 51
-90
  0
ARC
  5
C78
330
A02
100
AcDbEntity
  8
Shape2DView005
100
AcDbCircle
 10
136.833
 20
745.167
 30
0
 40
0.333333
100
AcDbArc
 50
-90
 51
60
  0
LINE
  5
C79
330
A02
100
AcDbEntity
  8
Shape2DView005
100
AcDbLine
 10
137
 20
749.545
 30
0
 11
137
 21
745.455
 31
0
  0
ARC
  5
C7A
330
A02
100
AcDbEntity
  8
Shape2DView005
100
AcDbCircle
 10
136.833
 20
749.833
 30
0
 40
0.333333
100
AcDbArc
 50
-60
 51
150
  0
LINE
  5
C7B
330
A02
100
AcDbEntity
  8
Shape2DView005
100
AcDbLine
 10
136.545
 20
750
 30
0
 11
127.455
 21
750
 31
0
  0
ARC
  5
C7C
330
A02
100
AcDbEntity
  8
Shape2DView005
100
AcDbCircle
 10
127.167
 20
749.833
 30
0
 40
0.333333
100
AcDbArc
 50
30
 51
-120
  0
LINE
  5
C7D
330
A02
100
AcDbEntity
  8
Shape2DView005
100
AcDbLine
 10
127
 20
749.545
 30
0
 11
127
 21
745.455
 31
0
  0
CIRCLE
  5
C7E
330
A02
100
AcDbEntity
  8
Shape2DView005
100
AcDbCircle
 10
138
 20
660
 40
1.25
  0
CIRCLE
  5
C7F
330
A02
100
AcDbEntity
  8
Shape2DView005
100
AcDbCircle
 10
138
 20
670
 40
1.25
  0
CIRCLE
  5
C80
330
A02
100
AcDbEntity
  8
Shape2DView005
100
AcDbCircle
 10
148
 20
660
 40
1.25
  0
CIRCLE
  5
C81
330
A02
100
AcDbEntity
  8
Shape2DView005
100
AcDbCircle
 10
158
 20
660
 40
1.25
  0
CIRCLE
  5
C82
330
A02
100
AcDbEntity
  8
Shape2DView005
100
AcDbCircle
 10
148
 20
670
 40
1.25
  0
CIRCLE
  5
C83
330
A02
100
AcDbEntity
  8
Shape2DView005
100
AcDbCircle
 10
158
 20
670
 40
1.25
  0
CIRCLE
  5
C84
330
A02
100
AcDbEntity
  8
Shape2DView005
100
AcDbCircle
 10
138
 20
680
 40
1.25
  0
CIRCLE
  5
C85
330
A02
100
AcDbEntity
  8
Shape2DView005
100
AcDbCircle
 10
138
 20
690
 40
1.25
  0
CIRCLE
  5
C86
330
A02
100
AcDbEntity
  8
Shape2DView005
100
AcDbCircle
 10
138
 20
700
 40
1.25
  0
CIRCLE
  5
C87
330
A02
100
AcDbEntity
  8
Shape2DView005
100
AcDbCircle
 10
148
 20
680
 40
1.25
  0
CIRCLE
  5
C88
330
A02
100
AcDbEntity
  8
Shape2DView005
100
AcDbCircle
 10
148
 20
690
 40
1.25
  0
CIRCLE
  5
C89
330
A02
100
AcDbEntity
  8
Shape2DView005
100
AcDbCircle
 10
158
 20
680
 40
1.25
  0
CIRCLE
  5
C8A
330
A02
100
AcDbEntity
  8
Shape2DView005
100
AcDbCircle
 10
158
 20
690
 40
1.25
  0
CIRCLE
  5
C8B
330
A02
100
AcDbEntity
  8
Shape2DView005
100
AcDbCircle
 10
148
 20
700
 40
1.25
  0
CIRCLE
  5
C8C
330
A02
100
AcDbEntity
  8
Shape2DView005
100
AcDbCircle
 10
158
 20
700
 40
1.25
  0
CIRCLE
  5
C8D
330
A02
100
AcDbEntity
  8
Shape2DView005
100
AcDbCircle
 10
168
 20
660
 40
1.25
  0
CIRCLE
  5
C8E
330
A02
100
AcDbEntity
  8
Shape2DView005
100
AcDbCircle
 10
168
 20
670
 40
1.25
  0
CIRCLE
  5
C8F
330
A02
100
AcDbEntity
  8
Shape2DView005
100
AcDbCircle
 10
178
 20
660
 40
1.25
  0
CIRCLE
  5
C90
330
A02
100
AcDbEntity
  8
Shape2DView005
100
AcDbCircle
 10
178
 20
670
 40
1.25
  0
CIRCLE
  5
C91
330
A02
100
AcDbEntity
  8
Shape2DView005
100
AcDbCircle
 10
168
 20
680
 40
1.25
  0
CIRCLE
  5
C92
330
A02
100
AcDbEntity
  8
Shape2DView005
100
AcDbCircle
 10
168
 20
690
 40
1.25
  0
CIRCLE
  5
C93
330
A02
100
AcDbEntity
  8
Shape2DView005
100
AcDbCircle
 10
168
 20
700
 40
1.25
  0
CIRCLE
  5
C94
330
A02
100
AcDbEntity
  8
Shape2DView005
100
AcDbCircle
 10
178
 20
680
 40
1.25
  0
CIRCLE
  5
C95
330
A02
100
AcDbEntity
  8
Shape2DView005
100
AcDbCircle
 10
178
 20
690
 40
1.25
  0
CIRCLE
  5
C96
330
A02
100
AcDbEntity
  8
Shape2DView005
100
AcDbCircle
 10
178
 20
700
 40
1.25
  0
CIRCLE
  5
C97
330
A02
100
AcDbEntity
  8
Shape2DView005
100
AcDbCircle
 10
138
 20
710
 40
1.25
  0
CIRCLE
  5
C98
330
A02
100
AcDbEntity
  8
Shape2DView005
100
AcDbCircle
 10
138
 20
720
 40
1.25
  0
CIRCLE
  5
C99
330
A02
100
AcDbEntity
  8
Shape2DView005
100
AcDbCircle
 10
138
 20
730
 40
1.25
  0
CIRCLE
  5
C9A
330
A02
100
AcDbEntity
  8
Shape2DView005
100
AcDbCircle
 10
148
 20
710
 40
1.25
  0
CIRCLE
  5
C9B
330
A02
100
AcDbEntity
  8
Shape2DView005
100
AcDbCircle
 10
158
 20
710
 40
1.25
  0
CIRCLE
  5
C9C
330
A02
100
AcDbEntity
  8
Shape2DView005
100
AcDbCircle
 10
148
 20
720
 40
1.25
  0
CIRCLE
  5
C9D
330
A02
100
AcDbEntity
  8
Shape2DView005
100
AcDbCircle
 10
148
 20
730
 40
1.25
  0
CIRCLE
  5
C9E
330
A02
100
AcDbEntity
  8
Shape2DView005
100
AcDbCircle
 10
158
 20
720
 40
1.25
  0
CIRCLE
  5
C9F
330
A02
100
AcDbEntity
  8
Shape2DView005
100
AcDbCircle
 10
158
 20
730
 40
1.25
  0
CIRCLE
  5
CA0
330
A02
100
AcDbEntity
  8
Shape2DView005
100
AcDbCircle
 10
138
 20
740
 40
1.25
  0
CIRCLE
  5
CA1
330
A02
100
AcDbEntity
  8
Shape2DView005
100
AcDbCircle
 10
148
 20
740
 40
1.25
  0
CIRCLE
  5
CA2
330
A02
100
AcDbEntity
  8
Shape2DView005
100
AcDbCircle
 10
158
 20
740
 40
1.25
  0
ARC
  5
CA3
330
A02
100
AcDbEntity
  8
Shape2DView005
100
AcDbCircle
 10
147.967
 20
745.167
 30
0
 40
0.333333
100
AcDbArc
 50
120
 51
-90
  0
ARC
  5
CA4
330
A02
100
AcDbEntity
  8
Shape2DView005
100
AcDbCircle
 10
147.967
 20
745.167
 30
0
 40
0.333333
100
AcDbArc
 50
-90
 51
-30
  0
LINE
  5
CA5
330
A02
100
AcDbEntity
  8
Shape2DView005
100
AcDbLine
 10
157.345
 20
745
 30
0
 11
148.255
 21
745
 31
0
  0
ARC
  5
CA6
330
A02
100
AcDbEntity
  8
Shape2DView005
100
AcDbCircle
 10
157.633
 20
745.167
 30
0
 40
0.333333
100
AcDbArc
 50
-150
 51
-90
  0
ARC
  5
CA7
330
A02
100
AcDbEntity
  8
Shape2DView005
100
AcDbCircle
 10
157.633
 20
745.167
 30
0
 40
0.333333
100
AcDbArc
 50
-90
 51
60
  0
LINE
  5
CA8
330
A02
100
AcDbEntity
  8
Shape2DView005
100
AcDbLine
 10
157.8
 20
749.545
 30
0
 11
157.8
 21
745.455
 31
0
  0
ARC
  5
CA9
330
A02
100
AcDbEntity
  8
Shape2DView005
100
AcDbCircle
 10
157.633
 20
749.833
 30
0
 40
0.333333
100
AcDbArc
 50
-60
 51
150
  0
LINE
  5
CAA
330
A02
100
AcDbEntity
  8
Shape2DView005
100
AcDbLine
 10
157.345
 20
750
 30
0
 11
148.255
 21
750
 31
0
  0
ARC
  5
CAB
330
A02
100
AcDbEntity
  8
Shape2DView005
100
AcDbCircle
 10
147.967
 20
749.833
 30
0
 40
0.333333
100
AcDbArc
 50
30
 51
-120
  0
LINE
  5
CAC
330
A02
100
AcDbEntity
  8
Shape2DView005
100
AcDbLine
 10
147.8
 20
749.545
 30
0
 11
147.8
 21
745.455
 31
0
  0
CIRCLE
  5
CAD
330
A02
100
AcDbEntity
  8
Shape2DView005
100
AcDbCircle
 10
168
 20
710
 40
1.25
  0
CIRCLE
  5
CAE
330
A02
100
AcDbEntity
  8
Shape2DView005
100
AcDbCircle
 10
168
 20
720
 40
1.25
  0
CIRCLE
  5
CAF
330
A02
100
AcDbEntity
  8
Shape2DView005
100
AcDbCircle
 10
168
 20
730
 40
1.25
  0
CIRCLE
  5
CB0
330
A02
100
AcDbEntity
  8
Shape2DView005
100
AcDbCircle
 10
178
 20
710
 40
1.25
  0
CIRCLE
  5
CB1
330
A02
100
AcDbEntity
  8
Shape2DView005
100
AcDbCircle
 10
178
 20
720
 40
1.25
  0
CIRCLE
  5
CB2
330
A02
100
AcDbEntity
  8
Shape2DView005
100
AcDbCircle
 10
178
 20
730
 40
1.25
  0
CIRCLE
  5
CB3
330
A02
100
AcDbEntity
  8
Shape2DView005
100
AcDbCircle
 10
168
 20
740
 40
1.25
  0
CIRCLE
  5
CB4
330
A02
100
AcDbEntity
  8
Shape2DView005
100
AcDbCircle
 10
178
 20
740
 40
1.25
  0
ARC
  5
CB5
330
A02
100
AcDbEntity
  8
Shape2DView005
100
AcDbCircle
 10
168.767
 20
745.167
 30
0
 40
0.333333
100
AcDbArc
 50
120
 51
-90
  0
ARC
  5
CB6
330
A02
100
AcDbEntity
  8
Shape2DView005
100
AcDbCircle
 10
168.767
 20
745.167
 30
0
 40
0.333333
100
AcDbArc
 50
-90
 51
-30
  0
LINE
  5
CB7
330
A02
100
AcDbEntity
  8
Shape2DView005
100
AcDbLine
 10
178.145
 20
745
 30
0
 11
169.055
 21
745
 31
0
  0
ARC
  5
CB8
330
A02
100
AcDbEntity
  8
Shape2DView005
100
AcDbCircle
 10
178.433
 20
745.167
 30
0
 40
0.333333
100
AcDbArc
 50
-150
 51
-90
  0
ARC
  5
CB9
330
A02
100
AcDbEntity
  8
Shape2DView005
100
AcDbCircle
 10
178.433
 20
745.167
 30
0
 40
0.333333
100
AcDbArc
 50
-90
 51
60
  0
LINE
  5
CBA
330
A02
100
AcDbEntity
  8
Shape2DView005
100
AcDbLine
 10
178.6
 20
749.545
 30
0
 11
178.6
 21
745.455
 31
0
  0
ARC
  5
CBB
330
A02
100
AcDbEntity
  8
Shape2DView005
100
AcDbCircle
 10
178.433
 20
749.833
 30
0
 40
0.333333
100
AcDbArc
 50
-60
 51
150
  0
LINE
  5
CBC
330
A02
100
AcDbEntity
  8
Shape2DView005
100
AcDbLine
 10
178.145
 20
750
 30
0
 11
169.055
 21
750
 31
0
  0
ARC
  5
CBD
330
A02
100
AcDbEntity
  8
Shape2DView005
100
AcDbCircle
 10
168.767
 20
749.833
 30
0
 40
0.333333
100
AcDbArc
 50
30
 51
-120
  0
LINE
  5
CBE
330
A02
100
AcDbEntity
  8
Shape2DView005
100
AcDbLine
 10
168.6
 20
749.545
 30
0
 11
168.6
 21
745.455
 31
0
  0
CIRCLE
  5
CBF
330
A02
100
AcDbEntity
  8
Shape2DView005
100
AcDbCircle
 10
217.4
 20
561.8
 40
1
  0
CIRCLE
  5
CC0
330
A02
100
AcDbEntity
  8
Shape2DView005
100
AcDbCircle
 10
233.5
 20
563.5
 40
1
  0
CIRCLE
  5
CC1
330
A02
100
AcDbEntity
  8
Shape2DView005
100
AcDbCircle
 10
202.2
 20
612.6
 40
1
  0
CIRCLE
  5
CC2
330
A02
100
AcDbEntity
  8
Shape2DView005
100
AcDbCircle
 10
188
 20
640
 40
1.25
  0
CIRCLE
  5
CC3
330
A02
100
AcDbEntity
  8
Shape2DView005
100
AcDbCircle
 10
188
 20
650
 40
1.25
  0
CIRCLE
  5
CC4
330
A02
100
AcDbEntity
  8
Shape2DView005
100
AcDbCircle
 10
198
 20
640
 40
1.25
  0
CIRCLE
  5
CC5
330
A02
100
AcDbEntity
  8
Shape2DView005
100
AcDbCircle
 10
198
 20
650
 40
1.25
  0
CIRCLE
  5
CC6
330
A02
100
AcDbEntity
  8
Shape2DView005
100
AcDbCircle
 10
208
 20
640
 40
1.25
  0
CIRCLE
  5
CC7
330
A02
100
AcDbEntity
  8
Shape2DView005
100
AcDbCircle
 10
208
 20
650
 40
1.25
  0
CIRCLE
  5
CC8
330
A02
100
AcDbEntity
  8
Shape2DView005
100
AcDbCircle
 10
233.5
 20
621.5
 40
1
  0
CIRCLE
  5
CC9
330
A02
100
AcDbEntity
  8
Shape2DView005
100
AcDbCircle
 10
218
 20
640
 40
1.25
  0
CIRCLE
  5
CCA
330
A02
100
AcDbEntity
  8
Shape2DView005
100
AcDbCircle
 10
218
 20
650
 40
1.25
  0
CIRCLE
  5
CCB
330
A02
100
AcDbEntity
  8
Shape2DView005
100
AcDbCircle
 10
228
 20
640
 40
1.25
  0
CIRCLE
  5
CCC
330
A02
100
AcDbEntity
  8
Shape2DView005
100
AcDbCircle
 10
228
 20
650
 40
1.25
  0
CIRCLE
  5
CCD
330
A02
100
AcDbEntity
  8
Shape2DView005
100
AcDbCircle
 10
283
 20
545
 40
1.5
  0
CIRCLE
  5
CCE
330
A02
100
AcDbEntity
  8
Shape2DView005
100
AcDbCircle
 10
282.5
 20
563.5
 40
1
  0
CIRCLE
  5
CCF
330
A02
100
AcDbEntity
  8
Shape2DView005
100
AcDbCircle
 10
238
 20
640
 40
1.25
  0
CIRCLE
  5
CD0
330
A02
100
AcDbEntity
  8
Shape2DView005
100
AcDbCircle
 10
238
 20
650
 40
1.25
  0
CIRCLE
  5
CD1
330
A02
100
AcDbEntity
  8
Shape2DView005
100
AcDbCircle
 10
248
 20
640
 40
1.25
  0
CIRCLE
  5
CD2
330
A02
100
AcDbEntity
  8
Shape2DView005
100
AcDbCircle
 10
248
 20
650
 40
1.25
  0
CIRCLE
  5
CD3
330
A02
100
AcDbEntity
  8
Shape2DView005
100
AcDbCircle
 10
258
 20
640
 40
1.25
  0
CIRCLE
  5
CD4
330
A02
100
AcDbEntity
  8
Shape2DView005
100
AcDbCircle
 10
258
 20
650
 40
1.25
  0
CIRCLE
  5
CD5
330
A02
100
AcDbEntity
  8
Shape2DView005
100
AcDbCircle
 10
282.5
 20
621.5
 40
1
  0
CIRCLE
  5
CD6
330
A02
100
AcDbEntity
  8
Shape2DView005
100
AcDbCircle
 10
268
 20
640
 40
1.25
  0
CIRCLE
  5
CD7
330
A02
100
AcDbEntity
  8
Shape2DView005
100
AcDbCircle
 10
268
 20
650
 40
1.25
  0
CIRCLE
  5
CD8
330
A02
100
AcDbEntity
  8
Shape2DView005
100
AcDbCircle
 10
278
 20
640
 40
1.25
  0
CIRCLE
  5
CD9
330
A02
100
AcDbEntity
  8
Shape2DView005
100
AcDbCircle
 10
278
 20
650
 40
1.25
  0
CIRCLE
  5
CDA
330
A02
100
AcDbEntity
  8
Shape2DView005
100
AcDbCircle
 10
188
 20
660
 40
1.25
  0
CIRCLE
  5
CDB
330
A02
100
AcDbEntity
  8
Shape2DView005
100
AcDbCircle
 10
188
 20
670
 40
1.25
  0
CIRCLE
  5
CDC
330
A02
100
AcDbEntity
  8
Shape2DView005
100
AcDbCircle
 10
198
 20
660
 40
1.25
  0
CIRCLE
  5
CDD
330
A02
100
AcDbEntity
  8
Shape2DView005
100
AcDbCircle
 10
208
 20
660
 40
1.25
  0
CIRCLE
  5
CDE
330
A02
100
AcDbEntity
  8
Shape2DView005
100
AcDbCircle
 10
198
 20
670
 40
1.25
  0
CIRCLE
  5
CDF
330
A02
100
AcDbEntity
  8
Shape2DView005
100
AcDbCircle
 10
208
 20
670
 40
1.25
  0
CIRCLE
  5
CE0
330
A02
100
AcDbEntity
  8
Shape2DView005
100
AcDbCircle
 10
188
 20
680
 40
1.25
  0
CIRCLE
  5
CE1
330
A02
100
AcDbEntity
  8
Shape2DView005
100
AcDbCircle
 10
188
 20
690
 40
1.25
  0
CIRCLE
  5
CE2
330
A02
100
AcDbEntity
  8
Shape2DView005
100
AcDbCircle
 10
188
 20
700
 40
1.25
  0
CIRCLE
  5
CE3
330
A02
100
AcDbEntity
  8
Shape2DView005
100
AcDbCircle
 10
198
 20
680
 40
1.25
  0
CIRCLE
  5
CE4
330
A02
100
AcDbEntity
  8
Shape2DView005
100
AcDbCircle
 10
198
 20
690
 40
1.25
  0
CIRCLE
  5
CE5
330
A02
100
AcDbEntity
  8
Shape2DView005
100
AcDbCircle
 10
208
 20
680
 40
1.25
  0
CIRCLE
  5
CE6
330
A02
100
AcDbEntity
  8
Shape2DView005
100
AcDbCircle
 10
208
 20
690
 40
1.25
  0
CIRCLE
  5
CE7
330
A02
100
AcDbEntity
  8
Shape2DView005
100
AcDbCircle
 10
198
 20
700
 40
1.25
  0
CIRCLE
  5
CE8
330
A02
100
AcDbEntity
  8
Shape2DView005
100
AcDbCircle
 10
208
 20
700
 40
1.25
  0
CIRCLE
  5
CE9
330
A02
100
AcDbEntity
  8
Shape2DView005
100
AcDbCircle
 10
218
 20
660
 40
1.25
  0
CIRCLE
  5
CEA
330
A02
100
AcDbEntity
  8
Shape2DView005
100
AcDbCircle
 10
218
 20
670
 40
1.25
  0
CIRCLE
  5
CEB
330
A02
100
AcDbEntity
  8
Shape2DView005
100
AcDbCircle
 10
228
 20
660
 40
1.25
  0
CIRCLE
  5
CEC
330
A02
100
AcDbEntity
  8
Shape2DView005
100
AcDbCircle
 10
228
 20
670
 40
1.25
  0
CIRCLE
  5
CED
330
A02
100
AcDbEntity
  8
Shape2DView005
100
AcDbCircle
 10
218
 20
680
 40
1.25
  0
CIRCLE
  5
CEE
330
A02
100
AcDbEntity
  8
Shape2DView005
100
AcDbCircle
 10
218
 20
690
 40
1.25
  0
CIRCLE
  5
CEF
330
A02
100
AcDbEntity
  8
Shape2DView005
100
AcDbCircle
 10
218
 20
700
 40
1.25
  0
CIRCLE
  5
CF0
330
A02
100
AcDbEntity
  8
Shape2DView005
100
AcDbCircle
 10
228
 20
680
 40
1.25
  0
CIRCLE
  5
CF1
330
A02
100
AcDbEntity
  8
Shape2DView005
100
AcDbCircle
 10
228
 20
690
 40
1.25
  0
CIRCLE
  5
CF2
330
A02
100
AcDbEntity
  8
Shape2DView005
100
AcDbCircle
 10
228
 20
700
 40
1.25
  0
CIRCLE
  5
CF3
330
A02
100
AcDbEntity
  8
Shape2DView005
100
AcDbCircle
 10
188
 20
710
 40
1.25
  0
CIRCLE
  5
CF4
330
A02
100
AcDbEntity
  8
Shape2DView005
100
AcDbCircle
 10
188
 20
720
 40
1.25
  0
CIRCLE
  5
CF5
330
A02
100
AcDbEntity
  8
Shape2DView005
100
AcDbCircle
 10
188
 20
730
 40
1.25
  0
CIRCLE
  5
CF6
330
A02
100
AcDbEntity
  8
Shape2DView005
100
AcDbCircle
 10
198
 20
710
 40
1.25
  0
CIRCLE
  5
CF7
330
A02
100
AcDbEntity
  8
Shape2DView005
100
AcDbCircle
 10
208
 20
710
 40
1.25
  0
CIRCLE
  5
CF8
330
A02
100
AcDbEntity
  8
Shape2DView005
100
AcDbCircle
 10
198
 20
720
 40
1.25
  0
CIRCLE
  5
CF9
330
A02
100
AcDbEntity
  8
Shape2DView005
100
AcDbCircle
 10
198
 20
730
 40
1.25
  0
CIRCLE
  5
CFA
330
A02
100
AcDbEntity
  8
Shape2DView005
100
AcDbCircle
 10
208
 20
720
 40
1.25
  0
CIRCLE
  5
CFB
330
A02
100
AcDbEntity
  8
Shape2DView005
100
AcDbCircle
 10
208
 20
730
 40
1.25
  0
CIRCLE
  5
CFC
330
A02
100
AcDbEntity
  8
Shape2DView005
100
AcDbCircle
 10
188
 20
740
 40
1.25
  0
ARC
  5
CFD
330
A02
100
AcDbEntity
  8
Shape2DView005
100
AcDbCircle
 10
189.567
 20
745.167
 30
0
 40
0.333333
100
AcDbArc
 50
120
 51
-90
  0
ARC
  5
CFE
330
A02
100
AcDbEntity
  8
Shape2DView005
100
AcDbCircle
 10
189.567
 20
745.167
 30
0
 40
0.333333
100
AcDbArc
 50
-90
 51
-30
  0
LINE
  5
CFF
330
A02
100
AcDbEntity
  8
Shape2DView005
100
AcDbLine
 10
198.945
 20
745
 30
0
 11
189.855
 21
745
 31
0
  0
ARC
  5
D00
330
A02
100
AcDbEntity
  8
Shape2DView005
100
AcDbCircle
 10
199.233
 20
745.167
 30
0
 40
0.333333
100
AcDbArc
 50
-150
 51
-90
  0
ARC
  5
D01
330
A02
100
AcDbEntity
  8
Shape2DView005
100
AcDbCircle
 10
199.233
 20
745.167
 30
0
 40
0.333333
100
AcDbArc
 50
-90
 51
60
  0
LINE
  5
D02
330
A02
100
AcDbEntity
  8
Shape2DView005
100
AcDbLine
 10
199.4
 20
749.545
 30
0
 11
199.4
 21
745.455
 31
0
  0
ARC
  5
D03
330
A02
100
AcDbEntity
  8
Shape2DView005
100
AcDbCircle
 10
199.233
 20
749.833
 30
0
 40
0.333333
100
AcDbArc
 50
-60
 51
150
  0
LINE
  5
D04
330
A02
100
AcDbEntity
  8
Shape2DView005
100
AcDbLine
 10
198.945
 20
750
 30
0
 11
189.855
 21
750
 31
0
  0
ARC
  5
D05
330
A02
100
AcDbEntity
  8
Shape2DView005
100
AcDbCircle
 10
189.567
 20
749.833
 30
0
 40
0.333333
100
AcDbArc
 50
30
 51
-120
  0
LINE
  5
D06
330
A02
100
AcDbEntity
  8
Shape2DView005
100
AcDbLine
 10
189.4
 20
749.545
 30
0
 11
189.4
 21
745.455
 31
0
  0
CIRCLE
  5
D07
330
A02
100
AcDbEntity
  8
Shape2DView005
100
AcDbCircle
 10
198
 20
740
 40
1.25
  0
CIRCLE
  5
D08
330
A02
100
AcDbEntity
  8
Shape2DView005
100
AcDbCircle
 10
208
 20
740
 40
1.25
  0
CIRCLE
  5
D09
330
A02
100
AcDbEntity
  8
Shape2DView005
100
AcDbCircle
 10
218
 20
710
 40
1.25
  0
CIRCLE
  5
D0A
330
A02
100
AcDbEntity
  8
Shape2DView005
100
AcDbCircle
 10
218
 20
720
 40
1.25
  0
CIRCLE
  5
D0B
330
A02
100
AcDbEntity
  8
Shape2DView005
100
AcDbCircle
 10
218
 20
730
 40
1.25
  0
CIRCLE
  5
D0C
330
A02
100
AcDbEntity
  8
Shape2DView005
100
AcDbCircle
 10
228
 20
710
 40
1.25
  0
CIRCLE
  5
D0D
330
A02
100
AcDbEntity
  8
Shape2DView005
100
AcDbCircle
 10
228
 20
720
 40
1.25
  0
CIRCLE
  5
D0E
330
A02
100
AcDbEntity
  8
Shape2DView005
100
AcDbCircle
 10
228
 20
730
 40
1.25
  0
CIRCLE
  5
D0F
330
A02
100
AcDbEntity
  8
Shape2DView005
100
AcDbCircle
 10
218
 20
740
 40
1.25
  0
ARC
  5
D10
330
A02
100
AcDbEntity
  8
Shape2DView005
100
AcDbCircle
 10
210.367
 20
745.167
 30
0
 40
0.333333
100
AcDbArc
 50
120
 51
-90
  0
ARC
  5
D11
330
A02
100
AcDbEntity
  8
Shape2DView005
100
AcDbCircle
 10
210.367
 20
745.167
 30
0
 40
0.333333
100
AcDbArc
 50
-90
 51
-30
  0
LINE
  5
D12
330
A02
100
AcDbEntity
  8
Shape2DView005
100
AcDbLine
 10
219.745
 20
745
 30
0
 11
210.655
 21
745
 31
0
  0
ARC
  5
D13
330
A02
100
AcDbEntity
  8
Shape2DView005
100
AcDbCircle
 10
220.033
 20
745.167
 30
0
 40
0.333333
100
AcDbArc
 50
-150
 51
-90
  0
ARC
  5
D14
330
A02
100
AcDbEntity
  8
Shape2DView005
100
AcDbCircle
 10
220.033
 20
745.167
 30
0
 40
0.333333
100
AcDbArc
 50
-90
 51
60
  0
LINE
  5
D15
330
A02
100
AcDbEntity
  8
Shape2DView005
100
AcDbLine
 10
220.2
 20
749.545
 30
0
 11
220.2
 21
745.455
 31
0
  0
ARC
  5
D16
330
A02
100
AcDbEntity
  8
Shape2DView005
100
AcDbCircle
 10
220.033
 20
749.833
 30
0
 40
0.333333
100
AcDbArc
 50
-60
 51
150
  0
LINE
  5
D17
330
A02
100
AcDbEntity
  8
Shape2DView005
100
AcDbLine
 10
219.745
 20
750
 30
0
 11
210.655
 21
750
 31
0
  0
ARC
  5
D18
330
A02
100
AcDbEntity
  8
Shape2DView005
100
AcDbCircle
 10
210.367
 20
749.833
 30
0
 40
0.333333
100
AcDbArc
 50
30
 51
-120
  0
LINE
  5
D19
330
A02
100
AcDbEntity
  8
Shape2DView005
100
AcDbLine
 10
210.2
 20
749.545
 30
0
 11
210.2
 21
745.455
 31
0
  0
CIRCLE
  5
D1A
330
A02
100
AcDbEntity
  8
Shape2DView005
100
AcDbCircle
 10
228
 20
740
 40
1.25
  0
CIRCLE
  5
D1B
330
A02
100
AcDbEntity
  8
Shape2DView005
100
AcDbCircle
 10
238
 20
660
 40
1.25
  0
CIRCLE
  5
D1C
330
A02
100
AcDbEntity
  8
Shape2DView005
100
AcDbCircle
 10
238
 20
670
 40
1.25
  0
CIRCLE
  5
D1D
330
A02
100
AcDbEntity
  8
Shape2DView005
100
AcDbCircle
 10
248
 20
660
 40
1.25
  0
CIRCLE
  5
D1E
330
A02
100
AcDbEntity
  8
Shape2DView005
100
AcDbCircle
 10
258
 20
660
 40
1.25
  0
CIRCLE
  5
D1F
330
A02
100
AcDbEntity
  8
Shape2DView005
100
AcDbCircle
 10
248
 20
670
 40
1.25
  0
CIRCLE
  5
D20
330
A02
100
AcDbEntity
  8
Shape2DView005
100
AcDbCircle
 10
258
 20
670
 40
1.25
  0
CIRCLE
  5
D21
330
A02
100
AcDbEntity
  8
Shape2DView005
100
AcDbCircle
 10
238
 20
680
 40
1.25
  0
CIRCLE
  5
D22
330
A02
100
AcDbEntity
  8
Shape2DView005
100
AcDbCircle
 10
238
 20
690
 40
1.25
  0
CIRCLE
  5
D23
330
A02
100
AcDbEntity
  8
Shape2DView005
100
AcDbCircle
 10
238
 20
700
 40
1.25
  0
CIRCLE
  5
D24
330
A02
100
AcDbEntity
  8
Shape2DView005
100
AcDbCircle
 10
248
 20
680
 40
1.25
  0
CIRCLE
  5
D25
330
A02
100
AcDbEntity
  8
Shape2DView005
100
AcDbCircle
 10
248
 20
690
 40
1.25
  0
CIRCLE
  5
D26
330
A02
100
AcDbEntity
  8
Shape2DView005
100
AcDbCircle
 10
258
 20
680
 40
1.25
  0
CIRCLE
  5
D27
330
A02
100
AcDbEntity
  8
Shape2DView005
100
AcDbCircle
 10
258
 20
690
 40
1.25
  0
CIRCLE
  5
D28
330
A02
100
AcDbEntity
  8
Shape2DView005
100
AcDbCircle
 10
248
 20
700
 40
1.25
  0
CIRCLE
  5
D29
330
A02
100
AcDbEntity
  8
Shape2DView005
100
AcDbCircle
 10
258
 20
700
 40
1.25
  0
CIRCLE
  5
D2A
330
A02
100
AcDbEntity
  8
Shape2DView005
100
AcDbCircle
 10
268
 20
660
 40
1.25
  0
CIRCLE
  5
D2B
330
A02
100
AcDbEntity
  8
Shape2DView005
100
AcDbCircle
 10
268
 20
670
 40
1.25
  0
CIRCLE
  5
D2C
330
A02
100
AcDbEntity
  8
Shape2DView005
100
AcDbCircle
 10
278
 20
660
 40
1.25
  0
CIRCLE
  5
D2D
330
A02
100
AcDbEntity
  8
Shape2DView005
100
AcDbCircle
 10
278
 20
670
 40
1.25
  0
CIRCLE
  5
D2E
330
A02
100
AcDbEntity
  8
Shape2DView005
100
AcDbCircle
 10
268
 20
680
 40
1.25
  0
CIRCLE
  5
D2F
330
A02
100
AcDbEntity
  8
Shape2DView005
100
AcDbCircle
 10
268
 20
690
 40
1.25
  0
CIRCLE
  5
D30
330
A02
100
AcDbEntity
  8
Shape2DView005
100
AcDbCircle
 10
268
 20
700
 40
1.25
  0
CIRCLE
  5
D31
330
A02
100
AcDbEntity
  8
Shape2DView005
100
AcDbCircle
 10
278
 20
680
 40
1.25
  0
CIRCLE
  5
D32
330
A02
100
AcDbEntity
  8
Shape2DView005
100
AcDbCircle
 10
278
 20
690
 40
1.25
  0
CIRCLE
  5
D33
330
A02
100
AcDbEntity
  8
Shape2DView005
100
AcDbCircle
 10
278
 20
700
 40
1.25
  0
CIRCLE
  5
D34
330
A02
100
AcDbEntity
  8
Shape2DView005
100
AcDbCircle
 10
238
 20
710
 40
1.25
  0
CIRCLE
  5
D35
330
A02
100
AcDbEntity
  8
Shape2DView005
100
AcDbCircle
 10
238
 20
720
 40
1.25
  0
CIRCLE
  5
D36
330
A02
100
AcDbEntity
  8
Shape2DView005
100
AcDbCircle
 10
238
 20
730
 40
1.25
  0
CIRCLE
  5
D37
330
A02
100
AcDbEntity
  8
Shape2DView005
100
AcDbCircle
 10
248
 20
710
 40
1.25
  0
CIRCLE
  5
D38
330
A02
100
AcDbEntity
  8
Shape2DView005
100
AcDbCircle
 10
258
 20
710
 40
1.25
  0
CIRCLE
  5
D39
330
A02
100
AcDbEntity
  8
Shape2DView005
100
AcDbCircle
 10
248
 20
720
 40
1.25
  0
CIRCLE
  5
D3A
330
A02
100
AcDbEntity
  8
Shape2DView005
100
AcDbCircle
 10
248
 20
730
 40
1.25
  0
CIRCLE
  5
D3B
330
A02
100
AcDbEntity
  8
Shape2DView005
100
AcDbCircle
 10
258
 20
720
 40
1.25
  0
CIRCLE
  5
D3C
330
A02
100
AcDbEntity
  8
Shape2DView005
100
AcDbCircle
 10
258
 20
730
 40
1.25
  0
CIRCLE
  5
D3D
330
A02
100
AcDbEntity
  8
Shape2DView005
100
AcDbCircle
 10
238
 20
740
 40
1.25
  0
ARC
  5
D3E
330
A02
100
AcDbEntity
  8
Shape2DView005
100
AcDbCircle
 10
231.167
 20
745.167
 30
0
 40
0.333333
100
AcDbArc
 50
120
 51
-90
  0
ARC
  5
D3F
330
A02
100
AcDbEntity
  8
Shape2DView005
100
AcDbCircle
 10
231.167
 20
745.167
 30
0
 40
0.333333
100
AcDbArc
 50
-90
 51
-30
  0
LINE
  5
D40
330
A02
100
AcDbEntity
  8
Shape2DView005
100
AcDbLine
 10
240.545
 20
745
 30
0
 11
231.455
 21
745
 31
0
  0
ARC
  5
D41
330
A02
100
AcDbEntity
  8
Shape2DView005
100
AcDbCircle
 10
240.833
 20
745.167
 30
0
 40
0.333333
100
AcDbArc
 50
-150
 51
-90
  0
ARC
  5
D42
330
A02
100
AcDbEntity
  8
Shape2DView005
100
AcDbCircle
 10
240.833
 20
745.167
 30
0
 40
0.333333
100
AcDbArc
 50
-90
 51
60
  0
LINE
  5
D43
330
A02
100
AcDbEntity
  8
Shape2DView005
100
AcDbLine
 10
241
 20
749.545
 30
0
 11
241
 21
745.455
 31
0
  0
ARC
  5
D44
330
A02
100
AcDbEntity
  8
Shape2DView005
100
AcDbCircle
 10
240.833
 20
749.833
 30
0
 40
0.333333
100
AcDbArc
 50
-60
 51
150
  0
LINE
  5
D45
330
A02
100
AcDbEntity
  8
Shape2DView005
100
AcDbLine
 10
240.545
 20
750
 30
0
 11
231.455
 21
750
 31
0
  0
ARC
  5
D46
330
A02
100
AcDbEntity
  8
Shape2DView005
100
AcDbCircle
 10
231.167
 20
749.833
 30
0
 40
0.333333
100
AcDbArc
 50
30
 51
-120
  0
LINE
  5
D47
330
A02
100
AcDbEntity
  8
Shape2DView005
100
AcDbLine
 10
231
 20
749.545
 30
0
 11
231
 21
745.455
 31
0
  0
CIRCLE
  5
D48
330
A02
100
AcDbEntity
  8
Shape2DView005
100
AcDbCircle
 10
248
 20
740
 40
1.25
  0
CIRCLE
  5
D49
330
A02
100
AcDbEntity
  8
Shape2DView005
100
AcDbCircle
 10
258
 20
740
 40
1.25
  0
ARC
  5
D4A
330
A02
100
AcDbEntity
  8
Shape2DView005
100
AcDbCircle
 10
251.967
 20
745.167
 30
0
 40
0.333333
100
AcDbArc
 50
120
 51
-90
  0
ARC
  5
D4B
330
A02
100
AcDbEntity
  8
Shape2DView005
100
AcDbCircle
 10
251.967
 20
745.167
 30
0
 40
0.333333
100
AcDbArc
 50
-90
 51
-30
  0
LINE
  5
D4C
330
A02
100
AcDbEntity
  8
Shape2DView005
100
AcDbLine
 10
261.345
 20
745
 30
0
 11
252.255
 21
745
 31
0
  0
ARC
  5
D4D
330
A02
100
AcDbEntity
  8
Shape2DView005
100
AcDbCircle
 10
261.633
 20
745.167
 30
0
 40
0.333333
100
AcDbArc
 50
-150
 51
-90
  0
ARC
  5
D4E
330
A02
100
AcDbEntity
  8
Shape2DView005
100
AcDbCircle
 10
261.633
 20
745.167
 30
0
 40
0.333333
100
AcDbArc
 50
-90
 51
60
  0
LINE
  5
D4F
330
A02
100
AcDbEntity
  8
Shape2DView005
100
AcDbLine
 10
261.8
 20
749.545
 30
0
 11
261.8
 21
745.455
 31
0
  0
ARC
  5
D50
330
A02
100
AcDbEntity
  8
Shape2DView005
100
AcDbCircle
 10
261.633
 20
749.833
 30
0
 40
0.333333
100
AcDbArc
 50
-60
 51
150
  0
LINE
  5
D51
330
A02
100
AcDbEntity
  8
Shape2DView005
100
AcDbLine
 10
261.345
 20
750
 30
0
 11
252.255
 21
750
 31
0
  0
ARC
  5
D52
330
A02
100
AcDbEntity
  8
Shape2DView005
100
AcDbCircle
 10
251.967
 20
749.833
 30
0
 40
0.333333
100
AcDbArc
 50
30
 51
-120
  0
LINE
  5
D53
330
A02
100
AcDbEntity
  8
Shape2DView005
100
AcDbLine
 10
251.8
 20
749.545
 30
0
 11
251.8
 21
745.455
 31
0
  0
CIRCLE
  5
D54
330
A02
100
AcDbEntity
  8
Shape2DView005
100
AcDbCircle
 10
268
 20
710
 40
1.25
  0
CIRCLE
  5
D55
330
A02
100
AcDbEntity
  8
Shape2DView005
100
AcDbCircle
 10
268
 20
720
 40
1.25
  0
CIRCLE
  5
D56
330
A02
100
AcDbEntity
  8
Shape2DView005
100
AcDbCircle
 10
268
 20
730
 40
1.25
  0
CIRCLE
  5
D57
330
A02
100
AcDbEntity
  8
Shape2DView005
100
AcDbCircle
 10
278
 20
710
 40
1.25
  0
CIRCLE
  5
D58
330
A02
100
AcDbEntity
  8
Shape2DView005
100
AcDbCircle
 10
278
 20
720
 40
1.25
  0
CIRCLE
  5
D59
330
A02
100
AcDbEntity
  8
Shape2DView005
100
AcDbCircle
 10
278
 20
730
 40
1.25
  0
CIRCLE
  5
D5A
330
A02
100
AcDbEntity
  8
Shape2DView005
100
AcDbCircle
 10
268
 20
740
 40
1.25
  0
CIRCLE
  5
D5B
330
A02
100
AcDbEntity
  8
Shape2DView005
100
AcDbCircle
 10
278
 20
740
 40
1.25
  0
ARC
  5
D5C
330
A02
100
AcDbEntity
  8
Shape2DView005
100
AcDbCircle
 10
272.767
 20
745.167
 30
0
 40
0.333333
100
AcDbArc
 50
120
 51
-90
  0
ARC
  5
D5D
330
A02
100
AcDbEntity
  8
Shape2DView005
100
AcDbCircle
 10
272.767
 20
745.167
 30
0
 40
0.333333
100
AcDbArc
 50
-90
 51
-30
  0
LINE
  5
D5E
330
A02
100
AcDbEntity
  8
Shape2DView005
100
AcDbLine
 10
282.145
 20
745
 30
0
 11
273.055
 21
745
 31
0
  0
ARC
  5
D5F
330
A02
100
AcDbEntity
  8
Shape2DView005
100
AcDbCircle
 10
282.433
 20
745.167
 30
0
 40
0.333333
100
AcDbArc
 50
-150
 51
-90
  0
ARC
  5
D60
330
A02
100
AcDbEntity
  8
Shape2DView005
100
AcDbCircle
 10
282.433
 20
745.167
 30
0
 40
0.333333
100
AcDbArc
 50
-90
 51
60
  0
LINE
  5
D61
330
A02
100
AcDbEntity
  8
Shape2DView005
100
AcDbLine
 10
282.6
 20
749.545
 30
0
 11
282.6
 21
745.455
 31
0
  0
ARC
  5
D62
330
A02
100
AcDbEntity
  8
Shape2DView005
100
AcDbCircle
 10
282.433
 20
749.833
 30
0
 40
0.333333
100
AcDbArc
 50
-60
 51
150
  0
LINE
  5
D63
330
A02
100
AcDbEntity
  8
Shape2DView005
100
AcDbLine
 10
282.145
 20
750
 30
0
 11
273.055
 21
750
 31
0
  0
ARC
  5
D64
330
A02
100
AcDbEntity
  8
Shape2DView005
100
AcDbCircle
 10
272.767
 20
749.833
 30
0
 40
0.333333
100
AcDbArc
 50
30
 51
-120
  0
LINE
  5
D65
330
A02
100
AcDbEntity
  8
Shape2DView005
100
AcDbLine
 10
272.6
 20
749.545
 30
0
 11
272.6
 21
745.455
 31
0
  0
CIRCLE
  5
D66
330
A02
100
AcDbEntity
  8
Shape2DView005
100
AcDbCircle
 10
126.5
 20
845.5
 40
1.5
  0
CIRCLE
  5
D67
330
A02
100
AcDbEntity
  8
Shape2DView005
100
AcDbCircle
 10
126.5
 20
900.5
 40
1.5
  0
CIRCLE
  5
D68
330
A02
100
AcDbEntity
  8
Shape2DView005
100
AcDbCircle
 10
85
 20
975
 40
1.5
  0
CIRCLE
  5
D69
330
A02
100
AcDbEntity
  8
Shape2DView005
100
AcDbCircle
 10
212.5
 20
787.5
 40
2
  0
CIRCLE
  5
D6A
330
A02
100
AcDbEntity
  8
Shape2DView005
100
AcDbCircle
 10
262.5
 20
787.5
 40
2
  0
CIRCLE
  5
D6B
330
A02
100
AcDbEntity
  8
Shape2DView005
100
AcDbCircle
 10
212.5
 20
937.5
 40
2
  0
CIRCLE
  5
D6C
330
A02
100
AcDbEntity
  8
Shape2DView005
100
AcDbCircle
 10
262.5
 20
937.5
 40
2
  0
CIRCLE
  5
D6D
330
A02
100
AcDbEntity
  8
Shape2DView005
100
AcDbCircle
 10
283
 20
975
 40
1.5
  0
LINE
  5
D6E
330
A02
100
AcDbEntity
  8
Shape2DView004
100
AcDbLine
 10
2.55795e-13
 20
549.8
 30
0
 11
2.67297e-13
 21
535
 31
0
  0
LINE
  5
D6F
330
A02
100
AcDbEntity
  8
Shape2DView004
100
AcDbLine
 10
2.55795e-13
 20
549.8
 30
0
 11
4.2
 21
549.8
 31
0
  0
LINE
  5
D70
330
A02
100
AcDbEntity
  8
Shape2DView004
100
AcDbLine
 10
2.70006e-13
 20
535
 30
0
 11
5
 21
535
 31
0
  0
LINE
  5
D71
330
A02
100
AcDbEntity
  8
Shape2DView004
100
AcDbLine
 10
4.2
 20
549.8
 30
0
 11
4.2
 21
560.2
 31
0
  0
LINE
  5
D72
330
A02
100
AcDbEntity
  8
Shape2DView004
100
AcDbLine
 10
5
 20
535
 30
0
 11
5
 21
539.531
 31
0
  0
LINE
  5
D73
330
A02
100
AcDbEntity
  8
Shape2DView004
100
AcDbLine
 10
4.2
 20
560.2
 30
0
 11
2.62901e-13
 21
560.2
 31
0
  0
LINE
  5
D74
330
A02
100
AcDbEntity
  8
Shape2DView004
100
AcDbLine
 10
2.55795e-13
 20
560.2
 30
0
 11
2.11431e-13
 21
599
 31
0
  0
LINE
  5
D75
330
A02
100
AcDbEntity
  8
Shape2DView004
100
AcDbLine
 10
12.5
 20
599
 30
0
 11
2.20268e-13
 21
599
 31
0
  0
ARC
  5
D76
330
A02
100
AcDbEntity
  8
Shape2DView004
100
AcDbCircle
 10
12.5
 20
606.5
 30
0
 40
7.5
100
AcDbArc
 50
-90
 51
0
  0
LINE
  5
D77
330
A02
100
AcDbEntity
  8
Shape2DView004
100
AcDbLine
 10
20
 20
621.5
 30
0
 11
20
 21
606.5
 31
0
  0
ARC
  5
D78
330
A02
100
AcDbEntity
  8
Shape2DView004
100
AcDbCircle
 10
12.5
 20
621.5
 30
0
 40
7.5
100
AcDbArc
 50
0
 51
90
  0
LINE
  5
D79
330
A02
100
AcDbEntity
  8
Shape2DView004
100
AcDbLine
 10
1.98952e-13
 20
629
 30
0
 11
12.5
 21
629
 31
0
  0
LINE
  5
D7A
330
A02
100
AcDbEntity
  8
Shape2DView004
100
AcDbLine
 10
1.27898e-13
 20
724.8
 30
0
 11
2.02349e-13
 21
629
 31
0
  0
LINE
  5
D7B
330
A02
100
AcDbEntity
  8
Shape2DView004
100
AcDbLine
 10
1.27898e-13
 20
724.8
 30
0
 11
4.2
 21
724.8
 31
0
  0
LINE
  5
D7C
330
A02
100
AcDbEntity
  8
Shape2DView004
100
AcDbLine
 10
4.2
 20
724.8
 30
0
 11
4.2
 21
735.2
 31
0
  0
LINE
  5
D7D
330
A02
100
AcDbEntity
  8
Shape2DView004
100
AcDbLine
 10
4.2
 20
735.2
 30
0
 11
1.13687e-13
 21
735.2
 31
0
  0
LINE
  5
D7E
330
A02
100
AcDbEntity
  8
Shape2DView004
100
AcDbLine
 10
1.10978e-13
 20
745
 30
0
 11
1.18594e-13
 21
735.2
 31
0
  0
LINE
  5
D7F
330
A02
100
AcDbEntity
  8
Shape2DView004
100
AcDbLine
 10
1.19016e-13
 20
745
 30
0
 11
19.5447
 21
745
 31
0
  0
ARC
  5
D80
330
A02
100
AcDbEntity
  8
Shape2DView004
100
AcDbCircle
 10
5.17167
 20
539.828
 30
0
 40
0.343333
100
AcDbArc
 50
90
 51
-120
  0
ARC
  5
D81
330
A02
100
AcDbEntity
  8
Shape2DView004
100
AcDbCircle
 10
5.17167
 20
539.828
 30
0
 40
0.343333
100
AcDbArc
 50
30
 51
90
  0
LINE
  5
D82
330
A02
100
AcDbEntity
  8
Shape2DView004
100
AcDbLine
 10
14.531
 20
540
 30
0
 11
5.469
 21
540
 31
0
  0
ARC
  5
D83
330
A02
100
AcDbEntity
  8
Shape2DView004
100
AcDbCircle
 10
14.8283
 20
539.828
 30
0
 40
0.343333
100
AcDbArc
 50
90
 51
150
  0
ARC
  5
D84
330
A02
100
AcDbEntity
  8
Shape2DView004
100
AcDbCircle
 10
14.8283
 20
539.828
 30
0
 40
0.343333
100
AcDbArc
 50
-60
 51
90
  0
LINE
  5
D85
330
A02
100
AcDbEntity
  8
Shape2DView004
100
AcDbLine
 10
15
 20
535
 30
0
 11
15
 21
539.531
 31
0
  0
LINE
  5
D86
330
A02
100
AcDbEntity
  8
Shape2DView004
100
AcDbLine
 10
15
 20
535
 30
0
 11
25
 21
535
 31
0
  0
LINE
  5
D87
330
A02
100
AcDbEntity
  8
Shape2DView004
100
AcDbLine
 10
25
 20
535
 30
0
 11
25
 21
539.531
 31
0
  0
ARC
  5
D88
330
A02
100
AcDbEntity
  8
Shape2DView004
100
AcDbCircle
 10
25.1717
 20
539.828
 30
0
 40
0.343333
100
AcDbArc
 50
90
 51
-120
  0
ARC
  5
D89
330
A02
100
AcDbEntity
  8
Shape2DView004
100
AcDbCircle
 10
25.1717
 20
539.828
 30
0
 40
0.343333
100
AcDbArc
 50
30
 51
90
  0
LINE
  5
D8A
330
A02
100
AcDbEntity
  8
Shape2DView004
100
AcDbLine
 10
34.531
 20
540
 30
0
 11
25.469
 21
540
 31
0
  0
ARC
  5
D8B
330
A02
100
AcDbEntity
  8
Shape2DView004
100
AcDbCircle
 10
34.8283
 20
539.828
 30
0
 40
0.343333
100
AcDbArc
 50
90
 51
150
  0
ARC
  5
D8C
330
A02
100
AcDbEntity
  8
Shape2DView004
100
AcDbCircle
 10
34.8283
 20
539.828
 30
0
 40
0.343333
100
AcDbArc
 50
-60
 51
90
  0
LINE
  5
D8D
330
A02
100
AcDbEntity
  8
Shape2DView004
100
AcDbLine
 10
35
 20
535
 30
0
 11
35
 21
539.531
 31
0
  0
LINE
  5
D8E
330
A02
100
AcDbEntity
  8
Shape2DView004
100
AcDbLine
 10
35
 20
535
 30
0
 11
45
 21
535
 31
0
  0
LINE
  5
D8F
330
A02
100
AcDbEntity
  8
Shape2DView004
100
AcDbLine
 10
45
 20
535
 30
0
 11
45
 21
539.531
 31
0
  0
ARC
  5
D90
330
A02
100
AcDbEntity
  8
Shape2DView004
100
AcDbCircle
 10
45.1717
 20
539.828
 30
0
 40
0.343333
100
AcDbArc
 50
90
 51
-120
  0
ARC
  5
D91
330
A02
100
AcDbEntity
  8
Shape2DView004
100
AcDbCircle
 10
45.1717
 20
539.828
 30
0
 40
0.343333
100
AcDbArc
 50
30
 51
90
  0
LINE
  5
D92
330
A02
100
AcDbEntity
  8
Shape2DView004
100
AcDbLine
 10
54.531
 20
540
 30
0
 11
45.469
 21
540
 31
0
  0
ARC
  5
D93
330
A02
100
AcDbEntity
  8
Shape2DView004
100
AcDbCircle
 10
54.8283
 20
539.828
 30
0
 40
0.343333
100
AcDbArc
 50
90
 51
150
  0
ARC
  5
D94
330
A02
100
AcDbEntity
  8
Shape2DView004
100
AcDbCircle
 10
54.8283
 20
539.828
 30
0
 40
0.343333
100
AcDbArc
 50
-60
 51
90
  0
LINE
  5
D95
330
A02
100
AcDbEntity
  8
Shape2DView004
100
AcDbLine
 10
55
 20
535
 30
0
 11
55
 21
539.531
 31
0
  0
LINE
  5
D96
330
A02
100
AcDbEntity
  8
Shape2DView004
100
AcDbLine
 10
55
 20
535
 30
0
 11
60
 21
535
 31
0
  0
LINE
  5
D97
330
A02
100
AcDbEntity
  8
Shape2DView004
100
AcDbLine
 10
60
 20
535
 30
0
 11
60
 21
540.077
 31
0
  0
LINE
  5
D98
330
A02
100
AcDbEntity
  8
Shape2DView004
100
AcDbLine
 10
60
 20
540.077
 30
0
 11
65
 21
540.077
 31
0
  0
LINE
  5
D99
330
A02
100
AcDbEntity
  8
Shape2DView004
100
AcDbLine
 10
65
 20
550.377
 30
0
 11
65
 21
540.077
 31
0
  0
LINE
  5
D9A
330
A02
100
AcDbEntity
  8
Shape2DView004
100
AcDbLine
 10
60
 20
550.377
 30
0
 11
65
 21
550.377
 31
0
  0
LINE
  5
D9B
330
A02
100
AcDbEntity
  8
Shape2DView004
100
AcDbLine
 10
60
 20
550.377
 30
0
 11
60
 21
560.532
 31
0
  0
LINE
  5
D9C
330
A02
100
AcDbEntity
  8
Shape2DView004
100
AcDbLine
 10
60
 20
560.532
 30
0
 11
65
 21
560.532
 31
0
  0
LINE
  5
D9D
330
A02
100
AcDbEntity
  8
Shape2DView004
100
AcDbLine
 10
65
 20
570.832
 30
0
 11
65
 21
560.532
 31
0
  0
LINE
  5
D9E
330
A02
100
AcDbEntity
  8
Shape2DView004
100
AcDbLine
 10
60
 20
570.832
 30
0
 11
65
 21
570.832
 31
0
  0
LINE
  5
D9F
330
A02
100
AcDbEntity
  8
Shape2DView004
100
AcDbLine
 10
60
 20
570.832
 30
0
 11
60
 21
580.986
 31
0
  0
LINE
  5
DA0
330
A02
100
AcDbEntity
  8
Shape2DView004
100
AcDbLine
 10
60
 20
580.986
 30
0
 11
65
 21
580.986
 31
0
  0
LINE
  5
DA1
330
A02
100
AcDbEntity
  8
Shape2DView004
100
AcDbLine
 10
65
 20
591.286
 30
0
 11
65
 21
580.986
 31
0
  0
LINE
  5
DA2
330
A02
100
AcDbEntity
  8
Shape2DView004
100
AcDbLine
 10
60
 20
591.286
 30
0
 11
65
 21
591.286
 31
0
  0
LINE
  5
DA3
330
A02
100
AcDbEntity
  8
Shape2DView004
100
AcDbLine
 10
60
 20
591.286
 30
0
 11
60
 21
601.441
 31
0
  0
LINE
  5
DA4
330
A02
100
AcDbEntity
  8
Shape2DView004
100
AcDbLine
 10
60
 20
601.441
 30
0
 11
65
 21
601.441
 31
0
  0
LINE
  5
DA5
330
A02
100
AcDbEntity
  8
Shape2DView004
100
AcDbLine
 10
65
 20
611.741
 30
0
 11
65
 21
601.441
 31
0
  0
LINE
  5
DA6
330
A02
100
AcDbEntity
  8
Shape2DView004
100
AcDbLine
 10
60
 20
611.741
 30
0
 11
65
 21
611.741
 31
0
  0
LINE
  5
DA7
330
A02
100
AcDbEntity
  8
Shape2DView004
100
AcDbLine
 10
60
 20
611.741
 30
0
 11
60
 21
621.895
 31
0
  0
LINE
  5
DA8
330
A02
100
AcDbEntity
  8
Shape2DView004
100
AcDbLine
 10
60
 20
621.895
 30
0
 11
65
 21
621.895
 31
0
  0
LINE
  5
DA9
330
A02
100
AcDbEntity
  8
Shape2DView004
100
AcDbLine
 10
65
 20
632.195
 30
0
 11
65
 21
621.895
 31
0
  0
LINE
  5
DAA
330
A02
100
AcDbEntity
  8
Shape2DView004
100
AcDbLine
 10
60
 20
632.195
 30
0
 11
65
 21
632.195
 31
0
  0
LINE
  5
DAB
330
A02
100
AcDbEntity
  8
Shape2DView004
100
AcDbLine
 10
60
 20
632.195
 30
0
 11
60
 21
642.35
 31
0
  0
LINE
  5
DAC
330
A02
100
AcDbEntity
  8
Shape2DView004
100
AcDbLine
 10
60
 20
642.35
 30
0
 11
65
 21
642.35
 31
0
  0
LINE
  5
DAD
330
A02
100
AcDbEntity
  8
Shape2DView004
100
AcDbLine
 10
65
 20
652.65
 30
0
 11
65
 21
642.35
 31
0
  0
LINE
  5
DAE
330
A02
100
AcDbEntity
  8
Shape2DView004
100
AcDbLine
 10
60
 20
652.65
 30
0
 11
65
 21
652.65
 31
0
  0
LINE
  5
DAF
330
A02
100
AcDbEntity
  8
Shape2DView004
100
AcDbLine
 10
60
 20
652.65
 30
0
 11
60
 21
662.805
 31
0
  0
LINE
  5
DB0
330
A02
100
AcDbEntity
  8
Shape2DView004
100
AcDbLine
 10
60
 20
662.805
 30
0
 11
65
 21
662.805
 31
0
  0
LINE
  5
DB1
330
A02
100
AcDbEntity
  8
Shape2DView004
100
AcDbLine
 10
65
 20
673.105
 30
0
 11
65
 21
662.805
 31
0
  0
LINE
  5
DB2
330
A02
100
AcDbEntity
  8
Shape2DView004
100
AcDbLine
 10
60
 20
673.105
 30
0
 11
65
 21
673.105
 31
0
  0
LINE
  5
DB3
330
A02
100
AcDbEntity
  8
Shape2DView004
100
AcDbLine
 10
60
 20
673.105
 30
0
 11
60
 21
683.259
 31
0
  0
LINE
  5
DB4
330
A02
100
AcDbEntity
  8
Shape2DView004
100
AcDbLine
 10
60
 20
683.259
 30
0
 11
65
 21
683.259
 31
0
  0
LINE
  5
DB5
330
A02
100
AcDbEntity
  8
Shape2DView004
100
AcDbLine
 10
65
 20
693.559
 30
0
 11
65
 21
683.259
 31
0
  0
LINE
  5
DB6
330
A02
100
AcDbEntity
  8
Shape2DView004
100
AcDbLine
 10
60
 20
693.559
 30
0
 11
65
 21
693.559
 31
0
  0
LINE
  5
DB7
330
A02
100
AcDbEntity
  8
Shape2DView004
100
AcDbLine
 10
60
 20
693.559
 30
0
 11
60
 21
703.714
 31
0
  0
LINE
  5
DB8
330
A02
100
AcDbEntity
  8
Shape2DView004
100
AcDbLine
 10
60
 20
703.714
 30
0
 11
65
 21
703.714
 31
0
  0
LINE
  5
DB9
330
A02
100
AcDbEntity
  8
Shape2DView004
100
AcDbLine
 10
65
 20
714.014
 30
0
 11
65
 21
703.714
 31
0
  0
LINE
  5
DBA
330
A02
100
AcDbEntity
  8
Shape2DView004
100
AcDbLine
 10
60
 20
714.014
 30
0
 11
65
 21
714.014
 31
0
  0
LINE
  5
DBB
330
A02
100
AcDbEntity
  8
Shape2DView004
100
AcDbLine
 10
60
 20
714.014
 30
0
 11
60
 21
724.168
 31
0
  0
LINE
  5
DBC
330
A02
100
AcDbEntity
  8
Shape2DView004
100
AcDbLine
 10
60
 20
724.168
 30
0
 11
65
 21
724.168
 31
0
  0
LINE
  5
DBD
330
A02
100
AcDbEntity
  8
Shape2DView004
100
AcDbLine
 10
65
 20
734.468
 30
0
 11
65
 21
724.168
 31
0
  0
LINE
  5
DBE
330
A02
100
AcDbEntity
  8
Shape2DView004
100
AcDbLine
 10
60
 20
734.468
 30
0
 11
65
 21
734.468
 31
0
  0
LINE
  5
DBF
330
A02
100
AcDbEntity
  8
Shape2DView004
100
AcDbLine
 10
60
 20
734.468
 30
0
 11
60
 21
744.623
 31
0
  0
LINE
  5
DC0
330
A02
100
AcDbEntity
  8
Shape2DView004
100
AcDbLine
 10
60
 20
744.623
 30
0
 11
65
 21
744.623
 31
0
  0
LINE
  5
DC1
330
A02
100
AcDbEntity
  8
Shape2DView004
100
AcDbLine
 10
65
 20
754.923
 30
0
 11
65
 21
744.623
 31
0
  0
LINE
  5
DC2
330
A02
100
AcDbEntity
  8
Shape2DView004
100
AcDbLine
 10
60
 20
754.923
 30
0
 11
65
 21
754.923
 31
0
  0
LINE
  5
DC3
330
A02
100
AcDbEntity
  8
Shape2DView004
100
AcDbLine
 10
60
 20
754.923
 30
0
 11
60
 21
765.077
 31
0
  0
LINE
  5
DC4
330
A02
100
AcDbEntity
  8
Shape2DView004
100
AcDbLine
 10
60
 20
765.077
 30
0
 11
65
 21
765.077
 31
0
  0
LINE
  5
DC5
330
A02
100
AcDbEntity
  8
Shape2DView004
100
AcDbLine
 10
65
 20
775.377
 30
0
 11
65
 21
765.077
 31
0
  0
LINE
  5
DC6
330
A02
100
AcDbEntity
  8
Shape2DView004
100
AcDbLine
 10
60
 20
775.377
 30
0
 11
65
 21
775.377
 31
0
  0
LINE
  5
DC7
330
A02
100
AcDbEntity
  8
Shape2DView004
100
AcDbLine
 10
60
 20
775.377
 30
0
 11
60
 21
785.532
 31
0
  0
LINE
  5
DC8
330
A02
100
AcDbEntity
  8
Shape2DView004
100
AcDbLine
 10
60
 20
785.532
 30
0
 11
65
 21
785.532
 31
0
  0
LINE
  5
DC9
330
A02
100
AcDbEntity
  8
Shape2DView004
100
AcDbLine
 10
65
 20
795.832
 30
0
 11
65
 21
785.532
 31
0
  0
LINE
  5
DCA
330
A02
100
AcDbEntity
  8
Shape2DView004
100
AcDbLine
 10
60
 20
795.832
 30
0
 11
65
 21
795.832
 31
0
  0
LINE
  5
DCB
330
A02
100
AcDbEntity
  8
Shape2DView004
100
AcDbLine
 10
60
 20
795.832
 30
0
 11
60
 21
805.986
 31
0
  0
LINE
  5
DCC
330
A02
100
AcDbEntity
  8
Shape2DView004
100
AcDbLine
 10
60
 20
805.986
 30
0
 11
65
 21
805.986
 31
0
  0
LINE
  5
DCD
330
A02
100
AcDbEntity
  8
Shape2DView004
100
AcDbLine
 10
65
 20
816.286
 30
0
 11
65
 21
805.986
 31
0
  0
LINE
  5
DCE
330
A02
100
AcDbEntity
  8
Shape2DView004
100
AcDbLine
 10
60
 20
816.286
 30
0
 11
65
 21
816.286
 31
0
  0
LINE
  5
DCF
330
A02
100
AcDbEntity
  8
Shape2DView004
100
AcDbLine
 10
60
 20
816.286
 30
0
 11
60
 21
826.441
 31
0
  0
LINE
  5
DD0
330
A02
100
AcDbEntity
  8
Shape2DView004
100
AcDbLine
 10
60
 20
826.441
 30
0
 11
65
 21
826.441
 31
0
  0
LINE
  5
DD1
330
A02
100
AcDbEntity
  8
Shape2DView004
100
AcDbLine
 10
65
 20
836.741
 30
0
 11
65
 21
826.441
 31
0
  0
LINE
  5
DD2
330
A02
100
AcDbEntity
  8
Shape2DView004
100
AcDbLine
 10
60
 20
836.741
 30
0
 11
65
 21
836.741
 31
0
  0
LINE
  5
DD3
330
A02
100
AcDbEntity
  8
Shape2DView004
100
AcDbLine
 10
60
 20
836.741
 30
0
 11
60
 21
846.895
 31
0
  0
LINE
  5
DD4
330
A02
100
AcDbEntity
  8
Shape2DView004
100
AcDbLine
 10
60
 20
846.895
 30
0
 11
65
 21
846.895
 31
0
  0
LINE
  5
DD5
330
A02
100
AcDbEntity
  8
Shape2DView004
100
AcDbLine
 10
65
 20
857.195
 30
0
 11
65
 21
846.895
 31
0
  0
LINE
  5
DD6
330
A02
100
AcDbEntity
  8
Shape2DView004
100
AcDbLine
 10
60
 20
857.195
 30
0
 11
65
 21
857.195
 31
0
  0
LINE
  5
DD7
330
A02
100
AcDbEntity
  8
Shape2DView004
100
AcDbLine
 10
60
 20
857.195
 30
0
 11
60
 21
867.35
 31
0
  0
LINE
  5
DD8
330
A02
100
AcDbEntity
  8
Shape2DView004
100
AcDbLine
 10
60
 20
867.35
 30
0
 11
65
 21
867.35
 31
0
  0
LINE
  5
DD9
330
A02
100
AcDbEntity
  8
Shape2DView004
100
AcDbLine
 10
65
 20
877.65
 30
0
 11
65
 21
867.35
 31
0
  0
LINE
  5
DDA
330
A02
100
AcDbEntity
  8
Shape2DView004
100
AcDbLine
 10
60
 20
877.65
 30
0
 11
65
 21
877.65
 31
0
  0
LINE
  5
DDB
330
A02
100
AcDbEntity
  8
Shape2DView004
100
AcDbLine
 10
60
 20
877.65
 30
0
 11
60
 21
887.805
 31
0
  0
LINE
  5
DDC
330
A02
100
AcDbEntity
  8
Shape2DView004
100
AcDbLine
 10
60
 20
887.805
 30
0
 11
65
 21
887.805
 31
0
  0
LINE
  5
DDD
330
A02
100
AcDbEntity
  8
Shape2DView004
100
AcDbLine
 10
65
 20
898.105
 30
0
 11
65
 21
887.805
 31
0
  0
LINE
  5
DDE
330
A02
100
AcDbEntity
  8
Shape2DView004
100
AcDbLine
 10
60
 20
898.105
 30
0
 11
65
 21
898.105
 31
0
  0
LINE
  5
DDF
330
A02
100
AcDbEntity
  8
Shape2DView004
100
AcDbLine
 10
60
 20
898.105
 30
0
 11
60
 21
908.259
 31
0
  0
LINE
  5
DE0
330
A02
100
AcDbEntity
  8
Shape2DView004
100
AcDbLine
 10
60
 20
908.259
 30
0
 11
65
 21
908.259
 31
0
  0
LINE
  5
DE1
330
A02
100
AcDbEntity
  8
Shape2DView004
100
AcDbLine
 10
65
 20
918.559
 30
0
 11
65
 21
908.259
 31
0
  0
LINE
  5
DE2
330
A02
100
AcDbEntity
  8
Shape2DView004
100
AcDbLine
 10
60
 20
918.559
 30
0
 11
65
 21
918.559
 31
0
  0
LINE
  5
DE3
330
A02
100
AcDbEntity
  8
Shape2DView004
100
AcDbLine
 10
60
 20
918.559
 30
0
 11
60
 21
928.714
 31
0
  0
LINE
  5
DE4
330
A02
100
AcDbEntity
  8
Shape2DView004
100
AcDbLine
 10
60
 20
928.714
 30
0
 11
65
 21
928.714
 31
0
  0
LINE
  5
DE5
330
A02
100
AcDbEntity
  8
Shape2DView004
100
AcDbLine
 10
65
 20
939.014
 30
0
 11
65
 21
928.714
 31
0
  0
LINE
  5
DE6
330
A02
100
AcDbEntity
  8
Shape2DView004
100
AcDbLine
 10
60
 20
939.014
 30
0
 11
65
 21
939.014
 31
0
  0
LINE
  5
DE7
330
A02
100
AcDbEntity
  8
Shape2DView004
100
AcDbLine
 10
60
 20
939.014
 30
0
 11
60
 21
949.168
 31
0
  0
LINE
  5
DE8
330
A02
100
AcDbEntity
  8
Shape2DView004
100
AcDbLine
 10
60
 20
949.168
 30
0
 11
65
 21
949.168
 31
0
  0
LINE
  5
DE9
330
A02
100
AcDbEntity
  8
Shape2DView004
100
AcDbLine
 10
65
 20
959.468
 30
0
 11
65
 21
949.168
 31
0
  0
LINE
  5
DEA
330
A02
100
AcDbEntity
  8
Shape2DView004
100
AcDbLine
 10
60
 20
959.468
 30
0
 11
65
 21
959.468
 31
0
  0
LINE
  5
DEB
330
A02
100
AcDbEntity
  8
Shape2DView004
100
AcDbLine
 10
60
 20
959.468
 30
0
 11
60
 21
969.623
 31
0
  0
LINE
  5
DEC
330
A02
100
AcDbEntity
  8
Shape2DView004
100
AcDbLine
 10
60
 20
969.623
 30
0
 11
65
 21
969.623
 31
0
  0
LINE
  5
DED
330
A02
100
AcDbEntity
  8
Shape2DView004
100
AcDbLine
 10
65
 20
979.923
 30
0
 11
65
 21
969.623
 31
0
  0
LINE
  5
DEE
330
A02
100
AcDbEntity
  8
Shape2DView004
100
AcDbLine
 10
60
 20
979.923
 30
0
 11
65
 21
979.923
 31
0
  0
LINE
  5
DEF
330
A02
100
AcDbEntity
  8
Shape2DView004
100
AcDbLine
 10
60
 20
979.923
 30
0
 11
60
 21
985
 31
0
  0
LINE
  5
DF0
330
A02
100
AcDbEntity
  8
Shape2DView004
100
AcDbLine
 10
60
 20
985
 30
0
 11
55
 21
985
 31
0
  0
LINE
  5
DF1
330
A02
100
AcDbEntity
  8
Shape2DView004
100
AcDbLine
 10
55
 20
980.469
 30
0
 11
55
 21
985
 31
0
  0
ARC
  5
DF2
330
A02
100
AcDbEntity
  8
Shape2DView004
100
AcDbCircle
 10
54.8283
 20
980.172
 30
0
 40
0.343333
100
AcDbArc
 50
-150
 51
60
  0
LINE
  5
DF3
330
A02
100
AcDbEntity
  8
Shape2DView004
100
AcDbLine
 10
54.531
 20
980
 30
0
 11
45.469
 21
980
 31
0
  0
ARC
  5
DF4
330
A02
100
AcDbEntity
  8
Shape2DView004
100
AcDbCircle
 10
45.1717
 20
980.172
 30
0
 40
0.343333
100
AcDbArc
 50
120
 51
-30
  0
LINE
  5
DF5
330
A02
100
AcDbEntity
  8
Shape2DView004
100
AcDbLine
 10
45
 20
980.469
 30
0
 11
45
 21
985
 31
0
  0
LINE
  5
DF6
330
A02
100
AcDbEntity
  8
Shape2DView004
100
AcDbLine
 10
45
 20
985
 30
0
 11
35
 21
985
 31
0
  0
LINE
  5
DF7
330
A02
100
AcDbEntity
  8
Shape2DView004
100
AcDbLine
 10
35
 20
980.469
 30
0
 11
35
 21
985
 31
0
  0
ARC
  5
DF8
330
A02
100
AcDbEntity
  8
Shape2DView004
100
AcDbCircle
 10
34.8283
 20
980.172
 30
0
 40
0.343333
100
AcDbArc
 50
-150
 51
60
  0
LINE
  5
DF9
330
A02
100
AcDbEntity
  8
Shape2DView004
100
AcDbLine
 10
34.531
 20
980
 30
0
 11
25.469
 21
980
 31
0
  0
ARC
  5
DFA
330
A02
100
AcDbEntity
  8
Shape2DView004
100
AcDbCircle
 10
25.1717
 20
980.172
 30
0
 40
0.343333
100
AcDbArc
 50
120
 51
-30
  0
LINE
  5
DFB
330
A02
100
AcDbEntity
  8
Shape2DView004
100
AcDbLine
 10
25
 20
980.469
 30
0
 11
25
 21
985
 31
0
  0
LINE
  5
DFC
330
A02
100
AcDbEntity
  8
Shape2DView004
100
AcDbLine
 10
25
 20
985
 30
0
 11
15
 21
985
 31
0
  0
LINE
  5
DFD
330
A02
100
AcDbEntity
  8
Shape2DView004
100
AcDbLine
 10
15
 20
980.469
 30
0
 11
15
 21
985
 31
0
  0
ARC
  5
DFE
330
A02
100
AcDbEntity
  8
Shape2DView004
100
AcDbCircle
 10
14.8283
 20
980.172
 30
0
 40
0.343333
100
AcDbArc
 50
-150
 51
60
  0
LINE
  5
DFF
330
A02
100
AcDbEntity
  8
Shape2DView004
100
AcDbLine
 10
14.531
 20
980
 30
0
 11
5.469
 21
980
 31
0
  0
ARC
  5
E00
330
A02
100
AcDbEntity
  8
Shape2DView004
100
AcDbCircle
 10
5.17167
 20
980.172
 30
0
 40
0.343333
100
AcDbArc
 50
120
 51
-30
  0
LINE
  5
E01
330
A02
100
AcDbEntity
  8
Shape2DView004
100
AcDbLine
 10
5
 20
980.469
 30
0
 11
5
 21
985
 31
0
  0
LINE
  5
E02
330
A02
100
AcDbEntity
  8
Shape2DView004
100
AcDbLine
 10
5
 20
985
 30
0
 11
-4.26326e-14
 21
985
 31
0
  0
LINE
  5
E03
330
A02
100
AcDbEntity
  8
Shape2DView004
100
AcDbLine
 10
-8.52651e-14
 20
985
 30
0
 11
-7.37632e-14
 21
970.2
 31
0
  0
LINE
  5
E04
330
A02
100
AcDbEntity
  8
Shape2DView004
100
AcDbLine
 10
4.2
 20
970.2
 30
0
 11
-7.10543e-14
 21
970.2
 31
0
  0
LINE
  5
E05
330
A02
100
AcDbEntity
  8
Shape2DView004
100
AcDbLine
 10
4.2
 20
959.8
 30
0
 11
4.2
 21
970.2
 31
0
  0
LINE
  5
E06
330
A02
100
AcDbEntity
  8
Shape2DView004
100
AcDbLine
 10
-7.10543e-14
 20
959.8
 30
0
 11
4.2
 21
959.8
 31
0
  0
LINE
  5
E07
330
A02
100
AcDbEntity
  8
Shape2DView004
100
AcDbLine
 10
-7.10543e-14
 20
959.8
 30
0
 11
7.62945e-14
 21
770.2
 31
0
  0
LINE
  5
E08
330
A02
100
AcDbEntity
  8
Shape2DView004
100
AcDbLine
 10
4.2
 20
770.2
 30
0
 11
8.52651e-14
 21
770.2
 31
0
  0
LINE
  5
E09
330
A02
100
AcDbEntity
  8
Shape2DView004
100
AcDbLine
 10
4.2
 20
759.8
 30
0
 11
4.2
 21
770.2
 31
0
  0
LINE
  5
E0A
330
A02
100
AcDbEntity
  8
Shape2DView004
100
AcDbLine
 10
9.9476e-14
 20
759.8
 30
0
 11
4.2
 21
759.8
 31
0
  0
LINE
  5
E0B
330
A02
100
AcDbEntity
  8
Shape2DView004
100
AcDbLine
 10
9.9476e-14
 20
759.8
 30
0
 11
1.07092e-13
 21
750
 31
0
  0
LINE
  5
E0C
330
A02
100
AcDbEntity
  8
Shape2DView004
100
AcDbLine
 10
1.19016e-13
 20
750
 30
0
 11
19.5447
 21
750
 31
0
  0
ARC
  5
E0D
330
A02
100
AcDbEntity
  8
Shape2DView004
100
AcDbCircle
 10
19.8333
 20
749.833
 30
0
 40
0.333333
100
AcDbArc
 50
-60
 51
150
  0
LINE
  5
E0E
330
A02
100
AcDbEntity
  8
Shape2DView004
100
AcDbLine
 10
20
 20
749.545
 30
0
 11
20
 21
745.455
 31
0
  0
ARC
  5
E0F
330
A02
100
AcDbEntity
  8
Shape2DView004
100
AcDbCircle
 10
19.8333
 20
745.167
 30
0
 40
0.333333
100
AcDbArc
 50
-90
 51
60
  0
ARC
  5
E10
330
A02
100
AcDbEntity
  8
Shape2DView004
100
AcDbCircle
 10
19.8333
 20
745.167
 30
0
 40
0.333333
100
AcDbArc
 50
-150
 51
-90
  0
ARC
  5
E11
330
A02
100
AcDbEntity
  8
Shape2DView004
100
AcDbCircle
 10
51.5
 20
619
 30
0
 40
2.5
100
AcDbArc
 50
0
 51
90
  0
LINE
  5
E12
330
A02
100
AcDbEntity
  8
Shape2DView004
100
AcDbLine
 10
54
 20
566
 30
0
 11
54
 21
619
 31
0
  0
ARC
  5
E13
330
A02
100
AcDbEntity
  8
Shape2DView004
100
AcDbCircle
 10
51.5
 20
566
 30
0
 40
2.5
100
AcDbArc
 50
-90
 51
0
  0
LINE
  5
E14
330
A02
100
AcDbEntity
  8
Shape2DView004
100
AcDbLine
 10
40.5
 20
563.5
 30
0
 11
51.5
 21
563.5
 31
0
  0
ARC
  5
E15
330
A02
100
AcDbEntity
  8
Shape2DView004
100
AcDbCircle
 10
40.5
 20
566
 30
0
 40
2.5
100
AcDbArc
 50
180
 51
-90
  0
LINE
  5
E16
330
A02
100
AcDbEntity
  8
Shape2DView004
100
AcDbLine
 10
38
 20
619
 30
0
 11
38
 21
566
 31
0
  0
ARC
  5
E17
330
A02
100
AcDbEntity
  8
Shape2DView004
100
AcDbCircle
 10
40.5
 20
619
 30
0
 40
2.5
100
AcDbArc
 50
90
 51
180
  0
LINE
  5
E18
330
A02
100
AcDbEntity
  8
Shape2DView004
100
AcDbLine
 10
51.5
 20
621.5
 30
0
 11
40.5
 21
621.5
 31
0
  0
CIRCLE
  5
E19
330
A02
100
AcDbEntity
  8
Shape2DView004
100
AcDbCircle
 10
39
 20
813.088
 40
3
  0
CIRCLE
  5
E1A
330
A02
100
AcDbEntity
  8
Shape2DView004
100
AcDbCircle
 10
34.5
 20
805.294
 40
3
  0
CIRCLE
  5
E1B
330
A02
100
AcDbEntity
  8
Shape2DView004
100
AcDbCircle
 10
25.5
 20
805.294
 40
3
  0
CIRCLE
  5
E1C
330
A02
100
AcDbEntity
  8
Shape2DView004
100
AcDbCircle
 10
45.5885
 20
806.5
 40
3
  0
CIRCLE
  5
E1D
330
A02
100
AcDbEntity
  8
Shape2DView004
100
AcDbCircle
 10
48
 20
797.5
 40
3
  0
CIRCLE
  5
E1E
330
A02
100
AcDbEntity
  8
Shape2DView004
100
AcDbCircle
 10
39
 20
797.5
 40
3
  0
CIRCLE
  5
E1F
330
A02
100
AcDbEntity
  8
Shape2DView004
100
AcDbCircle
 10
39
 20
781.912
 40
3
  0
CIRCLE
  5
E20
330
A02
100
AcDbEntity
  8
Shape2DView004
100
AcDbCircle
 10
34.5
 20
789.706
 40
3
  0
CIRCLE
  5
E21
330
A02
100
AcDbEntity
  8
Shape2DView004
100
AcDbCircle
 10
30
 20
815.5
 40
3
  0
CIRCLE
  5
E22
330
A02
100
AcDbEntity
  8
Shape2DView004
100
AcDbCircle
 10
21
 20
813.088
 40
3
  0
CIRCLE
  5
E23
330
A02
100
AcDbEntity
  8
Shape2DView004
100
AcDbCircle
 10
30
 20
797.5
 40
3
  0
CIRCLE
  5
E24
330
A02
100
AcDbEntity
  8
Shape2DView004
100
AcDbCircle
 10
25.5
 20
789.706
 40
3
  0
CIRCLE
  5
E25
330
A02
100
AcDbEntity
  8
Shape2DView004
100
AcDbCircle
 10
30
 20
779.5
 40
3
  0
CIRCLE
  5
E26
330
A02
100
AcDbEntity
  8
Shape2DView004
100
AcDbCircle
 10
21
 20
797.5
 40
3
  0
CIRCLE
  5
E27
330
A02
100
AcDbEntity
  8
Shape2DView004
100
AcDbCircle
 10
21
 20
781.912
 40
3
  0
CIRCLE
  5
E28
330
A02
100
AcDbEntity
  8
Shape2DView004
100
AcDbCircle
 10
14.4115
 20
788.5
 40
3
  0
CIRCLE
  5
E29
330
A02
100
AcDbEntity
  8
Shape2DView004
100
AcDbCircle
 10
12
 20
797.5
 40
3
  0
CIRCLE
  5
E2A
330
A02
100
AcDbEntity
  8
Shape2DView004
100
AcDbCircle
 10
45.5885
 20
788.5
 40
3
  0
CIRCLE
  5
E2B
330
A02
100
AcDbEntity
  8
Shape2DView004
100
AcDbCircle
 10
14.4115
 20
806.5
 40
3
  0
CIRCLE
  5
E2C
330
A02
100
AcDbEntity
  8
Shape2DView004
100
AcDbCircle
 10
9
 20
965
 40
1.5
  0
CIRCLE
  5
E2D
330
A02
100
AcDbEntity
  8
Shape2DView004
100
AcDbCircle
 10
9
 20
765
 40
1.5
  0
CIRCLE
  5
E2E
330
A02
100
AcDbEntity
  8
Shape2DView004
100
AcDbCircle
 10
9
 20
730
 40
1.5
  0
CIRCLE
  5
E2F
330
A02
100
AcDbEntity
  8
Shape2DView004
100
AcDbCircle
 10
9
 20
555
 40
1.5
  0
LINE
  5
E30
330
A02
100
AcDbEntity
  8
Shape2DView003
100
AcDbLine
 10
348
 20
770.455
 30
0
 11
348
 21
774.545
 31
0
  0
ARC
  5
E31
330
A02
100
AcDbEntity
  8
Shape2DView003
100
AcDbCircle
 10
348.167
 20
770.167
 30
0
 40
0.333333
100
AcDbArc
 50
120
 51
-30
  0
LINE
  5
E32
330
A02
100
AcDbEntity
  8
Shape2DView003
100
AcDbLine
 10
348.455
 20
770
 30
0
 11
368
 21
770
 31
0
  0
LINE
  5
E33
330
A02
100
AcDbEntity
  8
Shape2DView003
100
AcDbLine
 10
368
 20
760.2
 30
0
 11
368
 21
770
 31
0
  0
LINE
  5
E34
330
A02
100
AcDbEntity
  8
Shape2DView003
100
AcDbLine
 10
368
 20
760.2
 30
0
 11
363.8
 21
760.2
 31
0
  0
LINE
  5
E35
330
A02
100
AcDbEntity
  8
Shape2DView003
100
AcDbLine
 10
363.8
 20
760.2
 30
0
 11
363.8
 21
749.8
 31
0
  0
LINE
  5
E36
330
A02
100
AcDbEntity
  8
Shape2DView003
100
AcDbLine
 10
363.8
 20
749.8
 30
0
 11
368
 21
749.8
 31
0
  0
LINE
  5
E37
330
A02
100
AcDbEntity
  8
Shape2DView003
100
AcDbLine
 10
368
 20
560.2
 30
0
 11
368
 21
749.8
 31
0
  0
LINE
  5
E38
330
A02
100
AcDbEntity
  8
Shape2DView003
100
AcDbLine
 10
368
 20
560.2
 30
0
 11
363.8
 21
560.2
 31
0
  0
LINE
  5
E39
330
A02
100
AcDbEntity
  8
Shape2DView003
100
AcDbLine
 10
363.8
 20
560.2
 30
0
 11
363.8
 21
549.8
 31
0
  0
LINE
  5
E3A
330
A02
100
AcDbEntity
  8
Shape2DView003
100
AcDbLine
 10
363.8
 20
549.8
 30
0
 11
368
 21
549.8
 31
0
  0
LINE
  5
E3B
330
A02
100
AcDbEntity
  8
Shape2DView003
100
AcDbLine
 10
368
 20
535
 30
0
 11
368
 21
549.8
 31
0
  0
LINE
  5
E3C
330
A02
100
AcDbEntity
  8
Shape2DView003
100
AcDbLine
 10
363
 20
535
 30
0
 11
368
 21
535
 31
0
  0
LINE
  5
E3D
330
A02
100
AcDbEntity
  8
Shape2DView003
100
AcDbLine
 10
363
 20
539.531
 30
0
 11
363
 21
535
 31
0
  0
ARC
  5
E3E
330
A02
100
AcDbEntity
  8
Shape2DView003
100
AcDbCircle
 10
362.828
 20
539.828
 30
0
 40
0.343333
100
AcDbArc
 50
-60
 51
150
  0
LINE
  5
E3F
330
A02
100
AcDbEntity
  8
Shape2DView003
100
AcDbLine
 10
362.531
 20
540
 30
0
 11
353.469
 21
540
 31
0
  0
ARC
  5
E40
330
A02
100
AcDbEntity
  8
Shape2DView003
100
AcDbCircle
 10
353.172
 20
539.828
 30
0
 40
0.343333
100
AcDbArc
 50
30
 51
-120
  0
LINE
  5
E41
330
A02
100
AcDbEntity
  8
Shape2DView003
100
AcDbLine
 10
353
 20
539.531
 30
0
 11
353
 21
535
 31
0
  0
LINE
  5
E42
330
A02
100
AcDbEntity
  8
Shape2DView003
100
AcDbLine
 10
343
 20
535
 30
0
 11
353
 21
535
 31
0
  0
LINE
  5
E43
330
A02
100
AcDbEntity
  8
Shape2DView003
100
AcDbLine
 10
343
 20
539.531
 30
0
 11
343
 21
535
 31
0
  0
ARC
  5
E44
330
A02
100
AcDbEntity
  8
Shape2DView003
100
AcDbCircle
 10
342.828
 20
539.828
 30
0
 40
0.343333
100
AcDbArc
 50
-60
 51
150
  0
LINE
  5
E45
330
A02
100
AcDbEntity
  8
Shape2DView003
100
AcDbLine
 10
342.531
 20
540
 30
0
 11
333.469
 21
540
 31
0
  0
ARC
  5
E46
330
A02
100
AcDbEntity
  8
Shape2DView003
100
AcDbCircle
 10
333.172
 20
539.828
 30
0
 40
0.343333
100
AcDbArc
 50
30
 51
-120
  0
LINE
  5
E47
330
A02
100
AcDbEntity
  8
Shape2DView003
100
AcDbLine
 10
333
 20
539.531
 30
0
 11
333
 21
535
 31
0
  0
LINE
  5
E48
330
A02
100
AcDbEntity
  8
Shape2DView003
100
AcDbLine
 10
323
 20
535
 30
0
 11
333
 21
535
 31
0
  0
LINE
  5
E49
330
A02
100
AcDbEntity
  8
Shape2DView003
100
AcDbLine
 10
323
 20
539.531
 30
0
 11
323
 21
535
 31
0
  0
ARC
  5
E4A
330
A02
100
AcDbEntity
  8
Shape2DView003
100
AcDbCircle
 10
322.828
 20
539.828
 30
0
 40
0.343333
100
AcDbArc
 50
-60
 51
150
  0
LINE
  5
E4B
330
A02
100
AcDbEntity
  8
Shape2DView003
100
AcDbLine
 10
322.531
 20
540
 30
0
 11
313.469
 21
540
 31
0
  0
ARC
  5
E4C
330
A02
100
AcDbEntity
  8
Shape2DView003
100
AcDbCircle
 10
313.172
 20
539.828
 30
0
 40
0.343333
100
AcDbArc
 50
30
 51
-120
  0
LINE
  5
E4D
330
A02
100
AcDbEntity
  8
Shape2DView003
100
AcDbLine
 10
313
 20
539.531
 30
0
 11
313
 21
535
 31
0
  0
LINE
  5
E4E
330
A02
100
AcDbEntity
  8
Shape2DView003
100
AcDbLine
 10
308
 20
535
 30
0
 11
313
 21
535
 31
0
  0
LINE
  5
E4F
330
A02
100
AcDbEntity
  8
Shape2DView003
100
AcDbLine
 10
308
 20
540.077
 30
0
 11
308
 21
535
 31
0
  0
LINE
  5
E50
330
A02
100
AcDbEntity
  8
Shape2DView003
100
AcDbLine
 10
308
 20
540.077
 30
0
 11
303
 21
540.077
 31
0
  0
LINE
  5
E51
330
A02
100
AcDbEntity
  8
Shape2DView003
100
AcDbLine
 10
303
 20
540.077
 30
0
 11
303
 21
550.377
 31
0
  0
LINE
  5
E52
330
A02
100
AcDbEntity
  8
Shape2DView003
100
AcDbLine
 10
308
 20
560.532
 30
0
 11
308
 21
550.377
 31
0
  0
LINE
  5
E53
330
A02
100
AcDbEntity
  8
Shape2DView003
100
AcDbLine
 10
308
 20
550.377
 30
0
 11
303
 21
550.377
 31
0
  0
LINE
  5
E54
330
A02
100
AcDbEntity
  8
Shape2DView003
100
AcDbLine
 10
308
 20
560.532
 30
0
 11
303
 21
560.532
 31
0
  0
LINE
  5
E55
330
A02
100
AcDbEntity
  8
Shape2DView003
100
AcDbLine
 10
303
 20
560.532
 30
0
 11
303
 21
570.832
 31
0
  0
LINE
  5
E56
330
A02
100
AcDbEntity
  8
Shape2DView003
100
AcDbLine
 10
308
 20
580.986
 30
0
 11
308
 21
570.832
 31
0
  0
LINE
  5
E57
330
A02
100
AcDbEntity
  8
Shape2DView003
100
AcDbLine
 10
308
 20
570.832
 30
0
 11
303
 21
570.832
 31
0
  0
LINE
  5
E58
330
A02
100
AcDbEntity
  8
Shape2DView003
100
AcDbLine
 10
308
 20
580.986
 30
0
 11
303
 21
580.986
 31
0
  0
LINE
  5
E59
330
A02
100
AcDbEntity
  8
Shape2DView003
100
AcDbLine
 10
303
 20
580.986
 30
0
 11
303
 21
591.286
 31
0
  0
LINE
  5
E5A
330
A02
100
AcDbEntity
  8
Shape2DView003
100
AcDbLine
 10
308
 20
601.441
 30
0
 11
308
 21
591.286
 31
0
  0
LINE
  5
E5B
330
A02
100
AcDbEntity
  8
Shape2DView003
100
AcDbLine
 10
308
 20
591.286
 30
0
 11
303
 21
591.286
 31
0
  0
LINE
  5
E5C
330
A02
100
AcDbEntity
  8
Shape2DView003
100
AcDbLine
 10
308
 20
601.441
 30
0
 11
303
 21
601.441
 31
0
  0
LINE
  5
E5D
330
A02
100
AcDbEntity
  8
Shape2DView003
100
AcDbLine
 10
303
 20
601.441
 30
0
 11
303
 21
611.741
 31
0
  0
LINE
  5
E5E
330
A02
100
AcDbEntity
  8
Shape2DView003
100
AcDbLine
 10
308
 20
621.895
 30
0
 11
308
 21
611.741
 31
0
  0
LINE
  5
E5F
330
A02
100
AcDbEntity
  8
Shape2DView003
100
AcDbLine
 10
308
 20
611.741
 30
0
 11
303
 21
611.741
 31
0
  0
LINE
  5
E60
330
A02
100
AcDbEntity
  8
Shape2DView003
100
AcDbLine
 10
308
 20
621.895
 30
0
 11
303
 21
621.895
 31
0
  0
LINE
  5
E61
330
A02
100
AcDbEntity
  8
Shape2DView003
100
AcDbLine
 10
303
 20
621.895
 30
0
 11
303
 21
632.195
 31
0
  0
LINE
  5
E62
330
A02
100
AcDbEntity
  8
Shape2DView003
100
AcDbLine
 10
308
 20
642.35
 30
0
 11
308
 21
632.195
 31
0
  0
LINE
  5
E63
330
A02
100
AcDbEntity
  8
Shape2DView003
100
AcDbLine
 10
308
 20
632.195
 30
0
 11
303
 21
632.195
 31
0
  0
LINE
  5
E64
330
A02
100
AcDbEntity
  8
Shape2DView003
100
AcDbLine
 10
308
 20
642.35
 30
0
 11
303
 21
642.35
 31
0
  0
LINE
  5
E65
330
A02
100
AcDbEntity
  8
Shape2DView003
100
AcDbLine
 10
303
 20
642.35
 30
0
 11
303
 21
652.65
 31
0
  0
LINE
  5
E66
330
A02
100
AcDbEntity
  8
Shape2DView003
100
AcDbLine
 10
308
 20
662.805
 30
0
 11
308
 21
652.65
 31
0
  0
LINE
  5
E67
330
A02
100
AcDbEntity
  8
Shape2DView003
100
AcDbLine
 10
308
 20
652.65
 30
0
 11
303
 21
652.65
 31
0
  0
LINE
  5
E68
330
A02
100
AcDbEntity
  8
Shape2DView003
100
AcDbLine
 10
308
 20
662.805
 30
0
 11
303
 21
662.805
 31
0
  0
LINE
  5
E69
330
A02
100
AcDbEntity
  8
Shape2DView003
100
AcDbLine
 10
303
 20
662.805
 30
0
 11
303
 21
673.105
 31
0
  0
LINE
  5
E6A
330
A02
100
AcDbEntity
  8
Shape2DView003
100
AcDbLine
 10
308
 20
683.259
 30
0
 11
308
 21
673.105
 31
0
  0
LINE
  5
E6B
330
A02
100
AcDbEntity
  8
Shape2DView003
100
AcDbLine
 10
308
 20
673.105
 30
0
 11
303
 21
673.105
 31
0
  0
LINE
  5
E6C
330
A02
100
AcDbEntity
  8
Shape2DView003
100
AcDbLine
 10
308
 20
683.259
 30
0
 11
303
 21
683.259
 31
0
  0
LINE
  5
E6D
330
A02
100
AcDbEntity
  8
Shape2DView003
100
AcDbLine
 10
303
 20
683.259
 30
0
 11
303
 21
693.559
 31
0
  0
LINE
  5
E6E
330
A02
100
AcDbEntity
  8
Shape2DView003
100
AcDbLine
 10
308
 20
703.714
 30
0
 11
308
 21
693.559
 31
0
  0
LINE
  5
E6F
330
A02
100
AcDbEntity
  8
Shape2DView003
100
AcDbLine
 10
308
 20
693.559
 30
0
 11
303
 21
693.559
 31
0
  0
LINE
  5
E70
330
A02
100
AcDbEntity
  8
Shape2DView003
100
AcDbLine
 10
308
 20
703.714
 30
0
 11
303
 21
703.714
 31
0
  0
LINE
  5
E71
330
A02
100
AcDbEntity
  8
Shape2DView003
100
AcDbLine
 10
303
 20
703.714
 30
0
 11
303
 21
714.014
 31
0
  0
LINE
  5
E72
330
A02
100
AcDbEntity
  8
Shape2DView003
100
AcDbLine
 10
308
 20
724.168
 30
0
 11
308
 21
714.014
 31
0
  0
LINE
  5
E73
330
A02
100
AcDbEntity
  8
Shape2DView003
100
AcDbLine
 10
308
 20
714.014
 30
0
 11
303
 21
714.014
 31
0
  0
LINE
  5
E74
330
A02
100
AcDbEntity
  8
Shape2DView003
100
AcDbLine
 10
308
 20
724.168
 30
0
 11
303
 21
724.168
 31
0
  0
LINE
  5
E75
330
A02
100
AcDbEntity
  8
Shape2DView003
100
AcDbLine
 10
303
 20
724.168
 30
0
 11
303
 21
734.468
 31
0
  0
LINE
  5
E76
330
A02
100
AcDbEntity
  8
Shape2DView003
100
AcDbLine
 10
308
 20
744.623
 30
0
 11
308
 21
734.468
 31
0
  0
LINE
  5
E77
330
A02
100
AcDbEntity
  8
Shape2DView003
100
AcDbLine
 10
308
 20
734.468
 30
0
 11
303
 21
734.468
 31
0
  0
LINE
  5
E78
330
A02
100
AcDbEntity
  8
Shape2DView003
100
AcDbLine
 10
308
 20
744.623
 30
0
 11
303
 21
744.623
 31
0
  0
LINE
  5
E79
330
A02
100
AcDbEntity
  8
Shape2DView003
100
AcDbLine
 10
303
 20
744.623
 30
0
 11
303
 21
754.923
 31
0
  0
LINE
  5
E7A
330
A02
100
AcDbEntity
  8
Shape2DView003
100
AcDbLine
 10
308
 20
765.077
 30
0
 11
308
 21
754.923
 31
0
  0
LINE
  5
E7B
330
A02
100
AcDbEntity
  8
Shape2DView003
100
AcDbLine
 10
308
 20
754.923
 30
0
 11
303
 21
754.923
 31
0
  0
LINE
  5
E7C
330
A02
100
AcDbEntity
  8
Shape2DView003
100
AcDbLine
 10
308
 20
765.077
 30
0
 11
303
 21
765.077
 31
0
  0
LINE
  5
E7D
330
A02
100
AcDbEntity
  8
Shape2DView003
100
AcDbLine
 10
303
 20
765.077
 30
0
 11
303
 21
775.377
 31
0
  0
LINE
  5
E7E
330
A02
100
AcDbEntity
  8
Shape2DView003
100
AcDbLine
 10
308
 20
785.532
 30
0
 11
308
 21
775.377
 31
0
  0
LINE
  5
E7F
330
A02
100
AcDbEntity
  8
Shape2DView003
100
AcDbLine
 10
308
 20
775.377
 30
0
 11
303
 21
775.377
 31
0
  0
LINE
  5
E80
330
A02
100
AcDbEntity
  8
Shape2DView003
100
AcDbLine
 10
308
 20
785.532
 30
0
 11
303
 21
785.532
 31
0
  0
LINE
  5
E81
330
A02
100
AcDbEntity
  8
Shape2DView003
100
AcDbLine
 10
303
 20
785.532
 30
0
 11
303
 21
795.832
 31
0
  0
LINE
  5
E82
330
A02
100
AcDbEntity
  8
Shape2DView003
100
AcDbLine
 10
308
 20
805.986
 30
0
 11
308
 21
795.832
 31
0
  0
LINE
  5
E83
330
A02
100
AcDbEntity
  8
Shape2DView003
100
AcDbLine
 10
308
 20
795.832
 30
0
 11
303
 21
795.832
 31
0
  0
LINE
  5
E84
330
A02
100
AcDbEntity
  8
Shape2DView003
100
AcDbLine
 10
308
 20
805.986
 30
0
 11
303
 21
805.986
 31
0
  0
LINE
  5
E85
330
A02
100
AcDbEntity
  8
Shape2DView003
100
AcDbLine
 10
303
 20
805.986
 30
0
 11
303
 21
816.286
 31
0
  0
LINE
  5
E86
330
A02
100
AcDbEntity
  8
Shape2DView003
100
AcDbLine
 10
308
 20
826.441
 30
0
 11
308
 21
816.286
 31
0
  0
LINE
  5
E87
330
A02
100
AcDbEntity
  8
Shape2DView003
100
AcDbLine
 10
308
 20
816.286
 30
0
 11
303
 21
816.286
 31
0
  0
LINE
  5
E88
330
A02
100
AcDbEntity
  8
Shape2DView003
100
AcDbLine
 10
308
 20
826.441
 30
0
 11
303
 21
826.441
 31
0
  0
LINE
  5
E89
330
A02
100
AcDbEntity
  8
Shape2DView003
100
AcDbLine
 10
303
 20
826.441
 30
0
 11
303
 21
836.741
 31
0
  0
LINE
  5
E8A
330
A02
100
AcDbEntity
  8
Shape2DView003
100
AcDbLine
 10
308
 20
846.895
 30
0
 11
308
 21
836.741
 31
0
  0
LINE
  5
E8B
330
A02
100
AcDbEntity
  8
Shape2DView003
100
AcDbLine
 10
308
 20
836.741
 30
0
 11
303
 21
836.741
 31
0
  0
LINE
  5
E8C
330
A02
100
AcDbEntity
  8
Shape2DView003
100
AcDbLine
 10
308
 20
846.895
 30
0
 11
303
 21
846.895
 31
0
  0
LINE
  5
E8D
330
A02
100
AcDbEntity
  8
Shape2DView003
100
AcDbLine
 10
303
 20
846.895
 30
0
 11
303
 21
857.195
 31
0
  0
LINE
  5
E8E
330
A02
100
AcDbEntity
  8
Shape2DView003
100
AcDbLine
 10
308
 20
867.35
 30
0
 11
308
 21
857.195
 31
0
  0
LINE
  5
E8F
330
A02
100
AcDbEntity
  8
Shape2DView003
100
AcDbLine
 10
308
 20
857.195
 30
0
 11
303
 21
857.195
 31
0
  0
LINE
  5
E90
330
A02
100
AcDbEntity
  8
Shape2DView003
100
AcDbLine
 10
308
 20
867.35
 30
0
 11
303
 21
867.35
 31
0
  0
LINE
  5
E91
330
A02
100
AcDbEntity
  8
Shape2DView003
100
AcDbLine
 10
303
 20
867.35
 30
0
 11
303
 21
877.65
 31
0
  0
LINE
  5
E92
330
A02
100
AcDbEntity
  8
Shape2DView003
100
AcDbLine
 10
308
 20
887.805
 30
0
 11
308
 21
877.65
 31
0
  0
LINE
  5
E93
330
A02
100
AcDbEntity
  8
Shape2DView003
100
AcDbLine
 10
308
 20
877.65
 30
0
 11
303
 21
877.65
 31
0
  0
LINE
  5
E94
330
A02
100
AcDbEntity
  8
Shape2DView003
100
AcDbLine
 10
308
 20
887.805
 30
0
 11
303
 21
887.805
 31
0
  0
LINE
  5
E95
330
A02
100
AcDbEntity
  8
Shape2DView003
100
AcDbLine
 10
303
 20
887.805
 30
0
 11
303
 21
898.105
 31
0
  0
LINE
  5
E96
330
A02
100
AcDbEntity
  8
Shape2DView003
100
AcDbLine
 10
308
 20
908.259
 30
0
 11
308
 21
898.105
 31
0
  0
LINE
  5
E97
330
A02
100
AcDbEntity
  8
Shape2DView003
100
AcDbLine
 10
308
 20
898.105
 30
0
 11
303
 21
898.105
 31
0
  0
LINE
  5
E98
330
A02
100
AcDbEntity
  8
Shape2DView003
100
AcDbLine
 10
308
 20
908.259
 30
0
 11
303
 21
908.259
 31
0
  0
LINE
  5
E99
330
A02
100
AcDbEntity
  8
Shape2DView003
100
AcDbLine
 10
303
 20
908.259
 30
0
 11
303
 21
918.559
 31
0
  0
LINE
  5
E9A
330
A02
100
AcDbEntity
  8
Shape2DView003
100
AcDbLine
 10
308
 20
928.714
 30
0
 11
308
 21
918.559
 31
0
  0
LINE
  5
E9B
330
A02
100
AcDbEntity
  8
Shape2DView003
100
AcDbLine
 10
308
 20
918.559
 30
0
 11
303
 21
918.559
 31
0
  0
LINE
  5
E9C
330
A02
100
AcDbEntity
  8
Shape2DView003
100
AcDbLine
 10
308
 20
928.714
 30
0
 11
303
 21
928.714
 31
0
  0
LINE
  5
E9D
330
A02
100
AcDbEntity
  8
Shape2DView003
100
AcDbLine
 10
303
 20
928.714
 30
0
 11
303
 21
939.014
 31
0
  0
LINE
  5
E9E
330
A02
100
AcDbEntity
  8
Shape2DView003
100
AcDbLine
 10
308
 20
949.168
 30
0
 11
308
 21
939.014
 31
0
  0
LINE
  5
E9F
330
A02
100
AcDbEntity
  8
Shape2DView003
100
AcDbLine
 10
308
 20
939.014
 30
0
 11
303
 21
939.014
 31
0
  0
LINE
  5
EA0
330
A02
100
AcDbEntity
  8
Shape2DView003
100
AcDbLine
 10
308
 20
949.168
 30
0
 11
303
 21
949.168
 31
0
  0
LINE
  5
EA1
330
A02
100
AcDbEntity
  8
Shape2DView003
100
AcDbLine
 10
303
 20
949.168
 30
0
 11
303
 21
959.468
 31
0
  0
LINE
  5
EA2
330
A02
100
AcDbEntity
  8
Shape2DView003
100
AcDbLine
 10
308
 20
969.623
 30
0
 11
308
 21
959.468
 31
0
  0
LINE
  5
EA3
330
A02
100
AcDbEntity
  8
Shape2DView003
100
AcDbLine
 10
308
 20
959.468
 30
0
 11
303
 21
959.468
 31
0
  0
LINE
  5
EA4
330
A02
100
AcDbEntity
  8
Shape2DView003
100
AcDbLine
 10
308
 20
969.623
 30
0
 11
303
 21
969.623
 31
0
  0
LINE
  5
EA5
330
A02
100
AcDbEntity
  8
Shape2DView003
100
AcDbLine
 10
303
 20
969.623
 30
0
 11
303
 21
979.923
 31
0
  0
LINE
  5
EA6
330
A02
100
AcDbEntity
  8
Shape2DView003
100
AcDbLine
 10
368
 20
970.2
 30
0
 11
368
 21
985
 31
0
  0
LINE
  5
EA7
330
A02
100
AcDbEntity
  8
Shape2DView003
100
AcDbLine
 10
368
 20
970.2
 30
0
 11
363.8
 21
970.2
 31
0
  0
LINE
  5
EA8
330
A02
100
AcDbEntity
  8
Shape2DView003
100
AcDbLine
 10
368
 20
985
 30
0
 11
363
 21
985
 31
0
  0
LINE
  5
EA9
330
A02
100
AcDbEntity
  8
Shape2DView003
100
AcDbLine
 10
363.8
 20
970.2
 30
0
 11
363.8
 21
959.8
 31
0
  0
LINE
  5
EAA
330
A02
100
AcDbEntity
  8
Shape2DView003
100
AcDbLine
 10
363
 20
980.469
 30
0
 11
363
 21
985
 31
0
  0
LINE
  5
EAB
330
A02
100
AcDbEntity
  8
Shape2DView003
100
AcDbLine
 10
363.8
 20
959.8
 30
0
 11
368
 21
959.8
 31
0
  0
LINE
  5
EAC
330
A02
100
AcDbEntity
  8
Shape2DView003
100
AcDbLine
 10
368
 20
921
 30
0
 11
368
 21
959.8
 31
0
  0
LINE
  5
EAD
330
A02
100
AcDbEntity
  8
Shape2DView003
100
AcDbLine
 10
355.5
 20
921
 30
0
 11
368
 21
921
 31
0
  0
ARC
  5
EAE
330
A02
100
AcDbEntity
  8
Shape2DView003
100
AcDbCircle
 10
355.5
 20
913.5
 30
0
 40
7.5
100
AcDbArc
 50
90
 51
180
  0
LINE
  5
EAF
330
A02
100
AcDbEntity
  8
Shape2DView003
100
AcDbLine
 10
348
 20
898.5
 30
0
 11
348
 21
913.5
 31
0
  0
ARC
  5
EB0
330
A02
100
AcDbEntity
  8
Shape2DView003
100
AcDbCircle
 10
355.5
 20
898.5
 30
0
 40
7.5
100
AcDbArc
 50
180
 51
-90
  0
LINE
  5
EB1
330
A02
100
AcDbEntity
  8
Shape2DView003
100
AcDbLine
 10
368
 20
891
 30
0
 11
355.5
 21
891
 31
0
  0
LINE
  5
EB2
330
A02
100
AcDbEntity
  8
Shape2DView003
100
AcDbLine
 10
368
 20
795.2
 30
0
 11
368
 21
891
 31
0
  0
LINE
  5
EB3
330
A02
100
AcDbEntity
  8
Shape2DView003
100
AcDbLine
 10
368
 20
795.2
 30
0
 11
363.8
 21
795.2
 31
0
  0
LINE
  5
EB4
330
A02
100
AcDbEntity
  8
Shape2DView003
100
AcDbLine
 10
363.8
 20
795.2
 30
0
 11
363.8
 21
784.8
 31
0
  0
LINE
  5
EB5
330
A02
100
AcDbEntity
  8
Shape2DView003
100
AcDbLine
 10
363.8
 20
784.8
 30
0
 11
368
 21
784.8
 31
0
  0
LINE
  5
EB6
330
A02
100
AcDbEntity
  8
Shape2DView003
100
AcDbLine
 10
368
 20
775
 30
0
 11
368
 21
784.8
 31
0
  0
LINE
  5
EB7
330
A02
100
AcDbEntity
  8
Shape2DView003
100
AcDbLine
 10
348.455
 20
775
 30
0
 11
368
 21
775
 31
0
  0
ARC
  5
EB8
330
A02
100
AcDbEntity
  8
Shape2DView003
100
AcDbCircle
 10
362.828
 20
980.172
 30
0
 40
0.343333
100
AcDbArc
 50
-150
 51
60
  0
LINE
  5
EB9
330
A02
100
AcDbEntity
  8
Shape2DView003
100
AcDbLine
 10
308
 20
985
 30
0
 11
308
 21
979.923
 31
0
  0
LINE
  5
EBA
330
A02
100
AcDbEntity
  8
Shape2DView003
100
AcDbLine
 10
313
 20
985
 30
0
 11
308
 21
985
 31
0
  0
LINE
  5
EBB
330
A02
100
AcDbEntity
  8
Shape2DView003
100
AcDbLine
 10
313
 20
980.469
 30
0
 11
313
 21
985
 31
0
  0
ARC
  5
EBC
330
A02
100
AcDbEntity
  8
Shape2DView003
100
AcDbCircle
 10
313.172
 20
980.172
 30
0
 40
0.343333
100
AcDbArc
 50
120
 51
-30
  0
LINE
  5
EBD
330
A02
100
AcDbEntity
  8
Shape2DView003
100
AcDbLine
 10
313.469
 20
980
 30
0
 11
322.531
 21
980
 31
0
  0
ARC
  5
EBE
330
A02
100
AcDbEntity
  8
Shape2DView003
100
AcDbCircle
 10
322.828
 20
980.172
 30
0
 40
0.343333
100
AcDbArc
 50
-150
 51
60
  0
LINE
  5
EBF
330
A02
100
AcDbEntity
  8
Shape2DView003
100
AcDbLine
 10
323
 20
980.469
 30
0
 11
323
 21
985
 31
0
  0
LINE
  5
EC0
330
A02
100
AcDbEntity
  8
Shape2DView003
100
AcDbLine
 10
333
 20
985
 30
0
 11
323
 21
985
 31
0
  0
LINE
  5
EC1
330
A02
100
AcDbEntity
  8
Shape2DView003
100
AcDbLine
 10
333
 20
980.469
 30
0
 11
333
 21
985
 31
0
  0
ARC
  5
EC2
330
A02
100
AcDbEntity
  8
Shape2DView003
100
AcDbCircle
 10
333.172
 20
980.172
 30
0
 40
0.343333
100
AcDbArc
 50
120
 51
-30
  0
LINE
  5
EC3
330
A02
100
AcDbEntity
  8
Shape2DView003
100
AcDbLine
 10
333.469
 20
980
 30
0
 11
342.531
 21
980
 31
0
  0
ARC
  5
EC4
330
A02
100
AcDbEntity
  8
Shape2DView003
100
AcDbCircle
 10
342.828
 20
980.172
 30
0
 40
0.343333
100
AcDbArc
 50
-150
 51
60
  0
LINE
  5
EC5
330
A02
100
AcDbEntity
  8
Shape2DView003
100
AcDbLine
 10
343
 20
980.469
 30
0
 11
343
 21
985
 31
0
  0
LINE
  5
EC6
330
A02
100
AcDbEntity
  8
Shape2DView003
100
AcDbLine
 10
353
 20
985
 30
0
 11
343
 21
985
 31
0
  0
LINE
  5
EC7
330
A02
100
AcDbEntity
  8
Shape2DView003
100
AcDbLine
 10
353
 20
980.469
 30
0
 11
353
 21
985
 31
0
  0
ARC
  5
EC8
330
A02
100
AcDbEntity
  8
Shape2DView003
100
AcDbCircle
 10
353.172
 20
980.172
 30
0
 40
0.343333
100
AcDbArc
 50
120
 51
-30
  0
LINE
  5
EC9
330
A02
100
AcDbEntity
  8
Shape2DView003
100
AcDbLine
 10
353.469
 20
980
 30
0
 11
362.531
 21
980
 31
0
  0
LINE
  5
ECA
330
A02
100
AcDbEntity
  8
Shape2DView003
100
AcDbLine
 10
308
 20
979.923
 30
0
 11
303
 21
979.923
 31
0
  0
ARC
  5
ECB
330
A02
100
AcDbEntity
  8
Shape2DView003
100
AcDbCircle
 10
348.167
 20
774.833
 30
0
 40
0.333333
100
AcDbArc
 50
90
 51
-120
  0
ARC
  5
ECC
330
A02
100
AcDbEntity
  8
Shape2DView003
100
AcDbCircle
 10
348.167
 20
774.833
 30
0
 40
0.333333
100
AcDbArc
 50
30
 51
90
  0
CIRCLE
  5
ECD
330
A02
100
AcDbEntity
  8
Shape2DView003
100
AcDbCircle
 10
329
 20
706.912
 40
3
  0
CIRCLE
  5
ECE
330
A02
100
AcDbEntity
  8
Shape2DView003
100
AcDbCircle
 10
333.5
 20
714.706
 40
3
  0
CIRCLE
  5
ECF
330
A02
100
AcDbEntity
  8
Shape2DView003
100
AcDbCircle
 10
342.5
 20
714.706
 40
3
  0
CIRCLE
  5
ED0
330
A02
100
AcDbEntity
  8
Shape2DView003
100
AcDbCircle
 10
338
 20
704.5
 40
3
  0
CIRCLE
  5
ED1
330
A02
100
AcDbEntity
  8
Shape2DView003
100
AcDbCircle
 10
329
 20
722.5
 40
3
  0
CIRCLE
  5
ED2
330
A02
100
AcDbEntity
  8
Shape2DView003
100
AcDbCircle
 10
329
 20
738.088
 40
3
  0
CIRCLE
  5
ED3
330
A02
100
AcDbEntity
  8
Shape2DView003
100
AcDbCircle
 10
333.5
 20
730.294
 40
3
  0
CIRCLE
  5
ED4
330
A02
100
AcDbEntity
  8
Shape2DView003
100
AcDbCircle
 10
338
 20
722.5
 40
3
  0
CIRCLE
  5
ED5
330
A02
100
AcDbEntity
  8
Shape2DView003
100
AcDbCircle
 10
338
 20
740.5
 40
3
  0
CIRCLE
  5
ED6
330
A02
100
AcDbEntity
  8
Shape2DView003
100
AcDbCircle
 10
347
 20
706.912
 40
3
  0
CIRCLE
  5
ED7
330
A02
100
AcDbEntity
  8
Shape2DView003
100
AcDbCircle
 10
342.5
 20
730.294
 40
3
  0
CIRCLE
  5
ED8
330
A02
100
AcDbEntity
  8
Shape2DView003
100
AcDbCircle
 10
347
 20
722.5
 40
3
  0
CIRCLE
  5
ED9
330
A02
100
AcDbEntity
  8
Shape2DView003
100
AcDbCircle
 10
347
 20
738.088
 40
3
  0
CIRCLE
  5
EDA
330
A02
100
AcDbEntity
  8
Shape2DView003
100
AcDbCircle
 10
353.588
 20
731.5
 40
3
  0
CIRCLE
  5
EDB
330
A02
100
AcDbEntity
  8
Shape2DView003
100
AcDbCircle
 10
356
 20
722.5
 40
3
  0
CIRCLE
  5
EDC
330
A02
100
AcDbEntity
  8
Shape2DView003
100
AcDbCircle
 10
322.412
 20
731.5
 40
3
  0
CIRCLE
  5
EDD
330
A02
100
AcDbEntity
  8
Shape2DView003
100
AcDbCircle
 10
320
 20
722.5
 40
3
  0
CIRCLE
  5
EDE
330
A02
100
AcDbEntity
  8
Shape2DView003
100
AcDbCircle
 10
322.412
 20
713.5
 40
3
  0
CIRCLE
  5
EDF
330
A02
100
AcDbEntity
  8
Shape2DView003
100
AcDbCircle
 10
353.588
 20
713.5
 40
3
  0
CIRCLE
  5
EE0
330
A02
100
AcDbEntity
  8
Shape2DView003
100
AcDbCircle
 10
359
 20
555
 40
1.5
  0
CIRCLE
  5
EE1
330
A02
100
AcDbEntity
  8
Shape2DView003
100
AcDbCircle
 10
359
 20
755
 40
1.5
  0
CIRCLE
  5
EE2
330
A02
100
AcDbEntity
  8
Shape2DView003
100
AcDbCircle
 10
359
 20
790
 40
1.5
  0
CIRCLE
  5
EE3
330
A02
100
AcDbEntity
  8
Shape2DView003
100
AcDbCircle
 10
359
 20
965
 40
1.5
  0
LINE
  5
EE4
330
A02
100
AcDbEntity
  8
Shape2DView002
100
AcDbLine
 10
288
 20
1060
 30
0
 11
80
 21
1060
 31
0
  0
LINE
  5
EE5
330
A02
100
AcDbEntity
  8
Shape2DView002
100
AcDbLine
 10
288
 20
1055.15
 30
0
 11
288
 21
1060
 31
0
  0
LINE
  5
EE6
330
A02
100
AcDbEntity
  8
Shape2DView002
100
AcDbLine
 10
80
 20
1060
 30
0
 11
80
 21
1055.15
 31
0
  0
LINE
  5
EE7
330
A02
100
AcDbEntity
  8
Shape2DView002
100
AcDbLine
 10
288
 20
1055.15
 30
0
 11
293
 21
1055.15
 31
0
  0
LINE
  5
EE8
330
A02
100
AcDbEntity
  8
Shape2DView002
100
AcDbLine
 10
80
 20
1055.15
 30
0
 11
75
 21
1055.15
 31
0
  0
LINE
  5
EE9
330
A02
100
AcDbEntity
  8
Shape2DView002
100
AcDbLine
 10
293
 20
1055.15
 30
0
 11
293
 21
1044.85
 31
0
  0
LINE
  5
EEA
330
A02
100
AcDbEntity
  8
Shape2DView002
100
AcDbLine
 10
75
 20
1044.85
 30
0
 11
75
 21
1055.15
 31
0
  0
LINE
  5
EEB
330
A02
100
AcDbEntity
  8
Shape2DView002
100
AcDbLine
 10
288
 20
1044.85
 30
0
 11
293
 21
1044.85
 31
0
  0
LINE
  5
EEC
330
A02
100
AcDbEntity
  8
Shape2DView002
100
AcDbLine
 10
288
 20
1000
 30
0
 11
288
 21
1004.85
 31
0
  0
LINE
  5
EED
330
A02
100
AcDbEntity
  8
Shape2DView002
100
AcDbLine
 10
282.75
 20
1000
 30
0
 11
288
 21
1000
 31
0
  0
LINE
  5
EEE
330
A02
100
AcDbEntity
  8
Shape2DView002
100
AcDbLine
 10
288
 20
1004.85
 30
0
 11
293
 21
1004.85
 31
0
  0
LINE
  5
EEF
330
A02
100
AcDbEntity
  8
Shape2DView002
100
AcDbLine
 10
293
 20
1015.15
 30
0
 11
293
 21
1004.85
 31
0
  0
LINE
  5
EF0
330
A02
100
AcDbEntity
  8
Shape2DView002
100
AcDbLine
 10
288
 20
1015.15
 30
0
 11
293
 21
1015.15
 31
0
  0
LINE
  5
EF1
330
A02
100
AcDbEntity
  8
Shape2DView002
100
AcDbLine
 10
288
 20
1015.15
 30
0
 11
288
 21
1024.85
 31
0
  0
LINE
  5
EF2
330
A02
100
AcDbEntity
  8
Shape2DView002
100
AcDbLine
 10
288
 20
1024.85
 30
0
 11
293
 21
1024.85
 31
0
  0
LINE
  5
EF3
330
A02
100
AcDbEntity
  8
Shape2DView002
100
AcDbLine
 10
293
 20
1035.15
 30
0
 11
293
 21
1024.85
 31
0
  0
LINE
  5
EF4
330
A02
100
AcDbEntity
  8
Shape2DView002
100
AcDbLine
 10
288
 20
1035.15
 30
0
 11
293
 21
1035.15
 31
0
  0
LINE
  5
EF5
330
A02
100
AcDbEntity
  8
Shape2DView002
100
AcDbLine
 10
288
 20
1035.15
 30
0
 11
288
 21
1044.85
 31
0
  0
LINE
  5
EF6
330
A02
100
AcDbEntity
  8
Shape2DView002
100
AcDbLine
 10
80
 20
1044.85
 30
0
 11
75
 21
1044.85
 31
0
  0
LINE
  5
EF7
330
A02
100
AcDbEntity
  8
Shape2DView002
100
AcDbLine
 10
80
 20
1044.85
 30
0
 11
80
 21
1035.15
 31
0
  0
LINE
  5
EF8
330
A02
100
AcDbEntity
  8
Shape2DView002
100
AcDbLine
 10
80
 20
1035.15
 30
0
 11
75
 21
1035.15
 31
0
  0
LINE
  5
EF9
330
A02
100
AcDbEntity
  8
Shape2DView002
100
AcDbLine
 10
75
 20
1024.85
 30
0
 11
75
 21
1035.15
 31
0
  0
LINE
  5
EFA
330
A02
100
AcDbEntity
  8
Shape2DView002
100
AcDbLine
 10
80
 20
1024.85
 30
0
 11
75
 21
1024.85
 31
0
  0
LINE
  5
EFB
330
A02
100
AcDbEntity
  8
Shape2DView002
100
AcDbLine
 10
80
 20
1024.85
 30
0
 11
80
 21
1015.15
 31
0
  0
LINE
  5
EFC
330
A02
100
AcDbEntity
  8
Shape2DView002
100
AcDbLine
 10
80
 20
1015.15
 30
0
 11
75
 21
1015.15
 31
0
  0
LINE
  5
EFD
330
A02
100
AcDbEntity
  8
Shape2DView002
100
AcDbLine
 10
75
 20
1004.85
 30
0
 11
75
 21
1015.15
 31
0
  0
LINE
  5
EFE
330
A02
100
AcDbEntity
  8
Shape2DView002
100
AcDbLine
 10
80
 20
1004.85
 30
0
 11
75
 21
1004.85
 31
0
  0
LINE
  5
EFF
330
A02
100
AcDbEntity
  8
Shape2DView002
100
AcDbLine
 10
80
 20
1004.85
 30
0
 11
80
 21
1000
 31
0
  0
LINE
  5
F00
330
A02
100
AcDbEntity
  8
Shape2DView002
100
AcDbLine
 10
80
 20
1000
 30
0
 11
85.25
 21
1000
 31
0
  0
LINE
  5
F01
330
A02
100
AcDbEntity
  8
Shape2DView002
100
AcDbLine
 10
85.25
 20
1000
 30
0
 11
85.25
 21
995
 31
0
  0
LINE
  5
F02
330
A02
100
AcDbEntity
  8
Shape2DView002
100
AcDbLine
 10
95.55
 20
995
 30
0
 11
85.25
 21
995
 31
0
  0
LINE
  5
F03
330
A02
100
AcDbEntity
  8
Shape2DView002
100
AcDbLine
 10
95.55
 20
1000
 30
0
 11
95.55
 21
995
 31
0
  0
LINE
  5
F04
330
A02
100
AcDbEntity
  8
Shape2DView002
100
AcDbLine
 10
95.55
 20
1000
 30
0
 11
106.05
 21
1000
 31
0
  0
LINE
  5
F05
330
A02
100
AcDbEntity
  8
Shape2DView002
100
AcDbLine
 10
106.05
 20
1000
 30
0
 11
106.05
 21
995
 31
0
  0
LINE
  5
F06
330
A02
100
AcDbEntity
  8
Shape2DView002
100
AcDbLine
 10
116.35
 20
995
 30
0
 11
106.05
 21
995
 31
0
  0
LINE
  5
F07
330
A02
100
AcDbEntity
  8
Shape2DView002
100
AcDbLine
 10
116.35
 20
1000
 30
0
 11
116.35
 21
995
 31
0
  0
LINE
  5
F08
330
A02
100
AcDbEntity
  8
Shape2DView002
100
AcDbLine
 10
116.35
 20
1000
 30
0
 11
126.85
 21
1000
 31
0
  0
LINE
  5
F09
330
A02
100
AcDbEntity
  8
Shape2DView002
100
AcDbLine
 10
126.85
 20
1000
 30
0
 11
126.85
 21
995
 31
0
  0
LINE
  5
F0A
330
A02
100
AcDbEntity
  8
Shape2DView002
100
AcDbLine
 10
137.15
 20
995
 30
0
 11
126.85
 21
995
 31
0
  0
LINE
  5
F0B
330
A02
100
AcDbEntity
  8
Shape2DView002
100
AcDbLine
 10
137.15
 20
1000
 30
0
 11
137.15
 21
995
 31
0
  0
LINE
  5
F0C
330
A02
100
AcDbEntity
  8
Shape2DView002
100
AcDbLine
 10
137.15
 20
1000
 30
0
 11
147.65
 21
1000
 31
0
  0
LINE
  5
F0D
330
A02
100
AcDbEntity
  8
Shape2DView002
100
AcDbLine
 10
147.65
 20
1000
 30
0
 11
147.65
 21
995
 31
0
  0
LINE
  5
F0E
330
A02
100
AcDbEntity
  8
Shape2DView002
100
AcDbLine
 10
157.95
 20
995
 30
0
 11
147.65
 21
995
 31
0
  0
LINE
  5
F0F
330
A02
100
AcDbEntity
  8
Shape2DView002
100
AcDbLine
 10
157.95
 20
1000
 30
0
 11
157.95
 21
995
 31
0
  0
LINE
  5
F10
330
A02
100
AcDbEntity
  8
Shape2DView002
100
AcDbLine
 10
157.95
 20
1000
 30
0
 11
168.45
 21
1000
 31
0
  0
LINE
  5
F11
330
A02
100
AcDbEntity
  8
Shape2DView002
100
AcDbLine
 10
168.45
 20
1000
 30
0
 11
168.45
 21
995
 31
0
  0
LINE
  5
F12
330
A02
100
AcDbEntity
  8
Shape2DView002
100
AcDbLine
 10
178.75
 20
995
 30
0
 11
168.45
 21
995
 31
0
  0
LINE
  5
F13
330
A02
100
AcDbEntity
  8
Shape2DView002
100
AcDbLine
 10
178.75
 20
1000
 30
0
 11
178.75
 21
995
 31
0
  0
LINE
  5
F14
330
A02
100
AcDbEntity
  8
Shape2DView002
100
AcDbLine
 10
178.75
 20
1000
 30
0
 11
189.25
 21
1000
 31
0
  0
LINE
  5
F15
330
A02
100
AcDbEntity
  8
Shape2DView002
100
AcDbLine
 10
189.25
 20
1000
 30
0
 11
189.25
 21
995
 31
0
  0
LINE
  5
F16
330
A02
100
AcDbEntity
  8
Shape2DView002
100
AcDbLine
 10
199.55
 20
995
 30
0
 11
189.25
 21
995
 31
0
  0
LINE
  5
F17
330
A02
100
AcDbEntity
  8
Shape2DView002
100
AcDbLine
 10
199.55
 20
1000
 30
0
 11
199.55
 21
995
 31
0
  0
LINE
  5
F18
330
A02
100
AcDbEntity
  8
Shape2DView002
100
AcDbLine
 10
199.55
 20
1000
 30
0
 11
210.05
 21
1000
 31
0
  0
LINE
  5
F19
330
A02
100
AcDbEntity
  8
Shape2DView002
100
AcDbLine
 10
210.05
 20
1000
 30
0
 11
210.05
 21
995
 31
0
  0
LINE
  5
F1A
330
A02
100
AcDbEntity
  8
Shape2DView002
100
AcDbLine
 10
220.35
 20
995
 30
0
 11
210.05
 21
995
 31
0
  0
LINE
  5
F1B
330
A02
100
AcDbEntity
  8
Shape2DView002
100
AcDbLine
 10
220.35
 20
1000
 30
0
 11
220.35
 21
995
 31
0
  0
LINE
  5
F1C
330
A02
100
AcDbEntity
  8
Shape2DView002
100
AcDbLine
 10
220.35
 20
1000
 30
0
 11
230.85
 21
1000
 31
0
  0
LINE
  5
F1D
330
A02
100
AcDbEntity
  8
Shape2DView002
100
AcDbLine
 10
230.85
 20
1000
 30
0
 11
230.85
 21
995
 31
0
  0
LINE
  5
F1E
330
A02
100
AcDbEntity
  8
Shape2DView002
100
AcDbLine
 10
241.15
 20
995
 30
0
 11
230.85
 21
995
 31
0
  0
LINE
  5
F1F
330
A02
100
AcDbEntity
  8
Shape2DView002
100
AcDbLine
 10
241.15
 20
1000
 30
0
 11
241.15
 21
995
 31
0
  0
LINE
  5
F20
330
A02
100
AcDbEntity
  8
Shape2DView002
100
AcDbLine
 10
241.15
 20
1000
 30
0
 11
251.65
 21
1000
 31
0
  0
LINE
  5
F21
330
A02
100
AcDbEntity
  8
Shape2DView002
100
AcDbLine
 10
251.65
 20
1000
 30
0
 11
251.65
 21
995
 31
0
  0
LINE
  5
F22
330
A02
100
AcDbEntity
  8
Shape2DView002
100
AcDbLine
 10
261.95
 20
995
 30
0
 11
251.65
 21
995
 31
0
  0
LINE
  5
F23
330
A02
100
AcDbEntity
  8
Shape2DView002
100
AcDbLine
 10
261.95
 20
1000
 30
0
 11
261.95
 21
995
 31
0
  0
LINE
  5
F24
330
A02
100
AcDbEntity
  8
Shape2DView002
100
AcDbLine
 10
261.95
 20
1000
 30
0
 11
272.45
 21
1000
 31
0
  0
LINE
  5
F25
330
A02
100
AcDbEntity
  8
Shape2DView002
100
AcDbLine
 10
272.45
 20
1000
 30
0
 11
272.45
 21
995
 31
0
  0
LINE
  5
F26
330
A02
100
AcDbEntity
  8
Shape2DView002
100
AcDbLine
 10
282.75
 20
995
 30
0
 11
272.45
 21
995
 31
0
  0
LINE
  5
F27
330
A02
100
AcDbEntity
  8
Shape2DView002
100
AcDbLine
 10
282.75
 20
1000
 30
0
 11
282.75
 21
995
 31
0
  0
LINE
  5
F28
330
A02
100
AcDbEntity
  8
Shape2DView002
100
AcDbLine
 10
257.75
 20
1014.25
 30
0
 11
257.75
 21
1045.75
 31
0
  0
LINE
  5
F29
330
A02
100
AcDbEntity
  8
Shape2DView002
100
AcDbLine
 10
230.25
 20
1014.25
 30
0
 11
257.75
 21
1014.25
 31
0
  0
LINE
  5
F2A
330
A02
100
AcDbEntity
  8
Shape2DView002
100
AcDbLine
 10
230.25
 20
1045.75
 30
0
 11
230.25
 21
1014.25
 31
0
  0
LINE
  5
F2B
330
A02
100
AcDbEntity
  8
Shape2DView002
100
AcDbLine
 10
257.75
 20
1045.75
 30
0
 11
230.25
 21
1045.75
 31
0
  0
CIRCLE
  5
F2C
330
A02
100
AcDbEntity
  8
Shape2DView002
100
AcDbCircle
 10
194
 20
1045.59
 40
3
  0
CIRCLE
  5
F2D
330
A02
100
AcDbEntity
  8
Shape2DView002
100
AcDbCircle
 10
189.5
 20
1037.79
 40
3
  0
CIRCLE
  5
F2E
330
A02
100
AcDbEntity
  8
Shape2DView002
100
AcDbCircle
 10
200.588
 20
1039
 40
3
  0
CIRCLE
  5
F2F
330
A02
100
AcDbEntity
  8
Shape2DView002
100
AcDbCircle
 10
169.412
 20
1021
 40
3
  0
CIRCLE
  5
F30
330
A02
100
AcDbEntity
  8
Shape2DView002
100
AcDbCircle
 10
180.5
 20
1037.79
 40
3
  0
CIRCLE
  5
F31
330
A02
100
AcDbEntity
  8
Shape2DView002
100
AcDbCircle
 10
189.5
 20
1022.21
 40
3
  0
CIRCLE
  5
F32
330
A02
100
AcDbEntity
  8
Shape2DView002
100
AcDbCircle
 10
194
 20
1014.41
 40
3
  0
CIRCLE
  5
F33
330
A02
100
AcDbEntity
  8
Shape2DView002
100
AcDbCircle
 10
176
 20
1045.59
 40
3
  0
CIRCLE
  5
F34
330
A02
100
AcDbEntity
  8
Shape2DView002
100
AcDbCircle
 10
200.588
 20
1021
 40
3
  0
CIRCLE
  5
F35
330
A02
100
AcDbEntity
  8
Shape2DView002
100
AcDbCircle
 10
176
 20
1014.41
 40
3
  0
CIRCLE
  5
F36
330
A02
100
AcDbEntity
  8
Shape2DView002
100
AcDbCircle
 10
180.5
 20
1022.21
 40
3
  0
CIRCLE
  5
F37
330
A02
100
AcDbEntity
  8
Shape2DView002
100
AcDbCircle
 10
169.412
 20
1039
 40
3
  0
CIRCLE
  5
F38
330
A02
100
AcDbEntity
  8
Shape2DView002
100
AcDbCircle
 10
203
 20
1030
 40
3
  0
CIRCLE
  5
F39
330
A02
100
AcDbEntity
  8
Shape2DView002
100
AcDbCircle
 10
167
 20
1030
 40
3
  0
CIRCLE
  5
F3A
330
A02
100
AcDbEntity
  8
Shape2DView002
100
AcDbCircle
 10
194
 20
1030
 40
3
  0
CIRCLE
  5
F3B
330
A02
100
AcDbEntity
  8
Shape2DView002
100
AcDbCircle
 10
185
 20
1030
 40
3
  0
CIRCLE
  5
F3C
330
A02
100
AcDbEntity
  8
Shape2DView002
100
AcDbCircle
 10
176
 20
1030
 40
3
  0
CIRCLE
  5
F3D
330
A02
100
AcDbEntity
  8
Shape2DView002
100
AcDbCircle
 10
185
 20
1048
 40
3
  0
CIRCLE
  5
F3E
330
A02
100
AcDbEntity
  8
Shape2DView002
100
AcDbCircle
 10
185
 20
1012
 40
3
  0
CIRCLE
  5
F3F
330
A02
100
AcDbEntity
  8
Shape2DView002
100
AcDbCircle
 10
226
 20
1030
 40
1.5
  0
CIRCLE
  5
F40
330
A02
100
AcDbEntity
  8
Shape2DView002
100
AcDbCircle
 10
168
 20
1046
 40
1.5
  0
CIRCLE
  5
F41
330
A02
100
AcDbEntity
  8
Shape2DView002
100
AcDbCircle
 10
168
 20
1014
 40
1.5
  0
CIRCLE
  5
F42
330
A02
100
AcDbEntity
  8
Shape2DView002
100
AcDbCircle
 10
200
 20
1046
 40
1.5
  0
CIRCLE
  5
F43
330
A02
100
AcDbEntity
  8
Shape2DView002
100
AcDbCircle
 10
200
 20
1014
 40
1.5
  0
CIRCLE
  5
F44
330
A02
100
AcDbEntity
  8
Shape2DView002
100
AcDbCircle
 10
262
 20
1030
 40
1.5
  0
LINE
  5
F45
330
A02
100
AcDbEntity
  8
Shape2DView001
100
AcDbLine
 10
80
 20
460
 30
0
 11
288
 21
460
 31
0
  0
LINE
  5
F46
330
A02
100
AcDbEntity
  8
Shape2DView001
100
AcDbLine
 10
80
 20
460
 30
0
 11
80
 21
464.85
 31
0
  0
LINE
  5
F47
330
A02
100
AcDbEntity
  8
Shape2DView001
100
AcDbLine
 10
288
 20
460
 30
0
 11
288
 21
464.85
 31
0
  0
LINE
  5
F48
330
A02
100
AcDbEntity
  8
Shape2DView001
100
AcDbLine
 10
80
 20
464.85
 30
0
 11
75
 21
464.85
 31
0
  0
LINE
  5
F49
330
A02
100
AcDbEntity
  8
Shape2DView001
100
AcDbLine
 10
288
 20
464.85
 30
0
 11
293
 21
464.85
 31
0
  0
LINE
  5
F4A
330
A02
100
AcDbEntity
  8
Shape2DView001
100
AcDbLine
 10
75
 20
475.15
 30
0
 11
75
 21
464.85
 31
0
  0
LINE
  5
F4B
330
A02
100
AcDbEntity
  8
Shape2DView001
100
AcDbLine
 10
293
 20
475.15
 30
0
 11
293
 21
464.85
 31
0
  0
LINE
  5
F4C
330
A02
100
AcDbEntity
  8
Shape2DView001
100
AcDbLine
 10
288
 20
475.15
 30
0
 11
293
 21
475.15
 31
0
  0
LINE
  5
F4D
330
A02
100
AcDbEntity
  8
Shape2DView001
100
AcDbLine
 10
288
 20
475.15
 30
0
 11
288
 21
484.85
 31
0
  0
LINE
  5
F4E
330
A02
100
AcDbEntity
  8
Shape2DView001
100
AcDbLine
 10
288
 20
484.85
 30
0
 11
293
 21
484.85
 31
0
  0
LINE
  5
F4F
330
A02
100
AcDbEntity
  8
Shape2DView001
100
AcDbLine
 10
293
 20
495.15
 30
0
 11
293
 21
484.85
 31
0
  0
LINE
  5
F50
330
A02
100
AcDbEntity
  8
Shape2DView001
100
AcDbLine
 10
288
 20
495.15
 30
0
 11
293
 21
495.15
 31
0
  0
LINE
  5
F51
330
A02
100
AcDbEntity
  8
Shape2DView001
100
AcDbLine
 10
288
 20
495.15
 30
0
 11
288
 21
504.85
 31
0
  0
LINE
  5
F52
330
A02
100
AcDbEntity
  8
Shape2DView001
100
AcDbLine
 10
288
 20
504.85
 30
0
 11
293
 21
504.85
 31
0
  0
LINE
  5
F53
330
A02
100
AcDbEntity
  8
Shape2DView001
100
AcDbLine
 10
293
 20
515.15
 30
0
 11
293
 21
504.85
 31
0
  0
LINE
  5
F54
330
A02
100
AcDbEntity
  8
Shape2DView001
100
AcDbLine
 10
288
 20
515.15
 30
0
 11
293
 21
515.15
 31
0
  0
LINE
  5
F55
330
A02
100
AcDbEntity
  8
Shape2DView001
100
AcDbLine
 10
288
 20
515.15
 30
0
 11
288
 21
520
 31
0
  0
LINE
  5
F56
330
A02
100
AcDbEntity
  8
Shape2DView001
100
AcDbLine
 10
288
 20
520
 30
0
 11
282.75
 21
520
 31
0
  0
LINE
  5
F57
330
A02
100
AcDbEntity
  8
Shape2DView001
100
AcDbLine
 10
282.75
 20
520
 30
0
 11
282.75
 21
525
 31
0
  0
LINE
  5
F58
330
A02
100
AcDbEntity
  8
Shape2DView001
100
AcDbLine
 10
272.45
 20
525
 30
0
 11
282.75
 21
525
 31
0
  0
LINE
  5
F59
330
A02
100
AcDbEntity
  8
Shape2DView001
100
AcDbLine
 10
272.45
 20
520
 30
0
 11
272.45
 21
525
 31
0
  0
LINE
  5
F5A
330
A02
100
AcDbEntity
  8
Shape2DView001
100
AcDbLine
 10
272.45
 20
520
 30
0
 11
261.95
 21
520
 31
0
  0
LINE
  5
F5B
330
A02
100
AcDbEntity
  8
Shape2DView001
100
AcDbLine
 10
261.95
 20
520
 30
0
 11
261.95
 21
525
 31
0
  0
LINE
  5
F5C
330
A02
100
AcDbEntity
  8
Shape2DView001
100
AcDbLine
 10
251.65
 20
525
 30
0
 11
261.95
 21
525
 31
0
  0
LINE
  5
F5D
330
A02
100
AcDbEntity
  8
Shape2DView001
100
AcDbLine
 10
251.65
 20
520
 30
0
 11
251.65
 21
525
 31
0
  0
LINE
  5
F5E
330
A02
100
AcDbEntity
  8
Shape2DView001
100
AcDbLine
 10
251.65
 20
520
 30
0
 11
241.15
 21
520
 31
0
  0
LINE
  5
F5F
330
A02
100
AcDbEntity
  8
Shape2DView001
100
AcDbLine
 10
241.15
 20
520
 30
0
 11
241.15
 21
525
 31
0
  0
LINE
  5
F60
330
A02
100
AcDbEntity
  8
Shape2DView001
100
AcDbLine
 10
230.85
 20
525
 30
0
 11
241.15
 21
525
 31
0
  0
LINE
  5
F61
330
A02
100
AcDbEntity
  8
Shape2DView001
100
AcDbLine
 10
230.85
 20
520
 30
0
 11
230.85
 21
525
 31
0
  0
LINE
  5
F62
330
A02
100
AcDbEntity
  8
Shape2DView001
100
AcDbLine
 10
230.85
 20
520
 30
0
 11
220.35
 21
520
 31
0
  0
LINE
  5
F63
330
A02
100
AcDbEntity
  8
Shape2DView001
100
AcDbLine
 10
220.35
 20
520
 30
0
 11
220.35
 21
525
 31
0
  0
LINE
  5
F64
330
A02
100
AcDbEntity
  8
Shape2DView001
100
AcDbLine
 10
210.05
 20
525
 30
0
 11
220.35
 21
525
 31
0
  0
LINE
  5
F65
330
A02
100
AcDbEntity
  8
Shape2DView001
100
AcDbLine
 10
210.05
 20
520
 30
0
 11
210.05
 21
525
 31
0
  0
LINE
  5
F66
330
A02
100
AcDbEntity
  8
Shape2DView001
100
AcDbLine
 10
210.05
 20
520
 30
0
 11
199.55
 21
520
 31
0
  0
LINE
  5
F67
330
A02
100
AcDbEntity
  8
Shape2DView001
100
AcDbLine
 10
199.55
 20
520
 30
0
 11
199.55
 21
525
 31
0
  0
LINE
  5
F68
330
A02
100
AcDbEntity
  8
Shape2DView001
100
AcDbLine
 10
189.25
 20
525
 30
0
 11
199.55
 21
525
 31
0
  0
LINE
  5
F69
330
A02
100
AcDbEntity
  8
Shape2DView001
100
AcDbLine
 10
189.25
 20
520
 30
0
 11
189.25
 21
525
 31
0
  0
LINE
  5
F6A
330
A02
100
AcDbEntity
  8
Shape2DView001
100
AcDbLine
 10
189.25
 20
520
 30
0
 11
178.75
 21
520
 31
0
  0
LINE
  5
F6B
330
A02
100
AcDbEntity
  8
Shape2DView001
100
AcDbLine
 10
178.75
 20
520
 30
0
 11
178.75
 21
525
 31
0
  0
LINE
  5
F6C
330
A02
100
AcDbEntity
  8
Shape2DView001
100
AcDbLine
 10
168.45
 20
525
 30
0
 11
178.75
 21
525
 31
0
  0
LINE
  5
F6D
330
A02
100
AcDbEntity
  8
Shape2DView001
100
AcDbLine
 10
168.45
 20
520
 30
0
 11
168.45
 21
525
 31
0
  0
LINE
  5
F6E
330
A02
100
AcDbEntity
  8
Shape2DView001
100
AcDbLine
 10
168.45
 20
520
 30
0
 11
157.95
 21
520
 31
0
  0
LINE
  5
F6F
330
A02
100
AcDbEntity
  8
Shape2DView001
100
AcDbLine
 10
157.95
 20
520
 30
0
 11
157.95
 21
525
 31
0
  0
LINE
  5
F70
330
A02
100
AcDbEntity
  8
Shape2DView001
100
AcDbLine
 10
147.65
 20
525
 30
0
 11
157.95
 21
525
 31
0
  0
LINE
  5
F71
330
A02
100
AcDbEntity
  8
Shape2DView001
100
AcDbLine
 10
147.65
 20
520
 30
0
 11
147.65
 21
525
 31
0
  0
LINE
  5
F72
330
A02
100
AcDbEntity
  8
Shape2DView001
100
AcDbLine
 10
147.65
 20
520
 30
0
 11
137.15
 21
520
 31
0
  0
LINE
  5
F73
330
A02
100
AcDbEntity
  8
Shape2DView001
100
AcDbLine
 10
137.15
 20
520
 30
0
 11
137.15
 21
525
 31
0
  0
LINE
  5
F74
330
A02
100
AcDbEntity
  8
Shape2DView001
100
AcDbLine
 10
126.85
 20
525
 30
0
 11
137.15
 21
525
 31
0
  0
LINE
  5
F75
330
A02
100
AcDbEntity
  8
Shape2DView001
100
AcDbLine
 10
126.85
 20
520
 30
0
 11
126.85
 21
525
 31
0
  0
LINE
  5
F76
330
A02
100
AcDbEntity
  8
Shape2DView001
100
AcDbLine
 10
126.85
 20
520
 30
0
 11
116.35
 21
520
 31
0
  0
LINE
  5
F77
330
A02
100
AcDbEntity
  8
Shape2DView001
100
AcDbLine
 10
116.35
 20
520
 30
0
 11
116.35
 21
525
 31
0
  0
LINE
  5
F78
330
A02
100
AcDbEntity
  8
Shape2DView001
100
AcDbLine
 10
106.05
 20
525
 30
0
 11
116.35
 21
525
 31
0
  0
LINE
  5
F79
330
A02
100
AcDbEntity
  8
Shape2DView001
100
AcDbLine
 10
106.05
 20
520
 30
0
 11
106.05
 21
525
 31
0
  0
LINE
  5
F7A
330
A02
100
AcDbEntity
  8
Shape2DView001
100
AcDbLine
 10
106.05
 20
520
 30
0
 11
95.55
 21
520
 31
0
  0
LINE
  5
F7B
330
A02
100
AcDbEntity
  8
Shape2DView001
100
AcDbLine
 10
95.55
 20
520
 30
0
 11
95.55
 21
525
 31
0
  0
LINE
  5
F7C
330
A02
100
AcDbEntity
  8
Shape2DView001
100
AcDbLine
 10
85.25
 20
525
 30
0
 11
95.55
 21
525
 31
0
  0
LINE
  5
F7D
330
A02
100
AcDbEntity
  8
Shape2DView001
100
AcDbLine
 10
85.25
 20
520
 30
0
 11
85.25
 21
525
 31
0
  0
LINE
  5
F7E
330
A02
100
AcDbEntity
  8
Shape2DView001
100
AcDbLine
 10
85.25
 20
520
 30
0
 11
80
 21
520
 31
0
  0
LINE
  5
F7F
330
A02
100
AcDbEntity
  8
Shape2DView001
100
AcDbLine
 10
80
 20
515.15
 30
0
 11
80
 21
520
 31
0
  0
LINE
  5
F80
330
A02
100
AcDbEntity
  8
Shape2DView001
100
AcDbLine
 10
80
 20
475.15
 30
0
 11
75
 21
475.15
 31
0
  0
LINE
  5
F81
330
A02
100
AcDbEntity
  8
Shape2DView001
100
AcDbLine
 10
80
 20
475.15
 30
0
 11
80
 21
484.85
 31
0
  0
LINE
  5
F82
330
A02
100
AcDbEntity
  8
Shape2DView001
100
AcDbLine
 10
80
 20
484.85
 30
0
 11
75
 21
484.85
 31
0
  0
LINE
  5
F83
330
A02
100
AcDbEntity
  8
Shape2DView001
100
AcDbLine
 10
75
 20
495.15
 30
0
 11
75
 21
484.85
 31
0
  0
LINE
  5
F84
330
A02
100
AcDbEntity
  8
Shape2DView001
100
AcDbLine
 10
80
 20
495.15
 30
0
 11
75
 21
495.15
 31
0
  0
LINE
  5
F85
330
A02
100
AcDbEntity
  8
Shape2DView001
100
AcDbLine
 10
80
 20
495.15
 30
0
 11
80
 21
504.85
 31
0
  0
LINE
  5
F86
330
A02
100
AcDbEntity
  8
Shape2DView001
100
AcDbLine
 10
80
 20
504.85
 30
0
 11
75
 21
504.85
 31
0
  0
LINE
  5
F87
330
A02
100
AcDbEntity
  8
Shape2DView001
100
AcDbLine
 10
75
 20
515.15
 30
0
 11
75
 21
504.85
 31
0
  0
LINE
  5
F88
330
A02
100
AcDbEntity
  8
Shape2DView001
100
AcDbLine
 10
80
 20
515.15
 30
0
 11
75
 21
515.15
 31
0
  0
ARC
  5
F89
330
A02
100
AcDbEntity
  8
Shape2DView001
100
AcDbCircle
 10
84.5
 20
509.5
 30
0
 40
2.5
100
AcDbArc
 50
90
 51
180
  0
LINE
  5
F8A
330
A02
100
AcDbEntity
  8
Shape2DView001
100
AcDbLine
 10
135.5
 20
512
 30
0
 11
84.5
 21
512
 31
0
  0
ARC
  5
F8B
330
A02
100
AcDbEntity
  8
Shape2DView001
100
AcDbCircle
 10
135.5
 20
509.5
 30
0
 40
2.5
100
AcDbArc
 50
0
 51
90
  0
LINE
  5
F8C
330
A02
100
AcDbEntity
  8
Shape2DView001
100
AcDbLine
 10
138
 20
490.5
 30
0
 11
138
 21
509.5
 31
0
  0
ARC
  5
F8D
330
A02
100
AcDbEntity
  8
Shape2DView001
100
AcDbCircle
 10
135.5
 20
490.5
 30
0
 40
2.5
100
AcDbArc
 50
-90
 51
0
  0
LINE
  5
F8E
330
A02
100
AcDbEntity
  8
Shape2DView001
100
AcDbLine
 10
84.5
 20
488
 30
0
 11
135.5
 21
488
 31
0
  0
ARC
  5
F8F
330
A02
100
AcDbEntity
  8
Shape2DView001
100
AcDbCircle
 10
84.5
 20
490.5
 30
0
 40
2.5
100
AcDbArc
 50
180
 51
-90
  0
LINE
  5
F90
330
A02
100
AcDbEntity
  8
Shape2DView001
100
AcDbLine
 10
82
 20
509.5
 30
0
 11
82
 21
490.5
 31
0
  0
ARC
  5
F91
330
A02
100
AcDbEntity
  8
Shape2DView001
100
AcDbCircle
 10
155.5
 20
509.5
 30
0
 40
2.5
100
AcDbArc
 50
90
 51
180
  0
LINE
  5
F92
330
A02
100
AcDbEntity
  8
Shape2DView001
100
AcDbLine
 10
204
 20
512
 30
0
 11
155.5
 21
512
 31
0
  0
ARC
  5
F93
330
A02
100
AcDbEntity
  8
Shape2DView001
100
AcDbCircle
 10
204
 20
509.5
 30
0
 40
2.5
100
AcDbArc
 50
0
 51
90
  0
LINE
  5
F94
330
A02
100
AcDbEntity
  8
Shape2DView001
100
AcDbLine
 10
206.5
 20
496.5
 30
0
 11
206.5
 21
509.5
 31
0
  0
ARC
  5
F95
330
A02
100
AcDbEntity
  8
Shape2DView001
100
AcDbCircle
 10
204
 20
496.5
 30
0
 40
2.5
100
AcDbArc
 50
-90
 51
0
  0
LINE
  5
F96
330
A02
100
AcDbEntity
  8
Shape2DView001
100
AcDbLine
 10
155.5
 20
494
 30
0
 11
204
 21
494
 31
0
  0
ARC
  5
F97
330
A02
100
AcDbEntity
  8
Shape2DView001
100
AcDbCircle
 10
155.5
 20
496.5
 30
0
 40
2.5
100
AcDbArc
 50
180
 51
-90
  0
LINE
  5
F98
330
A02
100
AcDbEntity
  8
Shape2DView001
100
AcDbLine
 10
153
 20
509.5
 30
0
 11
153
 21
496.5
 31
0
  0
LINE
  5
F99
330
A02
100
AcDbEntity
  8
Shape2DView
100
AcDbLine
 10
130
 20
415
 30
0
 11
130
 21
385
 31
0
  0
ARC
  5
F9A
330
A02
100
AcDbEntity
  8
Shape2DView
100
AcDbCircle
 10
132.5
 20
415
 30
0
 40
2.5
100
AcDbArc
 50
0
 51
180
  0
LINE
  5
F9B
330
A02
100
AcDbEntity
  8
Shape2DView
100
AcDbLine
 10
135
 20
385
 30
0
 11
135
 21
415
 31
0
  0
LINE
  5
F9C
330
A02
100
AcDbEntity
  8
Shape2DView
100
AcDbLine
 10
135
 20
385
 30
0
 11
182.5
 21
385
 31
0
  0
LINE
  5
F9D
330
A02
100
AcDbEntity
  8
Shape2DView
100
AcDbLine
 10
182.5
 20
415
 30
0
 11
182.5
 21
385
 31
0
  0
ARC
  5
F9E
330
A02
100
AcDbEntity
  8
Shape2DView
100
AcDbCircle
 10
185
 20
415
 30
0
 40
2.5
100
AcDbArc
 50
0
 51
180
  0
LINE
  5
F9F
330
A02
100
AcDbEntity
  8
Shape2DView
100
AcDbLine
 10
187.5
 20
415
 30
0
 11
187.5
 21
385
 31
0
  0
ARC
  5
FA0
330
A02
100
AcDbEntity
  8
Shape2DView
100
AcDbCircle
 10
236.5
 20
415
 30
0
 40
2.5
100
AcDbArc
 50
0
 51
180
  0
LINE
  5
FA1
330
A02
100
AcDbEntity
  8
Shape2DView
100
AcDbLine
 10
234
 20
415
 30
0
 11
234
 21
385
 31
0
  0
LINE
  5
FA2
330
A02
100
AcDbEntity
  8
Shape2DView
100
AcDbLine
 10
239
 20
415
 30
0
 11
239
 21
385
 31
0
  0
LINE
  5
FA3
330
A02
100
AcDbEntity
  8
Shape2DView
100
AcDbLine
 10
187.5
 20
385
 30
0
 11
234
 21
385
 31
0
  0
LINE
  5
FA4
330
A02
100
AcDbEntity
  8
Shape2DView
100
AcDbLine
 10
239
 20
385
 30
0
 11
293
 21
385
 31
0
  0
LINE
  5
FA5
330
A02
100
AcDbEntity
  8
Shape2DView
100
AcDbLine
 10
293
 20
405.15
 30
0
 11
293
 21
385
 31
0
  0
LINE
  5
FA6
330
A02
100
AcDbEntity
  8
Shape2DView
100
AcDbLine
 10
288
 20
405.15
 30
0
 11
293
 21
405.15
 31
0
  0
LINE
  5
FA7
330
A02
100
AcDbEntity
  8
Shape2DView
100
AcDbLine
 10
288
 20
405.15
 30
0
 11
288
 21
445
 31
0
  0
LINE
  5
FA8
330
A02
100
AcDbEntity
  8
Shape2DView
100
AcDbLine
 10
288
 20
445
 30
0
 11
282.75
 21
445
 31
0
  0
LINE
  5
FA9
330
A02
100
AcDbEntity
  8
Shape2DView
100
AcDbLine
 10
282.75
 20
445
 30
0
 11
282.75
 21
450
 31
0
  0
LINE
  5
FAA
330
A02
100
AcDbEntity
  8
Shape2DView
100
AcDbLine
 10
272.45
 20
450
 30
0
 11
282.75
 21
450
 31
0
  0
LINE
  5
FAB
330
A02
100
AcDbEntity
  8
Shape2DView
100
AcDbLine
 10
272.45
 20
445
 30
0
 11
272.45
 21
450
 31
0
  0
LINE
  5
FAC
330
A02
100
AcDbEntity
  8
Shape2DView
100
AcDbLine
 10
272.45
 20
445
 30
0
 11
261.95
 21
445
 31
0
  0
LINE
  5
FAD
330
A02
100
AcDbEntity
  8
Shape2DView
100
AcDbLine
 10
261.95
 20
445
 30
0
 11
261.95
 21
450
 31
0
  0
LINE
  5
FAE
330
A02
100
AcDbEntity
  8
Shape2DView
100
AcDbLine
 10
251.65
 20
450
 30
0
 11
261.95
 21
450
 31
0
  0
LINE
  5
FAF
330
A02
100
AcDbEntity
  8
Shape2DView
100
AcDbLine
 10
251.65
 20
445
 30
0
 11
251.65
 21
450
 31
0
  0
LINE
  5
FB0
330
A02
100
AcDbEntity
  8
Shape2DView
100
AcDbLine
 10
251.65
 20
445
 30
0
 11
241.15
 21
445
 31
0
  0
LINE
  5
FB1
330
A02
100
AcDbEntity
  8
Shape2DView
100
AcDbLine
 10
241.15
 20
445
 30
0
 11
241.15
 21
450
 31
0
  0
LINE
  5
FB2
330
A02
100
AcDbEntity
  8
Shape2DView
100
AcDbLine
 10
230.85
 20
450
 30
0
 11
241.15
 21
450
 31
0
  0
LINE
  5
FB3
330
A02
100
AcDbEntity
  8
Shape2DView
100
AcDbLine
 10
230.85
 20
445
 30
0
 11
230.85
 21
450
 31
0
  0
LINE
  5
FB4
330
A02
100
AcDbEntity
  8
Shape2DView
100
AcDbLine
 10
230.85
 20
445
 30
0
 11
220.35
 21
445
 31
0
  0
LINE
  5
FB5
330
A02
100
AcDbEntity
  8
Shape2DView
100
AcDbLine
 10
220.35
 20
445
 30
0
 11
220.35
 21
450
 31
0
  0
LINE
  5
FB6
330
A02
100
AcDbEntity
  8
Shape2DView
100
AcDbLine
 10
210.05
 20
450
 30
0
 11
220.35
 21
450
 31
0
  0
LINE
  5
FB7
330
A02
100
AcDbEntity
  8
Shape2DView
100
AcDbLine
 10
210.05
 20
445
 30
0
 11
210.05
 21
450
 31
0
  0
LINE
  5
FB8
330
A02
100
AcDbEntity
  8
Shape2DView
100
AcDbLine
 10
210.05
 20
445
 30
0
 11
199.55
 21
445
 31
0
  0
LINE
  5
FB9
330
A02
100
AcDbEntity
  8
Shape2DView
100
AcDbLine
 10
199.55
 20
445
 30
0
 11
199.55
 21
450
 31
0
  0
LINE
  5
FBA
330
A02
100
AcDbEntity
  8
Shape2DView
100
AcDbLine
 10
189.25
 20
450
 30
0
 11
199.55
 21
450
 31
0
  0
LINE
  5
FBB
330
A02
100
AcDbEntity
  8
Shape2DView
100
AcDbLine
 10
189.25
 20
445
 30
0
 11
189.25
 21
450
 31
0
  0
LINE
  5
FBC
330
A02
100
AcDbEntity
  8
Shape2DView
100
AcDbLine
 10
189.25
 20
445
 30
0
 11
178.75
 21
445
 31
0
  0
LINE
  5
FBD
330
A02
100
AcDbEntity
  8
Shape2DView
100
AcDbLine
 10
178.75
 20
445
 30
0
 11
178.75
 21
450
 31
0
  0
LINE
  5
FBE
330
A02
100
AcDbEntity
  8
Shape2DView
100
AcDbLine
 10
168.45
 20
450
 30
0
 11
178.75
 21
450
 31
0
  0
LINE
  5
FBF
330
A02
100
AcDbEntity
  8
Shape2DView
100
AcDbLine
 10
168.45
 20
445
 30
0
 11
168.45
 21
450
 31
0
  0
LINE
  5
FC0
330
A02
100
AcDbEntity
  8
Shape2DView
100
AcDbLine
 10
168.45
 20
445
 30
0
 11
157.95
 21
445
 31
0
  0
LINE
  5
FC1
330
A02
100
AcDbEntity
  8
Shape2DView
100
AcDbLine
 10
157.95
 20
445
 30
0
 11
157.95
 21
450
 31
0
  0
LINE
  5
FC2
330
A02
100
AcDbEntity
  8
Shape2DView
100
AcDbLine
 10
147.65
 20
450
 30
0
 11
157.95
 21
450
 31
0
  0
LINE
  5
FC3
330
A02
100
AcDbEntity
  8
Shape2DView
100
AcDbLine
 10
147.65
 20
445
 30
0
 11
147.65
 21
450
 31
0
  0
LINE
  5
FC4
330
A02
100
AcDbEntity
  8
Shape2DView
100
AcDbLine
 10
147.65
 20
445
 30
0
 11
137.15
 21
445
 31
0
  0
LINE
  5
FC5
330
A02
100
AcDbEntity
  8
Shape2DView
100
AcDbLine
 10
137.15
 20
445
 30
0
 11
137.15
 21
450
 31
0
  0
LINE
  5
FC6
330
A02
100
AcDbEntity
  8
Shape2DView
100
AcDbLine
 10
126.85
 20
450
 30
0
 11
137.15
 21
450
 31
0
  0
LINE
  5
FC7
330
A02
100
AcDbEntity
  8
Shape2DView
100
AcDbLine
 10
126.85
 20
445
 30
0
 11
126.85
 21
450
 31
0
  0
LINE
  5
FC8
330
A02
100
AcDbEntity
  8
Shape2DView
100
AcDbLine
 10
126.85
 20
445
 30
0
 11
116.35
 21
445
 31
0
  0
LINE
  5
FC9
330
A02
100
AcDbEntity
  8
Shape2DView
100
AcDbLine
 10
116.35
 20
445
 30
0
 11
116.35
 21
450
 31
0
  0
LINE
  5
FCA
330
A02
100
AcDbEntity
  8
Shape2DView
100
AcDbLine
 10
106.05
 20
450
 30
0
 11
116.35
 21
450
 31
0
  0
LINE
  5
FCB
330
A02
100
AcDbEntity
  8
Shape2DView
100
AcDbLine
 10
106.05
 20
445
 30
0
 11
106.05
 21
450
 31
0
  0
LINE
  5
FCC
330
A02
100
AcDbEntity
  8
Shape2DView
100
AcDbLine
 10
106.05
 20
445
 30
0
 11
95.55
 21
445
 31
0
  0
LINE
  5
FCD
330
A02
100
AcDbEntity
  8
Shape2DView
100
AcDbLine
 10
95.55
 20
445
 30
0
 11
95.55
 21
450
 31
0
  0
LINE
  5
FCE
330
A02
100
AcDbEntity
  8
Shape2DView
100
AcDbLine
 10
85.25
 20
450
 30
0
 11
95.55
 21
450
 31
0
  0
LINE
  5
FCF
330
A02
100
AcDbEntity
  8
Shape2DView
100
AcDbLine
 10
85.25
 20
445
 30
0
 11
85.25
 21
450
 31
0
  0
LINE
  5
FD0
330
A02
100
AcDbEntity
  8
Shape2DView
100
AcDbLine
 10
85.25
 20
445
 30
0
 11
80
 21
445
 31
0
  0
LINE
  5
FD1
330
A02
100
AcDbEntity
  8
Shape2DView
100
AcDbLine
 10
80
 20
445
 30
0
 11
80
 21
405.15
 31
0
  0
LINE
  5
FD2
330
A02
100
AcDbEntity
  8
Shape2DView
100
AcDbLine
 10
80
 20
405.15
 30
0
 11
75
 21
405.15
 31
0
  0
LINE
  5
FD3
330
A02
100
AcDbEntity
  8
Shape2DView
100
AcDbLine
 10
75
 20
385
 30
0
 11
75
 21
405.15
 31
0
  0
LINE
  5
FD4
330
A02
100
AcDbEntity
  8
Shape2DView
100
AcDbLine
 10
130
 20
385
 30
0
 11
75
 21
385
 31
0
  0
ENDSEC
  0
SECTION
  2
OBJECTS
  0
DICTIONARY
  5
F000
330
0
100
AcDbDictionary
  3
ACAD_GROUP
350
F001
  0
DICTIONARY
  5
F001
330
F000
100
AcDbDictionary
  0
ENDSEC
  0
EOF